%TF.GenerationSoftware,KiCad,Pcbnew,9.0.4*%
%TF.CreationDate,2025-11-16T17:21:23-06:00*%
%TF.ProjectId,zynq_test,7a796e71-5f74-4657-9374-2e6b69636164,rev?*%
%TF.SameCoordinates,Original*%
%TF.FileFunction,Legend,Bot*%
%TF.FilePolarity,Positive*%
%FSLAX46Y46*%
G04 Gerber Fmt 4.6, Leading zero omitted, Abs format (unit mm)*
G04 Created by KiCad (PCBNEW 9.0.4) date 2025-11-16 17:21:23*
%MOMM*%
%LPD*%
G01*
G04 APERTURE LIST*
%ADD10C,0.150000*%
%ADD11C,0.100000*%
%ADD12C,0.508000*%
%ADD13C,0.120000*%
%ADD14C,0.152400*%
%ADD15C,0.000000*%
%ADD16C,0.127000*%
%ADD17C,0.200000*%
G04 APERTURE END LIST*
D10*
X171534819Y-99042857D02*
X171058628Y-99376190D01*
X171534819Y-99614285D02*
X170534819Y-99614285D01*
X170534819Y-99614285D02*
X170534819Y-99233333D01*
X170534819Y-99233333D02*
X170582438Y-99138095D01*
X170582438Y-99138095D02*
X170630057Y-99090476D01*
X170630057Y-99090476D02*
X170725295Y-99042857D01*
X170725295Y-99042857D02*
X170868152Y-99042857D01*
X170868152Y-99042857D02*
X170963390Y-99090476D01*
X170963390Y-99090476D02*
X171011009Y-99138095D01*
X171011009Y-99138095D02*
X171058628Y-99233333D01*
X171058628Y-99233333D02*
X171058628Y-99614285D01*
X170534819Y-98709523D02*
X171534819Y-98042857D01*
X170534819Y-98042857D02*
X171534819Y-98709523D01*
X170534819Y-97471428D02*
X170534819Y-97376190D01*
X170534819Y-97376190D02*
X170582438Y-97280952D01*
X170582438Y-97280952D02*
X170630057Y-97233333D01*
X170630057Y-97233333D02*
X170725295Y-97185714D01*
X170725295Y-97185714D02*
X170915771Y-97138095D01*
X170915771Y-97138095D02*
X171153866Y-97138095D01*
X171153866Y-97138095D02*
X171344342Y-97185714D01*
X171344342Y-97185714D02*
X171439580Y-97233333D01*
X171439580Y-97233333D02*
X171487200Y-97280952D01*
X171487200Y-97280952D02*
X171534819Y-97376190D01*
X171534819Y-97376190D02*
X171534819Y-97471428D01*
X171534819Y-97471428D02*
X171487200Y-97566666D01*
X171487200Y-97566666D02*
X171439580Y-97614285D01*
X171439580Y-97614285D02*
X171344342Y-97661904D01*
X171344342Y-97661904D02*
X171153866Y-97709523D01*
X171153866Y-97709523D02*
X170915771Y-97709523D01*
X170915771Y-97709523D02*
X170725295Y-97661904D01*
X170725295Y-97661904D02*
X170630057Y-97614285D01*
X170630057Y-97614285D02*
X170582438Y-97566666D01*
X170582438Y-97566666D02*
X170534819Y-97471428D01*
X166630475Y-119444819D02*
X166630475Y-120254342D01*
X166630475Y-120254342D02*
X166582856Y-120349580D01*
X166582856Y-120349580D02*
X166535237Y-120397200D01*
X166535237Y-120397200D02*
X166439999Y-120444819D01*
X166439999Y-120444819D02*
X166249523Y-120444819D01*
X166249523Y-120444819D02*
X166154285Y-120397200D01*
X166154285Y-120397200D02*
X166106666Y-120349580D01*
X166106666Y-120349580D02*
X166059047Y-120254342D01*
X166059047Y-120254342D02*
X166059047Y-119444819D01*
X165059047Y-120444819D02*
X165630475Y-120444819D01*
X165344761Y-120444819D02*
X165344761Y-119444819D01*
X165344761Y-119444819D02*
X165439999Y-119587676D01*
X165439999Y-119587676D02*
X165535237Y-119682914D01*
X165535237Y-119682914D02*
X165630475Y-119730533D01*
X164201904Y-119444819D02*
X164392380Y-119444819D01*
X164392380Y-119444819D02*
X164487618Y-119492438D01*
X164487618Y-119492438D02*
X164535237Y-119540057D01*
X164535237Y-119540057D02*
X164630475Y-119682914D01*
X164630475Y-119682914D02*
X164678094Y-119873390D01*
X164678094Y-119873390D02*
X164678094Y-120254342D01*
X164678094Y-120254342D02*
X164630475Y-120349580D01*
X164630475Y-120349580D02*
X164582856Y-120397200D01*
X164582856Y-120397200D02*
X164487618Y-120444819D01*
X164487618Y-120444819D02*
X164297142Y-120444819D01*
X164297142Y-120444819D02*
X164201904Y-120397200D01*
X164201904Y-120397200D02*
X164154285Y-120349580D01*
X164154285Y-120349580D02*
X164106666Y-120254342D01*
X164106666Y-120254342D02*
X164106666Y-120016247D01*
X164106666Y-120016247D02*
X164154285Y-119921009D01*
X164154285Y-119921009D02*
X164201904Y-119873390D01*
X164201904Y-119873390D02*
X164297142Y-119825771D01*
X164297142Y-119825771D02*
X164487618Y-119825771D01*
X164487618Y-119825771D02*
X164582856Y-119873390D01*
X164582856Y-119873390D02*
X164630475Y-119921009D01*
X164630475Y-119921009D02*
X164678094Y-120016247D01*
X163487618Y-119444819D02*
X163392380Y-119444819D01*
X163392380Y-119444819D02*
X163297142Y-119492438D01*
X163297142Y-119492438D02*
X163249523Y-119540057D01*
X163249523Y-119540057D02*
X163201904Y-119635295D01*
X163201904Y-119635295D02*
X163154285Y-119825771D01*
X163154285Y-119825771D02*
X163154285Y-120063866D01*
X163154285Y-120063866D02*
X163201904Y-120254342D01*
X163201904Y-120254342D02*
X163249523Y-120349580D01*
X163249523Y-120349580D02*
X163297142Y-120397200D01*
X163297142Y-120397200D02*
X163392380Y-120444819D01*
X163392380Y-120444819D02*
X163487618Y-120444819D01*
X163487618Y-120444819D02*
X163582856Y-120397200D01*
X163582856Y-120397200D02*
X163630475Y-120349580D01*
X163630475Y-120349580D02*
X163678094Y-120254342D01*
X163678094Y-120254342D02*
X163725713Y-120063866D01*
X163725713Y-120063866D02*
X163725713Y-119825771D01*
X163725713Y-119825771D02*
X163678094Y-119635295D01*
X163678094Y-119635295D02*
X163630475Y-119540057D01*
X163630475Y-119540057D02*
X163582856Y-119492438D01*
X163582856Y-119492438D02*
X163487618Y-119444819D01*
X162773332Y-119540057D02*
X162725713Y-119492438D01*
X162725713Y-119492438D02*
X162630475Y-119444819D01*
X162630475Y-119444819D02*
X162392380Y-119444819D01*
X162392380Y-119444819D02*
X162297142Y-119492438D01*
X162297142Y-119492438D02*
X162249523Y-119540057D01*
X162249523Y-119540057D02*
X162201904Y-119635295D01*
X162201904Y-119635295D02*
X162201904Y-119730533D01*
X162201904Y-119730533D02*
X162249523Y-119873390D01*
X162249523Y-119873390D02*
X162820951Y-120444819D01*
X162820951Y-120444819D02*
X162201904Y-120444819D01*
X163523199Y-112744189D02*
X163523199Y-112982284D01*
X163761294Y-112887046D02*
X163523199Y-112982284D01*
X163523199Y-112982284D02*
X163285104Y-112887046D01*
X163666056Y-113172760D02*
X163523199Y-112982284D01*
X163523199Y-112982284D02*
X163380342Y-113172760D01*
X163523199Y-112744189D02*
X163523199Y-112982284D01*
X163761294Y-112887046D02*
X163523199Y-112982284D01*
X163523199Y-112982284D02*
X163285104Y-112887046D01*
X163666056Y-113172760D02*
X163523199Y-112982284D01*
X163523199Y-112982284D02*
X163380342Y-113172760D01*
X165514285Y-103504819D02*
X166085713Y-103504819D01*
X165799999Y-103504819D02*
X165799999Y-102504819D01*
X165799999Y-102504819D02*
X165895237Y-102647676D01*
X165895237Y-102647676D02*
X165990475Y-102742914D01*
X165990475Y-102742914D02*
X166085713Y-102790533D01*
X166133332Y-97304819D02*
X165514285Y-97304819D01*
X165514285Y-97304819D02*
X165847618Y-97685771D01*
X165847618Y-97685771D02*
X165704761Y-97685771D01*
X165704761Y-97685771D02*
X165609523Y-97733390D01*
X165609523Y-97733390D02*
X165561904Y-97781009D01*
X165561904Y-97781009D02*
X165514285Y-97876247D01*
X165514285Y-97876247D02*
X165514285Y-98114342D01*
X165514285Y-98114342D02*
X165561904Y-98209580D01*
X165561904Y-98209580D02*
X165609523Y-98257200D01*
X165609523Y-98257200D02*
X165704761Y-98304819D01*
X165704761Y-98304819D02*
X165990475Y-98304819D01*
X165990475Y-98304819D02*
X166085713Y-98257200D01*
X166085713Y-98257200D02*
X166133332Y-98209580D01*
X132009580Y-120754761D02*
X132057200Y-120707142D01*
X132057200Y-120707142D02*
X132104819Y-120564285D01*
X132104819Y-120564285D02*
X132104819Y-120469047D01*
X132104819Y-120469047D02*
X132057200Y-120326190D01*
X132057200Y-120326190D02*
X131961961Y-120230952D01*
X131961961Y-120230952D02*
X131866723Y-120183333D01*
X131866723Y-120183333D02*
X131676247Y-120135714D01*
X131676247Y-120135714D02*
X131533390Y-120135714D01*
X131533390Y-120135714D02*
X131342914Y-120183333D01*
X131342914Y-120183333D02*
X131247676Y-120230952D01*
X131247676Y-120230952D02*
X131152438Y-120326190D01*
X131152438Y-120326190D02*
X131104819Y-120469047D01*
X131104819Y-120469047D02*
X131104819Y-120564285D01*
X131104819Y-120564285D02*
X131152438Y-120707142D01*
X131152438Y-120707142D02*
X131200057Y-120754761D01*
X132104819Y-121707142D02*
X132104819Y-121135714D01*
X132104819Y-121421428D02*
X131104819Y-121421428D01*
X131104819Y-121421428D02*
X131247676Y-121326190D01*
X131247676Y-121326190D02*
X131342914Y-121230952D01*
X131342914Y-121230952D02*
X131390533Y-121135714D01*
X131438152Y-122564285D02*
X132104819Y-122564285D01*
X131057200Y-122326190D02*
X131771485Y-122088095D01*
X131771485Y-122088095D02*
X131771485Y-122707142D01*
X131104819Y-122992857D02*
X131104819Y-123611904D01*
X131104819Y-123611904D02*
X131485771Y-123278571D01*
X131485771Y-123278571D02*
X131485771Y-123421428D01*
X131485771Y-123421428D02*
X131533390Y-123516666D01*
X131533390Y-123516666D02*
X131581009Y-123564285D01*
X131581009Y-123564285D02*
X131676247Y-123611904D01*
X131676247Y-123611904D02*
X131914342Y-123611904D01*
X131914342Y-123611904D02*
X132009580Y-123564285D01*
X132009580Y-123564285D02*
X132057200Y-123516666D01*
X132057200Y-123516666D02*
X132104819Y-123421428D01*
X132104819Y-123421428D02*
X132104819Y-123135714D01*
X132104819Y-123135714D02*
X132057200Y-123040476D01*
X132057200Y-123040476D02*
X132009580Y-122992857D01*
X131200057Y-123992857D02*
X131152438Y-124040476D01*
X131152438Y-124040476D02*
X131104819Y-124135714D01*
X131104819Y-124135714D02*
X131104819Y-124373809D01*
X131104819Y-124373809D02*
X131152438Y-124469047D01*
X131152438Y-124469047D02*
X131200057Y-124516666D01*
X131200057Y-124516666D02*
X131295295Y-124564285D01*
X131295295Y-124564285D02*
X131390533Y-124564285D01*
X131390533Y-124564285D02*
X131533390Y-124516666D01*
X131533390Y-124516666D02*
X132104819Y-123945238D01*
X132104819Y-123945238D02*
X132104819Y-124564285D01*
X85624047Y-84859580D02*
X85671666Y-84907200D01*
X85671666Y-84907200D02*
X85814523Y-84954819D01*
X85814523Y-84954819D02*
X85909761Y-84954819D01*
X85909761Y-84954819D02*
X86052618Y-84907200D01*
X86052618Y-84907200D02*
X86147856Y-84811961D01*
X86147856Y-84811961D02*
X86195475Y-84716723D01*
X86195475Y-84716723D02*
X86243094Y-84526247D01*
X86243094Y-84526247D02*
X86243094Y-84383390D01*
X86243094Y-84383390D02*
X86195475Y-84192914D01*
X86195475Y-84192914D02*
X86147856Y-84097676D01*
X86147856Y-84097676D02*
X86052618Y-84002438D01*
X86052618Y-84002438D02*
X85909761Y-83954819D01*
X85909761Y-83954819D02*
X85814523Y-83954819D01*
X85814523Y-83954819D02*
X85671666Y-84002438D01*
X85671666Y-84002438D02*
X85624047Y-84050057D01*
X84719285Y-83954819D02*
X85195475Y-83954819D01*
X85195475Y-83954819D02*
X85243094Y-84431009D01*
X85243094Y-84431009D02*
X85195475Y-84383390D01*
X85195475Y-84383390D02*
X85100237Y-84335771D01*
X85100237Y-84335771D02*
X84862142Y-84335771D01*
X84862142Y-84335771D02*
X84766904Y-84383390D01*
X84766904Y-84383390D02*
X84719285Y-84431009D01*
X84719285Y-84431009D02*
X84671666Y-84526247D01*
X84671666Y-84526247D02*
X84671666Y-84764342D01*
X84671666Y-84764342D02*
X84719285Y-84859580D01*
X84719285Y-84859580D02*
X84766904Y-84907200D01*
X84766904Y-84907200D02*
X84862142Y-84954819D01*
X84862142Y-84954819D02*
X85100237Y-84954819D01*
X85100237Y-84954819D02*
X85195475Y-84907200D01*
X85195475Y-84907200D02*
X85243094Y-84859580D01*
X83814523Y-84288152D02*
X83814523Y-84954819D01*
X84052618Y-83907200D02*
X84290713Y-84621485D01*
X84290713Y-84621485D02*
X83671666Y-84621485D01*
X83385951Y-83954819D02*
X82766904Y-83954819D01*
X82766904Y-83954819D02*
X83100237Y-84335771D01*
X83100237Y-84335771D02*
X82957380Y-84335771D01*
X82957380Y-84335771D02*
X82862142Y-84383390D01*
X82862142Y-84383390D02*
X82814523Y-84431009D01*
X82814523Y-84431009D02*
X82766904Y-84526247D01*
X82766904Y-84526247D02*
X82766904Y-84764342D01*
X82766904Y-84764342D02*
X82814523Y-84859580D01*
X82814523Y-84859580D02*
X82862142Y-84907200D01*
X82862142Y-84907200D02*
X82957380Y-84954819D01*
X82957380Y-84954819D02*
X83243094Y-84954819D01*
X83243094Y-84954819D02*
X83338332Y-84907200D01*
X83338332Y-84907200D02*
X83385951Y-84859580D01*
X173765714Y-45854819D02*
X173765714Y-46569104D01*
X173765714Y-46569104D02*
X173813333Y-46711961D01*
X173813333Y-46711961D02*
X173908571Y-46807200D01*
X173908571Y-46807200D02*
X174051428Y-46854819D01*
X174051428Y-46854819D02*
X174146666Y-46854819D01*
X173146666Y-46283390D02*
X173241904Y-46235771D01*
X173241904Y-46235771D02*
X173289523Y-46188152D01*
X173289523Y-46188152D02*
X173337142Y-46092914D01*
X173337142Y-46092914D02*
X173337142Y-46045295D01*
X173337142Y-46045295D02*
X173289523Y-45950057D01*
X173289523Y-45950057D02*
X173241904Y-45902438D01*
X173241904Y-45902438D02*
X173146666Y-45854819D01*
X173146666Y-45854819D02*
X172956190Y-45854819D01*
X172956190Y-45854819D02*
X172860952Y-45902438D01*
X172860952Y-45902438D02*
X172813333Y-45950057D01*
X172813333Y-45950057D02*
X172765714Y-46045295D01*
X172765714Y-46045295D02*
X172765714Y-46092914D01*
X172765714Y-46092914D02*
X172813333Y-46188152D01*
X172813333Y-46188152D02*
X172860952Y-46235771D01*
X172860952Y-46235771D02*
X172956190Y-46283390D01*
X172956190Y-46283390D02*
X173146666Y-46283390D01*
X173146666Y-46283390D02*
X173241904Y-46331009D01*
X173241904Y-46331009D02*
X173289523Y-46378628D01*
X173289523Y-46378628D02*
X173337142Y-46473866D01*
X173337142Y-46473866D02*
X173337142Y-46664342D01*
X173337142Y-46664342D02*
X173289523Y-46759580D01*
X173289523Y-46759580D02*
X173241904Y-46807200D01*
X173241904Y-46807200D02*
X173146666Y-46854819D01*
X173146666Y-46854819D02*
X172956190Y-46854819D01*
X172956190Y-46854819D02*
X172860952Y-46807200D01*
X172860952Y-46807200D02*
X172813333Y-46759580D01*
X172813333Y-46759580D02*
X172765714Y-46664342D01*
X172765714Y-46664342D02*
X172765714Y-46473866D01*
X172765714Y-46473866D02*
X172813333Y-46378628D01*
X172813333Y-46378628D02*
X172860952Y-46331009D01*
X172860952Y-46331009D02*
X172956190Y-46283390D01*
X172146666Y-45854819D02*
X172051428Y-45854819D01*
X172051428Y-45854819D02*
X171956190Y-45902438D01*
X171956190Y-45902438D02*
X171908571Y-45950057D01*
X171908571Y-45950057D02*
X171860952Y-46045295D01*
X171860952Y-46045295D02*
X171813333Y-46235771D01*
X171813333Y-46235771D02*
X171813333Y-46473866D01*
X171813333Y-46473866D02*
X171860952Y-46664342D01*
X171860952Y-46664342D02*
X171908571Y-46759580D01*
X171908571Y-46759580D02*
X171956190Y-46807200D01*
X171956190Y-46807200D02*
X172051428Y-46854819D01*
X172051428Y-46854819D02*
X172146666Y-46854819D01*
X172146666Y-46854819D02*
X172241904Y-46807200D01*
X172241904Y-46807200D02*
X172289523Y-46759580D01*
X172289523Y-46759580D02*
X172337142Y-46664342D01*
X172337142Y-46664342D02*
X172384761Y-46473866D01*
X172384761Y-46473866D02*
X172384761Y-46235771D01*
X172384761Y-46235771D02*
X172337142Y-46045295D01*
X172337142Y-46045295D02*
X172289523Y-45950057D01*
X172289523Y-45950057D02*
X172241904Y-45902438D01*
X172241904Y-45902438D02*
X172146666Y-45854819D01*
X171479999Y-45854819D02*
X170860952Y-45854819D01*
X170860952Y-45854819D02*
X171194285Y-46235771D01*
X171194285Y-46235771D02*
X171051428Y-46235771D01*
X171051428Y-46235771D02*
X170956190Y-46283390D01*
X170956190Y-46283390D02*
X170908571Y-46331009D01*
X170908571Y-46331009D02*
X170860952Y-46426247D01*
X170860952Y-46426247D02*
X170860952Y-46664342D01*
X170860952Y-46664342D02*
X170908571Y-46759580D01*
X170908571Y-46759580D02*
X170956190Y-46807200D01*
X170956190Y-46807200D02*
X171051428Y-46854819D01*
X171051428Y-46854819D02*
X171337142Y-46854819D01*
X171337142Y-46854819D02*
X171432380Y-46807200D01*
X171432380Y-46807200D02*
X171479999Y-46759580D01*
X164900286Y-90007219D02*
X164900286Y-90816742D01*
X164900286Y-90816742D02*
X164852667Y-90911980D01*
X164852667Y-90911980D02*
X164805048Y-90959600D01*
X164805048Y-90959600D02*
X164709810Y-91007219D01*
X164709810Y-91007219D02*
X164519334Y-91007219D01*
X164519334Y-91007219D02*
X164424096Y-90959600D01*
X164424096Y-90959600D02*
X164376477Y-90911980D01*
X164376477Y-90911980D02*
X164328858Y-90816742D01*
X164328858Y-90816742D02*
X164328858Y-90007219D01*
X163328858Y-91007219D02*
X163900286Y-91007219D01*
X163614572Y-91007219D02*
X163614572Y-90007219D01*
X163614572Y-90007219D02*
X163709810Y-90150076D01*
X163709810Y-90150076D02*
X163805048Y-90245314D01*
X163805048Y-90245314D02*
X163900286Y-90292933D01*
X162424096Y-90007219D02*
X162900286Y-90007219D01*
X162900286Y-90007219D02*
X162947905Y-90483409D01*
X162947905Y-90483409D02*
X162900286Y-90435790D01*
X162900286Y-90435790D02*
X162805048Y-90388171D01*
X162805048Y-90388171D02*
X162566953Y-90388171D01*
X162566953Y-90388171D02*
X162471715Y-90435790D01*
X162471715Y-90435790D02*
X162424096Y-90483409D01*
X162424096Y-90483409D02*
X162376477Y-90578647D01*
X162376477Y-90578647D02*
X162376477Y-90816742D01*
X162376477Y-90816742D02*
X162424096Y-90911980D01*
X162424096Y-90911980D02*
X162471715Y-90959600D01*
X162471715Y-90959600D02*
X162566953Y-91007219D01*
X162566953Y-91007219D02*
X162805048Y-91007219D01*
X162805048Y-91007219D02*
X162900286Y-90959600D01*
X162900286Y-90959600D02*
X162947905Y-90911980D01*
X161757429Y-90007219D02*
X161662191Y-90007219D01*
X161662191Y-90007219D02*
X161566953Y-90054838D01*
X161566953Y-90054838D02*
X161519334Y-90102457D01*
X161519334Y-90102457D02*
X161471715Y-90197695D01*
X161471715Y-90197695D02*
X161424096Y-90388171D01*
X161424096Y-90388171D02*
X161424096Y-90626266D01*
X161424096Y-90626266D02*
X161471715Y-90816742D01*
X161471715Y-90816742D02*
X161519334Y-90911980D01*
X161519334Y-90911980D02*
X161566953Y-90959600D01*
X161566953Y-90959600D02*
X161662191Y-91007219D01*
X161662191Y-91007219D02*
X161757429Y-91007219D01*
X161757429Y-91007219D02*
X161852667Y-90959600D01*
X161852667Y-90959600D02*
X161900286Y-90911980D01*
X161900286Y-90911980D02*
X161947905Y-90816742D01*
X161947905Y-90816742D02*
X161995524Y-90626266D01*
X161995524Y-90626266D02*
X161995524Y-90388171D01*
X161995524Y-90388171D02*
X161947905Y-90197695D01*
X161947905Y-90197695D02*
X161900286Y-90102457D01*
X161900286Y-90102457D02*
X161852667Y-90054838D01*
X161852667Y-90054838D02*
X161757429Y-90007219D01*
X161043143Y-90102457D02*
X160995524Y-90054838D01*
X160995524Y-90054838D02*
X160900286Y-90007219D01*
X160900286Y-90007219D02*
X160662191Y-90007219D01*
X160662191Y-90007219D02*
X160566953Y-90054838D01*
X160566953Y-90054838D02*
X160519334Y-90102457D01*
X160519334Y-90102457D02*
X160471715Y-90197695D01*
X160471715Y-90197695D02*
X160471715Y-90292933D01*
X160471715Y-90292933D02*
X160519334Y-90435790D01*
X160519334Y-90435790D02*
X161090762Y-91007219D01*
X161090762Y-91007219D02*
X160471715Y-91007219D01*
X140190475Y-56954819D02*
X140190475Y-57764342D01*
X140190475Y-57764342D02*
X140142856Y-57859580D01*
X140142856Y-57859580D02*
X140095237Y-57907200D01*
X140095237Y-57907200D02*
X139999999Y-57954819D01*
X139999999Y-57954819D02*
X139809523Y-57954819D01*
X139809523Y-57954819D02*
X139714285Y-57907200D01*
X139714285Y-57907200D02*
X139666666Y-57859580D01*
X139666666Y-57859580D02*
X139619047Y-57764342D01*
X139619047Y-57764342D02*
X139619047Y-56954819D01*
X138619047Y-57954819D02*
X139190475Y-57954819D01*
X138904761Y-57954819D02*
X138904761Y-56954819D01*
X138904761Y-56954819D02*
X138999999Y-57097676D01*
X138999999Y-57097676D02*
X139095237Y-57192914D01*
X139095237Y-57192914D02*
X139190475Y-57240533D01*
X137666666Y-57954819D02*
X138238094Y-57954819D01*
X137952380Y-57954819D02*
X137952380Y-56954819D01*
X137952380Y-56954819D02*
X138047618Y-57097676D01*
X138047618Y-57097676D02*
X138142856Y-57192914D01*
X138142856Y-57192914D02*
X138238094Y-57240533D01*
X137047618Y-56954819D02*
X136952380Y-56954819D01*
X136952380Y-56954819D02*
X136857142Y-57002438D01*
X136857142Y-57002438D02*
X136809523Y-57050057D01*
X136809523Y-57050057D02*
X136761904Y-57145295D01*
X136761904Y-57145295D02*
X136714285Y-57335771D01*
X136714285Y-57335771D02*
X136714285Y-57573866D01*
X136714285Y-57573866D02*
X136761904Y-57764342D01*
X136761904Y-57764342D02*
X136809523Y-57859580D01*
X136809523Y-57859580D02*
X136857142Y-57907200D01*
X136857142Y-57907200D02*
X136952380Y-57954819D01*
X136952380Y-57954819D02*
X137047618Y-57954819D01*
X137047618Y-57954819D02*
X137142856Y-57907200D01*
X137142856Y-57907200D02*
X137190475Y-57859580D01*
X137190475Y-57859580D02*
X137238094Y-57764342D01*
X137238094Y-57764342D02*
X137285713Y-57573866D01*
X137285713Y-57573866D02*
X137285713Y-57335771D01*
X137285713Y-57335771D02*
X137238094Y-57145295D01*
X137238094Y-57145295D02*
X137190475Y-57050057D01*
X137190475Y-57050057D02*
X137142856Y-57002438D01*
X137142856Y-57002438D02*
X137047618Y-56954819D01*
X136333332Y-57050057D02*
X136285713Y-57002438D01*
X136285713Y-57002438D02*
X136190475Y-56954819D01*
X136190475Y-56954819D02*
X135952380Y-56954819D01*
X135952380Y-56954819D02*
X135857142Y-57002438D01*
X135857142Y-57002438D02*
X135809523Y-57050057D01*
X135809523Y-57050057D02*
X135761904Y-57145295D01*
X135761904Y-57145295D02*
X135761904Y-57240533D01*
X135761904Y-57240533D02*
X135809523Y-57383390D01*
X135809523Y-57383390D02*
X136380951Y-57954819D01*
X136380951Y-57954819D02*
X135761904Y-57954819D01*
X140645238Y-121309580D02*
X140692857Y-121357200D01*
X140692857Y-121357200D02*
X140835714Y-121404819D01*
X140835714Y-121404819D02*
X140930952Y-121404819D01*
X140930952Y-121404819D02*
X141073809Y-121357200D01*
X141073809Y-121357200D02*
X141169047Y-121261961D01*
X141169047Y-121261961D02*
X141216666Y-121166723D01*
X141216666Y-121166723D02*
X141264285Y-120976247D01*
X141264285Y-120976247D02*
X141264285Y-120833390D01*
X141264285Y-120833390D02*
X141216666Y-120642914D01*
X141216666Y-120642914D02*
X141169047Y-120547676D01*
X141169047Y-120547676D02*
X141073809Y-120452438D01*
X141073809Y-120452438D02*
X140930952Y-120404819D01*
X140930952Y-120404819D02*
X140835714Y-120404819D01*
X140835714Y-120404819D02*
X140692857Y-120452438D01*
X140692857Y-120452438D02*
X140645238Y-120500057D01*
X139692857Y-121404819D02*
X140264285Y-121404819D01*
X139978571Y-121404819D02*
X139978571Y-120404819D01*
X139978571Y-120404819D02*
X140073809Y-120547676D01*
X140073809Y-120547676D02*
X140169047Y-120642914D01*
X140169047Y-120642914D02*
X140264285Y-120690533D01*
X138835714Y-120738152D02*
X138835714Y-121404819D01*
X139073809Y-120357200D02*
X139311904Y-121071485D01*
X139311904Y-121071485D02*
X138692857Y-121071485D01*
X138407142Y-120404819D02*
X137788095Y-120404819D01*
X137788095Y-120404819D02*
X138121428Y-120785771D01*
X138121428Y-120785771D02*
X137978571Y-120785771D01*
X137978571Y-120785771D02*
X137883333Y-120833390D01*
X137883333Y-120833390D02*
X137835714Y-120881009D01*
X137835714Y-120881009D02*
X137788095Y-120976247D01*
X137788095Y-120976247D02*
X137788095Y-121214342D01*
X137788095Y-121214342D02*
X137835714Y-121309580D01*
X137835714Y-121309580D02*
X137883333Y-121357200D01*
X137883333Y-121357200D02*
X137978571Y-121404819D01*
X137978571Y-121404819D02*
X138264285Y-121404819D01*
X138264285Y-121404819D02*
X138359523Y-121357200D01*
X138359523Y-121357200D02*
X138407142Y-121309580D01*
X137454761Y-120404819D02*
X136835714Y-120404819D01*
X136835714Y-120404819D02*
X137169047Y-120785771D01*
X137169047Y-120785771D02*
X137026190Y-120785771D01*
X137026190Y-120785771D02*
X136930952Y-120833390D01*
X136930952Y-120833390D02*
X136883333Y-120881009D01*
X136883333Y-120881009D02*
X136835714Y-120976247D01*
X136835714Y-120976247D02*
X136835714Y-121214342D01*
X136835714Y-121214342D02*
X136883333Y-121309580D01*
X136883333Y-121309580D02*
X136930952Y-121357200D01*
X136930952Y-121357200D02*
X137026190Y-121404819D01*
X137026190Y-121404819D02*
X137311904Y-121404819D01*
X137311904Y-121404819D02*
X137407142Y-121357200D01*
X137407142Y-121357200D02*
X137454761Y-121309580D01*
D11*
X89487419Y-111959524D02*
X90296942Y-111959524D01*
X90296942Y-111959524D02*
X90392180Y-112007143D01*
X90392180Y-112007143D02*
X90439800Y-112054762D01*
X90439800Y-112054762D02*
X90487419Y-112150000D01*
X90487419Y-112150000D02*
X90487419Y-112340476D01*
X90487419Y-112340476D02*
X90439800Y-112435714D01*
X90439800Y-112435714D02*
X90392180Y-112483333D01*
X90392180Y-112483333D02*
X90296942Y-112530952D01*
X90296942Y-112530952D02*
X89487419Y-112530952D01*
X90487419Y-113530952D02*
X90487419Y-112959524D01*
X90487419Y-113245238D02*
X89487419Y-113245238D01*
X89487419Y-113245238D02*
X89630276Y-113150000D01*
X89630276Y-113150000D02*
X89725514Y-113054762D01*
X89725514Y-113054762D02*
X89773133Y-112959524D01*
X89820752Y-114388095D02*
X90487419Y-114388095D01*
X89439800Y-114150000D02*
X90154085Y-113911905D01*
X90154085Y-113911905D02*
X90154085Y-114530952D01*
X89487419Y-115102381D02*
X89487419Y-115197619D01*
X89487419Y-115197619D02*
X89535038Y-115292857D01*
X89535038Y-115292857D02*
X89582657Y-115340476D01*
X89582657Y-115340476D02*
X89677895Y-115388095D01*
X89677895Y-115388095D02*
X89868371Y-115435714D01*
X89868371Y-115435714D02*
X90106466Y-115435714D01*
X90106466Y-115435714D02*
X90296942Y-115388095D01*
X90296942Y-115388095D02*
X90392180Y-115340476D01*
X90392180Y-115340476D02*
X90439800Y-115292857D01*
X90439800Y-115292857D02*
X90487419Y-115197619D01*
X90487419Y-115197619D02*
X90487419Y-115102381D01*
X90487419Y-115102381D02*
X90439800Y-115007143D01*
X90439800Y-115007143D02*
X90392180Y-114959524D01*
X90392180Y-114959524D02*
X90296942Y-114911905D01*
X90296942Y-114911905D02*
X90106466Y-114864286D01*
X90106466Y-114864286D02*
X89868371Y-114864286D01*
X89868371Y-114864286D02*
X89677895Y-114911905D01*
X89677895Y-114911905D02*
X89582657Y-114959524D01*
X89582657Y-114959524D02*
X89535038Y-115007143D01*
X89535038Y-115007143D02*
X89487419Y-115102381D01*
X89820752Y-116292857D02*
X90487419Y-116292857D01*
X89439800Y-116054762D02*
X90154085Y-115816667D01*
X90154085Y-115816667D02*
X90154085Y-116435714D01*
D12*
%TO.C,J1101*%
X127233600Y-47742801D02*
G75*
G02*
X126471600Y-47742801I-381000J0D01*
G01*
X126471600Y-47742801D02*
G75*
G02*
X127233600Y-47742801I381000J0D01*
G01*
D13*
%TO.C,R815*%
X156336359Y-52620000D02*
X156643641Y-52620000D01*
X156336359Y-53380000D02*
X156643641Y-53380000D01*
%TO.C,R1418*%
X99013641Y-122850000D02*
X98706359Y-122850000D01*
X99013641Y-123610000D02*
X98706359Y-123610000D01*
%TO.C,C203*%
X124371693Y-81729190D02*
X124219190Y-81881693D01*
X124880810Y-82238307D02*
X124728307Y-82390810D01*
%TO.C,R423*%
X93820000Y-68646359D02*
X93820000Y-68953641D01*
X94580000Y-68646359D02*
X94580000Y-68953641D01*
%TO.C,R417*%
X95020000Y-68646359D02*
X95020000Y-68953641D01*
X95780000Y-68646359D02*
X95780000Y-68953641D01*
%TO.C,R1124*%
X144890000Y-54613641D02*
X144890000Y-54306359D01*
X145650000Y-54613641D02*
X145650000Y-54306359D01*
%TO.C,C526*%
X107257836Y-89680000D02*
X107042164Y-89680000D01*
X107257836Y-90400000D02*
X107042164Y-90400000D01*
%TO.C,R1510*%
X163113641Y-95480000D02*
X162806359Y-95480000D01*
X163113641Y-96240000D02*
X162806359Y-96240000D01*
%TO.C,C1454*%
X116260000Y-114757836D02*
X116260000Y-114542164D01*
X116980000Y-114757836D02*
X116980000Y-114542164D01*
D14*
%TO.C,U1602*%
X158849600Y-112869000D02*
X159570071Y-112869000D01*
X159570071Y-118711000D02*
X158849600Y-118711000D01*
X161989929Y-112869000D02*
X162710400Y-112869000D01*
X162710400Y-118711000D02*
X161989929Y-118711000D01*
D15*
G36*
X158417800Y-115730437D02*
G01*
X158163800Y-115730437D01*
X158163800Y-115349437D01*
X158417800Y-115349437D01*
X158417800Y-115730437D01*
G37*
G36*
X163396200Y-118231067D02*
G01*
X163142200Y-118231067D01*
X163142200Y-117850067D01*
X163396200Y-117850067D01*
X163396200Y-118231067D01*
G37*
D13*
%TO.C,C206*%
X131790000Y-85172164D02*
X131790000Y-85387836D01*
X132510000Y-85172164D02*
X132510000Y-85387836D01*
%TO.C,C1103*%
X131175000Y-61431252D02*
X131175000Y-60908748D01*
X132645000Y-61431252D02*
X132645000Y-60908748D01*
%TO.C,C306*%
X128902164Y-98770000D02*
X129117836Y-98770000D01*
X128902164Y-99490000D02*
X129117836Y-99490000D01*
%TO.C,C415*%
X93840000Y-66707836D02*
X93840000Y-66492164D01*
X94560000Y-66707836D02*
X94560000Y-66492164D01*
%TO.C,C416*%
X85707836Y-80640000D02*
X85492164Y-80640000D01*
X85707836Y-81360000D02*
X85492164Y-81360000D01*
%TO.C,R1708*%
X144760000Y-100503641D02*
X144760000Y-100196359D01*
X145520000Y-100503641D02*
X145520000Y-100196359D01*
%TO.C,C806*%
X161490000Y-66117836D02*
X161490000Y-65902164D01*
X162210000Y-66117836D02*
X162210000Y-65902164D01*
%TO.C,C321*%
X132802164Y-91090000D02*
X133017836Y-91090000D01*
X132802164Y-91810000D02*
X133017836Y-91810000D01*
%TO.C,R1103*%
X137170000Y-70756359D02*
X137170000Y-71063641D01*
X137930000Y-70756359D02*
X137930000Y-71063641D01*
%TO.C,Q1301*%
X158840000Y-83110000D02*
X158840000Y-82460000D01*
X158840000Y-83110000D02*
X158840000Y-83760000D01*
X161960000Y-83110000D02*
X161960000Y-82460000D01*
X161960000Y-83110000D02*
X161960000Y-83760000D01*
X158890000Y-81947500D02*
X158560000Y-82187500D01*
X158560000Y-81707500D01*
X158890000Y-81947500D01*
G36*
X158890000Y-81947500D02*
G01*
X158560000Y-82187500D01*
X158560000Y-81707500D01*
X158890000Y-81947500D01*
G37*
%TO.C,JP1501*%
X164800000Y-98400000D02*
X164800000Y-102500000D01*
X164800000Y-102500000D02*
X166800000Y-102500000D01*
X166800000Y-98400000D02*
X164800000Y-98400000D01*
X166800000Y-102500000D02*
X166800000Y-98400000D01*
%TO.C,R1406*%
X88750000Y-113593641D02*
X88750000Y-113286359D01*
X89510000Y-113593641D02*
X89510000Y-113286359D01*
%TO.C,C1503*%
X165382164Y-93850000D02*
X165597836Y-93850000D01*
X165382164Y-94570000D02*
X165597836Y-94570000D01*
%TO.C,R1519*%
X165310000Y-107876359D02*
X165310000Y-108183641D01*
X166070000Y-107876359D02*
X166070000Y-108183641D01*
%TO.C,C1002*%
X110922164Y-58560000D02*
X111137836Y-58560000D01*
X110922164Y-59280000D02*
X111137836Y-59280000D01*
%TO.C,C404*%
X85907836Y-68640000D02*
X85692164Y-68640000D01*
X85907836Y-69360000D02*
X85692164Y-69360000D01*
%TO.C,U801*%
X167382500Y-73560000D02*
X166382500Y-73560000D01*
X167382500Y-76280000D02*
X166382500Y-76280000D01*
X165992500Y-76510000D02*
X165712500Y-76230000D01*
X165992500Y-76230000D01*
X165992500Y-76510000D01*
G36*
X165992500Y-76510000D02*
G01*
X165712500Y-76230000D01*
X165992500Y-76230000D01*
X165992500Y-76510000D01*
G37*
%TO.C,C614*%
X129282164Y-86830000D02*
X129497836Y-86830000D01*
X129282164Y-87550000D02*
X129497836Y-87550000D01*
%TO.C,C615*%
X126207836Y-84600000D02*
X125992164Y-84600000D01*
X126207836Y-85320000D02*
X125992164Y-85320000D01*
%TO.C,U1302*%
X153690000Y-127570000D02*
X153690000Y-127140000D01*
X153690000Y-128830000D02*
X153690000Y-129560000D01*
X153690000Y-129560000D02*
X153920000Y-129560000D01*
X158410000Y-126840000D02*
X158180000Y-126840000D01*
X158410000Y-127570000D02*
X158410000Y-126840000D01*
X158410000Y-128830000D02*
X158410000Y-129560000D01*
X158410000Y-129560000D02*
X158180000Y-129560000D01*
X153690000Y-126840000D02*
X153360000Y-127080000D01*
X153360000Y-126600000D01*
X153690000Y-126840000D01*
G36*
X153690000Y-126840000D02*
G01*
X153360000Y-127080000D01*
X153360000Y-126600000D01*
X153690000Y-126840000D01*
G37*
%TO.C,R424*%
X97420000Y-68646359D02*
X97420000Y-68953641D01*
X98180000Y-68646359D02*
X98180000Y-68953641D01*
%TO.C,R1126*%
X144340000Y-60976359D02*
X144340000Y-61283641D01*
X145100000Y-60976359D02*
X145100000Y-61283641D01*
%TO.C,R1611*%
X161026359Y-119540000D02*
X161333641Y-119540000D01*
X161026359Y-120300000D02*
X161333641Y-120300000D01*
%TO.C,R427*%
X87646359Y-80620000D02*
X87953641Y-80620000D01*
X87646359Y-81380000D02*
X87953641Y-81380000D01*
%TO.C,C510*%
X104170000Y-95097836D02*
X104170000Y-94882164D01*
X104890000Y-95097836D02*
X104890000Y-94882164D01*
%TO.C,C1429*%
X103040000Y-121088748D02*
X103040000Y-122511252D01*
X105760000Y-121088748D02*
X105760000Y-122511252D01*
%TO.C,R1621*%
X160086359Y-110390000D02*
X160393641Y-110390000D01*
X160086359Y-111150000D02*
X160393641Y-111150000D01*
%TO.C,R413*%
X99820000Y-68646359D02*
X99820000Y-68953641D01*
X100580000Y-68646359D02*
X100580000Y-68953641D01*
%TO.C,C616*%
X126392164Y-87880000D02*
X126607836Y-87880000D01*
X126392164Y-88600000D02*
X126607836Y-88600000D01*
%TO.C,C624*%
X123562164Y-88530000D02*
X123777836Y-88530000D01*
X123562164Y-89250000D02*
X123777836Y-89250000D01*
%TO.C,C622*%
X122200000Y-84422164D02*
X122200000Y-84637836D01*
X122920000Y-84422164D02*
X122920000Y-84637836D01*
%TO.C,D1101*%
X128760000Y-60620000D02*
X128760000Y-64630000D01*
X128760000Y-60620000D02*
X130760000Y-60620000D01*
X130760000Y-60620000D02*
X130760000Y-64630000D01*
%TO.C,R1104*%
X138370000Y-70756359D02*
X138370000Y-71063641D01*
X139130000Y-70756359D02*
X139130000Y-71063641D01*
%TO.C,R1714*%
X146800000Y-96343641D02*
X146800000Y-96036359D01*
X147560000Y-96343641D02*
X147560000Y-96036359D01*
%TO.C,R1111*%
X138370000Y-68963641D02*
X138370000Y-68656359D01*
X139130000Y-68963641D02*
X139130000Y-68656359D01*
%TO.C,R1716*%
X146640000Y-101003641D02*
X146640000Y-100696359D01*
X147400000Y-101003641D02*
X147400000Y-100696359D01*
%TO.C,R1619*%
X162253641Y-125840000D02*
X161946359Y-125840000D01*
X162253641Y-126600000D02*
X161946359Y-126600000D01*
%TO.C,C611*%
X125670000Y-89982164D02*
X125670000Y-90197836D01*
X126390000Y-89982164D02*
X126390000Y-90197836D01*
%TO.C,C609*%
X128577836Y-85900000D02*
X128362164Y-85900000D01*
X128577836Y-86620000D02*
X128362164Y-86620000D01*
%TO.C,C1432*%
X132590000Y-121638748D02*
X132590000Y-123061252D01*
X135310000Y-121638748D02*
X135310000Y-123061252D01*
%TO.C,R410*%
X102220000Y-68646359D02*
X102220000Y-68953641D01*
X102980000Y-68646359D02*
X102980000Y-68953641D01*
%TO.C,C506*%
X103002164Y-94710000D02*
X103217836Y-94710000D01*
X103002164Y-95430000D02*
X103217836Y-95430000D01*
%TO.C,R419*%
X103420000Y-68646359D02*
X103420000Y-68953641D01*
X104180000Y-68646359D02*
X104180000Y-68953641D01*
%TO.C,R1614*%
X158906359Y-120540000D02*
X159213641Y-120540000D01*
X158906359Y-121300000D02*
X159213641Y-121300000D01*
%TO.C,C403*%
X85707836Y-73440000D02*
X85492164Y-73440000D01*
X85707836Y-74160000D02*
X85492164Y-74160000D01*
%TO.C,C508*%
X106150000Y-95097836D02*
X106150000Y-94882164D01*
X106870000Y-95097836D02*
X106870000Y-94882164D01*
%TO.C,R425*%
X87646359Y-69820000D02*
X87953641Y-69820000D01*
X87646359Y-70580000D02*
X87953641Y-70580000D01*
%TO.C,C1005*%
X112337836Y-61090000D02*
X112122164Y-61090000D01*
X112337836Y-61810000D02*
X112122164Y-61810000D01*
%TO.C,C1455*%
X101070000Y-114427836D02*
X101070000Y-114212164D01*
X101790000Y-114427836D02*
X101790000Y-114212164D01*
%TO.C,R819*%
X163403641Y-76030000D02*
X163096359Y-76030000D01*
X163403641Y-76790000D02*
X163096359Y-76790000D01*
%TO.C,R1520*%
X166620000Y-108406359D02*
X166620000Y-108713641D01*
X167380000Y-108406359D02*
X167380000Y-108713641D01*
%TO.C,C411*%
X101040000Y-66707836D02*
X101040000Y-66492164D01*
X101760000Y-66707836D02*
X101760000Y-66492164D01*
%TO.C,R1515*%
X159953641Y-94310000D02*
X159646359Y-94310000D01*
X159953641Y-95070000D02*
X159646359Y-95070000D01*
%TO.C,C204*%
X125380000Y-83077836D02*
X125380000Y-82862164D01*
X126100000Y-83077836D02*
X126100000Y-82862164D01*
%TO.C,C518*%
X107530000Y-95122164D02*
X107530000Y-95337836D01*
X108250000Y-95122164D02*
X108250000Y-95337836D01*
%TO.C,R415*%
X87621359Y-73420000D02*
X87928641Y-73420000D01*
X87621359Y-74180000D02*
X87928641Y-74180000D01*
%TO.C,C1452*%
X85400000Y-116352164D02*
X85400000Y-116567836D01*
X86120000Y-116352164D02*
X86120000Y-116567836D01*
%TO.C,C1505*%
X166710000Y-85672164D02*
X166710000Y-85887836D01*
X167430000Y-85672164D02*
X167430000Y-85887836D01*
%TO.C,C509*%
X107487836Y-71050000D02*
X107272164Y-71050000D01*
X107487836Y-71770000D02*
X107272164Y-71770000D01*
%TO.C,C814*%
X163190000Y-65337836D02*
X163190000Y-65122164D01*
X163910000Y-65337836D02*
X163910000Y-65122164D01*
D11*
%TO.C,U201*%
X120610000Y-64030000D02*
X120610000Y-66680000D01*
X120610000Y-64030000D02*
X122035000Y-64030000D01*
X123110000Y-64030000D02*
X123585000Y-64030000D01*
X123585000Y-64030000D02*
X123585000Y-64505000D01*
X123585000Y-66680000D02*
X120610000Y-66680000D01*
X123585000Y-66680000D02*
X123585000Y-65805000D01*
D13*
%TO.C,R1605*%
X133706359Y-99580000D02*
X134013641Y-99580000D01*
X133706359Y-100340000D02*
X134013641Y-100340000D01*
%TO.C,R703*%
X113513641Y-38450000D02*
X113206359Y-38450000D01*
X113513641Y-39210000D02*
X113206359Y-39210000D01*
%TO.C,R426*%
X87646359Y-72220000D02*
X87953641Y-72220000D01*
X87646359Y-72980000D02*
X87953641Y-72980000D01*
%TO.C,C405*%
X91440000Y-66707836D02*
X91440000Y-66492164D01*
X92160000Y-66707836D02*
X92160000Y-66492164D01*
%TO.C,C811*%
X163542164Y-55600000D02*
X163757836Y-55600000D01*
X163542164Y-56320000D02*
X163757836Y-56320000D01*
%TO.C,C413*%
X103440000Y-66707836D02*
X103440000Y-66492164D01*
X104160000Y-66707836D02*
X104160000Y-66492164D01*
%TO.C,U1501*%
X162470000Y-105732500D02*
X159470000Y-105732500D01*
X162470000Y-108732500D02*
X159470000Y-108732500D01*
X159360000Y-108962500D02*
X158880000Y-108962500D01*
X159120000Y-108632500D01*
X159360000Y-108962500D01*
G36*
X159360000Y-108962500D02*
G01*
X158880000Y-108962500D01*
X159120000Y-108632500D01*
X159360000Y-108962500D01*
G37*
%TO.C,C312*%
X128912164Y-97540000D02*
X129127836Y-97540000D01*
X128912164Y-98260000D02*
X129127836Y-98260000D01*
%TO.C,C610*%
X127409190Y-89901693D02*
X127561693Y-89749190D01*
X127918307Y-90410810D02*
X128070810Y-90258307D01*
%TO.C,U802*%
X167142500Y-69990000D02*
X166142500Y-69990000D01*
X167142500Y-72710000D02*
X166142500Y-72710000D01*
X165752500Y-72940000D02*
X165472500Y-72660000D01*
X165752500Y-72660000D01*
X165752500Y-72940000D01*
G36*
X165752500Y-72940000D02*
G01*
X165472500Y-72660000D01*
X165752500Y-72660000D01*
X165752500Y-72940000D01*
G37*
%TO.C,R832*%
X164866359Y-65670000D02*
X165173641Y-65670000D01*
X164866359Y-66430000D02*
X165173641Y-66430000D01*
%TO.C,R1618*%
X162086359Y-110350000D02*
X162393641Y-110350000D01*
X162086359Y-111110000D02*
X162393641Y-111110000D01*
%TO.C,C626*%
X127620000Y-87807836D02*
X127620000Y-87592164D01*
X128340000Y-87807836D02*
X128340000Y-87592164D01*
%TO.C,R1622*%
X160383641Y-109350000D02*
X160076359Y-109350000D01*
X160383641Y-110110000D02*
X160076359Y-110110000D01*
%TO.C,R840*%
X161870000Y-62493641D02*
X161870000Y-62186359D01*
X162630000Y-62493641D02*
X162630000Y-62186359D01*
%TO.C,R829*%
X152596359Y-63870000D02*
X152903641Y-63870000D01*
X152596359Y-64630000D02*
X152903641Y-64630000D01*
%TO.C,C307*%
X136462164Y-84240000D02*
X136677836Y-84240000D01*
X136462164Y-84960000D02*
X136677836Y-84960000D01*
%TO.C,C620*%
X124240000Y-96572164D02*
X124240000Y-96787836D01*
X124960000Y-96572164D02*
X124960000Y-96787836D01*
%TO.C,C1428*%
X90350000Y-121233748D02*
X90350000Y-122656252D01*
X93070000Y-121233748D02*
X93070000Y-122656252D01*
%TO.C,R422*%
X98620000Y-68646359D02*
X98620000Y-68953641D01*
X99380000Y-68646359D02*
X99380000Y-68953641D01*
%TO.C,U701*%
X111422500Y-39140000D02*
X110422500Y-39140000D01*
X111422500Y-41860000D02*
X110422500Y-41860000D01*
X110032500Y-42090000D02*
X109752500Y-41810000D01*
X110032500Y-41810000D01*
X110032500Y-42090000D01*
G36*
X110032500Y-42090000D02*
G01*
X109752500Y-41810000D01*
X110032500Y-41810000D01*
X110032500Y-42090000D01*
G37*
%TO.C,R1701*%
X145690000Y-94146359D02*
X145690000Y-94453641D01*
X146450000Y-94146359D02*
X146450000Y-94453641D01*
%TO.C,C543*%
X85216252Y-85440000D02*
X83793748Y-85440000D01*
X85216252Y-88160000D02*
X83793748Y-88160000D01*
%TO.C,R1401*%
X129373641Y-122820000D02*
X129066359Y-122820000D01*
X129373641Y-123580000D02*
X129066359Y-123580000D01*
%TO.C,R412*%
X90220000Y-68646359D02*
X90220000Y-68953641D01*
X90980000Y-68646359D02*
X90980000Y-68953641D01*
%TO.C,C805*%
X157840000Y-67487836D02*
X157840000Y-67272164D01*
X158560000Y-67487836D02*
X158560000Y-67272164D01*
%TO.C,R824*%
X163413641Y-77160000D02*
X163106359Y-77160000D01*
X163413641Y-77920000D02*
X163106359Y-77920000D01*
%TO.C,R826*%
X159620000Y-52653641D02*
X159620000Y-52346359D01*
X160380000Y-52653641D02*
X160380000Y-52346359D01*
%TO.C,R706*%
X113543641Y-41740000D02*
X113236359Y-41740000D01*
X113543641Y-42500000D02*
X113236359Y-42500000D01*
%TO.C,R1414*%
X86410000Y-116296359D02*
X86410000Y-116603641D01*
X87170000Y-116296359D02*
X87170000Y-116603641D01*
%TO.C,R1512*%
X154920000Y-105406359D02*
X154920000Y-105713641D01*
X155680000Y-105406359D02*
X155680000Y-105713641D01*
%TO.C,L1102*%
X144220000Y-58210580D02*
X144220000Y-57929420D01*
X145240000Y-58210580D02*
X145240000Y-57929420D01*
%TO.C,R816*%
X156643641Y-51560000D02*
X156336359Y-51560000D01*
X156643641Y-52320000D02*
X156336359Y-52320000D01*
%TO.C,R1522*%
X163503641Y-82620000D02*
X163196359Y-82620000D01*
X163503641Y-83380000D02*
X163196359Y-83380000D01*
%TO.C,C319*%
X131017836Y-94980000D02*
X130802164Y-94980000D01*
X131017836Y-95700000D02*
X130802164Y-95700000D01*
%TO.C,C802*%
X158500000Y-61522164D02*
X158500000Y-61737836D01*
X159220000Y-61522164D02*
X159220000Y-61737836D01*
%TO.C,C201*%
X121488748Y-69730000D02*
X122911252Y-69730000D01*
X121488748Y-72450000D02*
X122911252Y-72450000D01*
%TO.C,C305*%
X137792164Y-88580000D02*
X138007836Y-88580000D01*
X137792164Y-89300000D02*
X138007836Y-89300000D01*
%TO.C,R215*%
X126390000Y-76813641D02*
X126390000Y-76506359D01*
X127150000Y-76813641D02*
X127150000Y-76506359D01*
%TO.C,C308*%
X126627836Y-93390000D02*
X126412164Y-93390000D01*
X126627836Y-94110000D02*
X126412164Y-94110000D01*
%TO.C,R806*%
X170522936Y-61315000D02*
X170977064Y-61315000D01*
X170522936Y-62785000D02*
X170977064Y-62785000D01*
%TO.C,C520*%
X105120000Y-95047836D02*
X105120000Y-94832164D01*
X105840000Y-95047836D02*
X105840000Y-94832164D01*
%TO.C,C630*%
X120749779Y-93621104D02*
X120902282Y-93468601D01*
X121258896Y-94130221D02*
X121411399Y-93977718D01*
%TO.C,C1004*%
X113410000Y-56782164D02*
X113410000Y-56997836D01*
X114130000Y-56782164D02*
X114130000Y-56997836D01*
%TO.C,R1403*%
X137400000Y-127253641D02*
X137400000Y-126946359D01*
X138160000Y-127253641D02*
X138160000Y-126946359D01*
%TO.C,Q1102*%
X147540000Y-38572500D02*
X146890000Y-38572500D01*
X147540000Y-38572500D02*
X148190000Y-38572500D01*
X147540000Y-41692500D02*
X146890000Y-41692500D01*
X147540000Y-41692500D02*
X148190000Y-41692500D01*
X146617500Y-41972500D02*
X146137500Y-41972500D01*
X146377500Y-41642500D01*
X146617500Y-41972500D01*
G36*
X146617500Y-41972500D02*
G01*
X146137500Y-41972500D01*
X146377500Y-41642500D01*
X146617500Y-41972500D01*
G37*
%TO.C,R409*%
X87646359Y-78220000D02*
X87953641Y-78220000D01*
X87646359Y-78980000D02*
X87953641Y-78980000D01*
%TO.C,R1617*%
X162393641Y-109360000D02*
X162086359Y-109360000D01*
X162393641Y-110120000D02*
X162086359Y-110120000D01*
%TO.C,C504*%
X102560000Y-85067836D02*
X102560000Y-84852164D01*
X103280000Y-85067836D02*
X103280000Y-84852164D01*
%TO.C,C412*%
X98640000Y-66707836D02*
X98640000Y-66492164D01*
X99360000Y-66707836D02*
X99360000Y-66492164D01*
%TO.C,C1414*%
X82261252Y-112635000D02*
X81738748Y-112635000D01*
X82261252Y-114105000D02*
X81738748Y-114105000D01*
%TO.C,R839*%
X162870000Y-62186359D02*
X162870000Y-62493641D01*
X163630000Y-62186359D02*
X163630000Y-62493641D01*
%TO.C,R705*%
X113533641Y-40680000D02*
X113226359Y-40680000D01*
X113533641Y-41440000D02*
X113226359Y-41440000D01*
%TO.C,R1302*%
X159270000Y-128363641D02*
X159270000Y-128056359D01*
X160030000Y-128363641D02*
X160030000Y-128056359D01*
%TO.C,C528*%
X105387836Y-89750000D02*
X105172164Y-89750000D01*
X105387836Y-90470000D02*
X105172164Y-90470000D01*
%TO.C,R1705*%
X144760000Y-98316359D02*
X144760000Y-98623641D01*
X145520000Y-98316359D02*
X145520000Y-98623641D01*
%TO.C,R825*%
X160620000Y-52346359D02*
X160620000Y-52653641D01*
X161380000Y-52346359D02*
X161380000Y-52653641D01*
%TO.C,C410*%
X85707836Y-71040000D02*
X85492164Y-71040000D01*
X85707836Y-71760000D02*
X85492164Y-71760000D01*
%TO.C,R408*%
X96220000Y-68646359D02*
X96220000Y-68953641D01*
X96980000Y-68646359D02*
X96980000Y-68953641D01*
%TO.C,C808*%
X158447836Y-74480000D02*
X158232164Y-74480000D01*
X158447836Y-75200000D02*
X158232164Y-75200000D01*
%TO.C,C617*%
X119447836Y-85900000D02*
X119232164Y-85900000D01*
X119447836Y-86620000D02*
X119232164Y-86620000D01*
%TO.C,R720*%
X122706359Y-48360000D02*
X123013641Y-48360000D01*
X122706359Y-49120000D02*
X123013641Y-49120000D01*
%TO.C,U1301*%
X120390000Y-128270000D02*
X120390000Y-127840000D01*
X120390000Y-129530000D02*
X120390000Y-130260000D01*
X120390000Y-130260000D02*
X120620000Y-130260000D01*
X125110000Y-127540000D02*
X124880000Y-127540000D01*
X125110000Y-128270000D02*
X125110000Y-127540000D01*
X125110000Y-129530000D02*
X125110000Y-130260000D01*
X125110000Y-130260000D02*
X124880000Y-130260000D01*
X120390000Y-127540000D02*
X120060000Y-127780000D01*
X120060000Y-127300000D01*
X120390000Y-127540000D01*
G36*
X120390000Y-127540000D02*
G01*
X120060000Y-127780000D01*
X120060000Y-127300000D01*
X120390000Y-127540000D01*
G37*
%TO.C,R411*%
X87646359Y-77020000D02*
X87953641Y-77020000D01*
X87646359Y-77780000D02*
X87953641Y-77780000D01*
%TO.C,R1405*%
X86163641Y-112060000D02*
X85856359Y-112060000D01*
X86163641Y-112820000D02*
X85856359Y-112820000D01*
%TO.C,J803*%
X169880000Y-47840000D02*
X169880000Y-48410000D01*
X169880000Y-48410000D02*
X168520000Y-48410000D01*
X169880000Y-49930000D02*
X169880000Y-50950000D01*
X169880000Y-52470000D02*
X169880000Y-53490000D01*
X169880000Y-55010000D02*
X169880000Y-56030000D01*
X169880000Y-57550000D02*
X169880000Y-58120000D01*
X175080000Y-47840000D02*
X169880000Y-47840000D01*
X175080000Y-47840000D02*
X175080000Y-48410000D01*
X175080000Y-49930000D02*
X175080000Y-50950000D01*
X175080000Y-52470000D02*
X175080000Y-53490000D01*
X175080000Y-55010000D02*
X175080000Y-56030000D01*
X175080000Y-57550000D02*
X175080000Y-58120000D01*
X175080000Y-58120000D02*
X169880000Y-58120000D01*
%TO.C,R1613*%
X155146359Y-121030000D02*
X155453641Y-121030000D01*
X155146359Y-121790000D02*
X155453641Y-121790000D01*
D11*
%TO.C,U1001*%
X116245000Y-66737500D02*
X116245000Y-63762500D01*
X116245000Y-66737500D02*
X117120000Y-66737500D01*
X118895000Y-63762500D02*
X116245000Y-63762500D01*
X118895000Y-63762500D02*
X118895000Y-65187500D01*
X118895000Y-66262500D02*
X118895000Y-66737500D01*
X118895000Y-66737500D02*
X118420000Y-66737500D01*
D13*
%TO.C,C1304*%
X152100000Y-129192164D02*
X152100000Y-129407836D01*
X152820000Y-129192164D02*
X152820000Y-129407836D01*
%TO.C,R428*%
X87646359Y-75820000D02*
X87953641Y-75820000D01*
X87646359Y-76580000D02*
X87953641Y-76580000D01*
%TO.C,R1615*%
X159213641Y-119540000D02*
X158906359Y-119540000D01*
X159213641Y-120300000D02*
X158906359Y-120300000D01*
%TO.C,C313*%
X131461104Y-87349779D02*
X131308601Y-87502282D01*
X131970221Y-87858896D02*
X131817718Y-88011399D01*
%TO.C,L701*%
X127499420Y-48060000D02*
X127780580Y-48060000D01*
X127499420Y-49080000D02*
X127780580Y-49080000D01*
%TO.C,C208*%
X129202164Y-84730000D02*
X129417836Y-84730000D01*
X129202164Y-85450000D02*
X129417836Y-85450000D01*
%TO.C,R1513*%
X153460000Y-105426359D02*
X153460000Y-105733641D01*
X154220000Y-105426359D02*
X154220000Y-105733641D01*
%TO.C,R837*%
X159920000Y-78823641D02*
X159920000Y-78516359D01*
X160680000Y-78823641D02*
X160680000Y-78516359D01*
%TO.C,R1407*%
X88220000Y-111683641D02*
X88220000Y-111376359D01*
X88980000Y-111683641D02*
X88980000Y-111376359D01*
%TO.C,C402*%
X89040000Y-66707836D02*
X89040000Y-66492164D01*
X89760000Y-66707836D02*
X89760000Y-66492164D01*
%TO.C,R216*%
X138120000Y-78253641D02*
X138120000Y-77946359D01*
X138880000Y-78253641D02*
X138880000Y-77946359D01*
%TO.C,C801*%
X154670000Y-59942164D02*
X154670000Y-60157836D01*
X155390000Y-59942164D02*
X155390000Y-60157836D01*
%TO.C,R416*%
X101020000Y-68646359D02*
X101020000Y-68953641D01*
X101780000Y-68646359D02*
X101780000Y-68953641D01*
%TO.C,R1114*%
X133396359Y-68930000D02*
X133703641Y-68930000D01*
X133396359Y-69690000D02*
X133703641Y-69690000D01*
%TO.C,U902*%
X92980000Y-53860000D02*
X93235000Y-53860000D01*
X92980000Y-57720000D02*
X92980000Y-53860000D01*
X92980000Y-57720000D02*
X92980000Y-61580000D01*
X92980000Y-61580000D02*
X93235000Y-61580000D01*
X103500000Y-53860000D02*
X103245000Y-53860000D01*
X103500000Y-57720000D02*
X103500000Y-53860000D01*
X103500000Y-57720000D02*
X103500000Y-61580000D01*
X103500000Y-61580000D02*
X103245000Y-61580000D01*
X93235000Y-53007500D02*
X92765000Y-53347500D01*
X92765000Y-52667500D01*
X93235000Y-53007500D01*
G36*
X93235000Y-53007500D02*
G01*
X92765000Y-53347500D01*
X92765000Y-52667500D01*
X93235000Y-53007500D01*
G37*
%TO.C,C812*%
X153145000Y-53608748D02*
X153145000Y-54131252D01*
X154615000Y-53608748D02*
X154615000Y-54131252D01*
%TO.C,R1706*%
X143226359Y-98520000D02*
X143533641Y-98520000D01*
X143226359Y-99280000D02*
X143533641Y-99280000D01*
%TO.C,R704*%
X113533641Y-39580000D02*
X113226359Y-39580000D01*
X113533641Y-40340000D02*
X113226359Y-40340000D01*
%TO.C,R820*%
X154006359Y-66530000D02*
X154313641Y-66530000D01*
X154006359Y-67290000D02*
X154313641Y-67290000D01*
%TO.C,C514*%
X101340000Y-89577836D02*
X101340000Y-89362164D01*
X102060000Y-89577836D02*
X102060000Y-89362164D01*
%TO.C,R811*%
X159820000Y-62196359D02*
X159820000Y-62503641D01*
X160580000Y-62196359D02*
X160580000Y-62503641D01*
%TO.C,R1609*%
X134573641Y-101890000D02*
X134266359Y-101890000D01*
X134573641Y-102650000D02*
X134266359Y-102650000D01*
%TO.C,C1006*%
X114452164Y-61100000D02*
X114667836Y-61100000D01*
X114452164Y-61820000D02*
X114667836Y-61820000D01*
%TO.C,R812*%
X160830000Y-62503641D02*
X160830000Y-62196359D01*
X161590000Y-62503641D02*
X161590000Y-62196359D01*
%TO.C,R1107*%
X134770000Y-70756359D02*
X134770000Y-71063641D01*
X135530000Y-70756359D02*
X135530000Y-71063641D01*
%TO.C,R1301*%
X125980000Y-129073641D02*
X125980000Y-128766359D01*
X126740000Y-129073641D02*
X126740000Y-128766359D01*
%TO.C,R802*%
X163810000Y-74703641D02*
X163810000Y-74396359D01*
X164570000Y-74703641D02*
X164570000Y-74396359D01*
%TO.C,R803*%
X164920000Y-77063641D02*
X164920000Y-76756359D01*
X165680000Y-77063641D02*
X165680000Y-76756359D01*
%TO.C,R405*%
X100576359Y-92510000D02*
X100883641Y-92510000D01*
X100576359Y-93270000D02*
X100883641Y-93270000D01*
%TO.C,C1302*%
X118800000Y-129692164D02*
X118800000Y-129907836D01*
X119520000Y-129692164D02*
X119520000Y-129907836D01*
%TO.C,C1122*%
X137335000Y-42891252D02*
X137335000Y-42368748D01*
X138805000Y-42891252D02*
X138805000Y-42368748D01*
%TO.C,R1521*%
X163196359Y-83630000D02*
X163503641Y-83630000D01*
X163196359Y-84390000D02*
X163503641Y-84390000D01*
%TO.C,C414*%
X96240000Y-66707836D02*
X96240000Y-66492164D01*
X96960000Y-66707836D02*
X96960000Y-66492164D01*
%TO.C,R701*%
X115256359Y-39610000D02*
X115563641Y-39610000D01*
X115256359Y-40370000D02*
X115563641Y-40370000D01*
%TO.C,R1715*%
X146820000Y-98696359D02*
X146820000Y-99003641D01*
X147580000Y-98696359D02*
X147580000Y-99003641D01*
%TO.C,C516*%
X102970000Y-93242164D02*
X102970000Y-93457836D01*
X103690000Y-93242164D02*
X103690000Y-93457836D01*
%TO.C,C314*%
X128701104Y-94219779D02*
X128548601Y-94372282D01*
X129210221Y-94728896D02*
X129057718Y-94881399D01*
%TO.C,R1606*%
X133186359Y-100820000D02*
X133493641Y-100820000D01*
X133186359Y-101580000D02*
X133493641Y-101580000D01*
%TO.C,R1108*%
X135970000Y-68963641D02*
X135970000Y-68656359D01*
X136730000Y-68963641D02*
X136730000Y-68656359D01*
%TO.C,R1127*%
X126613641Y-36680000D02*
X126306359Y-36680000D01*
X126613641Y-37440000D02*
X126306359Y-37440000D01*
%TO.C,R1703*%
X144326359Y-95370000D02*
X144633641Y-95370000D01*
X144326359Y-96130000D02*
X144633641Y-96130000D01*
%TO.C,R1115*%
X134770000Y-68656359D02*
X134770000Y-68963641D01*
X135530000Y-68656359D02*
X135530000Y-68963641D01*
%TO.C,R1121*%
X143870000Y-54623641D02*
X143870000Y-54316359D01*
X144630000Y-54623641D02*
X144630000Y-54316359D01*
%TO.C,R1514*%
X159646359Y-95330000D02*
X159953641Y-95330000D01*
X159646359Y-96090000D02*
X159953641Y-96090000D01*
%TO.C,R1125*%
X134905000Y-42877064D02*
X134905000Y-42422936D01*
X136375000Y-42877064D02*
X136375000Y-42422936D01*
%TO.C,C1602*%
X155680000Y-123832164D02*
X155680000Y-124047836D01*
X156400000Y-123832164D02*
X156400000Y-124047836D01*
%TO.C,R822*%
X165163641Y-62660000D02*
X164856359Y-62660000D01*
X165163641Y-63420000D02*
X164856359Y-63420000D01*
%TO.C,R1707*%
X143216359Y-99530000D02*
X143523641Y-99530000D01*
X143216359Y-100290000D02*
X143523641Y-100290000D01*
%TO.C,R1620*%
X164830000Y-124123641D02*
X164830000Y-123816359D01*
X165590000Y-124123641D02*
X165590000Y-123816359D01*
%TO.C,R429*%
X87646359Y-71020000D02*
X87953641Y-71020000D01*
X87646359Y-71780000D02*
X87953641Y-71780000D01*
%TO.C,C602*%
X126412164Y-92430000D02*
X126627836Y-92430000D01*
X126412164Y-93150000D02*
X126627836Y-93150000D01*
%TO.C,C310*%
X125720000Y-95287836D02*
X125720000Y-95072164D01*
X126440000Y-95287836D02*
X126440000Y-95072164D01*
%TO.C,R1517*%
X165503641Y-83630000D02*
X165196359Y-83630000D01*
X165503641Y-84390000D02*
X165196359Y-84390000D01*
%TO.C,R838*%
X160920000Y-78516359D02*
X160920000Y-78823641D01*
X161680000Y-78516359D02*
X161680000Y-78823641D01*
%TO.C,R1113*%
X132120000Y-66153641D02*
X132120000Y-65846359D01*
X132880000Y-66153641D02*
X132880000Y-65846359D01*
%TO.C,C711*%
X125225000Y-48452164D02*
X125225000Y-48667836D01*
X125945000Y-48452164D02*
X125945000Y-48667836D01*
%TO.C,R205*%
X126780000Y-83443641D02*
X126780000Y-83136359D01*
X127540000Y-83443641D02*
X127540000Y-83136359D01*
%TO.C,R404*%
X103486359Y-75950000D02*
X103793641Y-75950000D01*
X103486359Y-76710000D02*
X103793641Y-76710000D01*
%TO.C,R430*%
X92620000Y-68646359D02*
X92620000Y-68953641D01*
X93380000Y-68646359D02*
X93380000Y-68953641D01*
%TO.C,R212*%
X136820000Y-78253641D02*
X136820000Y-77946359D01*
X137580000Y-78253641D02*
X137580000Y-77946359D01*
%TO.C,C709*%
X118077836Y-43640000D02*
X117862164Y-43640000D01*
X118077836Y-44360000D02*
X117862164Y-44360000D01*
%TO.C,C1507*%
X164110000Y-107127836D02*
X164110000Y-106912164D01*
X164830000Y-107127836D02*
X164830000Y-106912164D01*
%TO.C,C1504*%
X165630000Y-85692164D02*
X165630000Y-85907836D01*
X166350000Y-85692164D02*
X166350000Y-85907836D01*
%TO.C,R1616*%
X163000000Y-121396359D02*
X163000000Y-121703641D01*
X163760000Y-121396359D02*
X163760000Y-121703641D01*
%TO.C,R1702*%
X144326359Y-94330000D02*
X144633641Y-94330000D01*
X144326359Y-95090000D02*
X144633641Y-95090000D01*
%TO.C,D1102*%
X126380000Y-61012500D02*
X126380000Y-65022500D01*
X126380000Y-61012500D02*
X128380000Y-61012500D01*
X128380000Y-61012500D02*
X128380000Y-65022500D01*
%TO.C,R1122*%
X146716359Y-37370000D02*
X147023641Y-37370000D01*
X146716359Y-38130000D02*
X147023641Y-38130000D01*
%TO.C,R809*%
X163473641Y-53050000D02*
X163166359Y-53050000D01*
X163473641Y-53810000D02*
X163166359Y-53810000D01*
%TO.C,C318*%
X136959190Y-97438307D02*
X137111693Y-97590810D01*
X137468307Y-96929190D02*
X137620810Y-97081693D01*
%TO.C,C1303*%
X152150000Y-127517836D02*
X152150000Y-127302164D01*
X152870000Y-127517836D02*
X152870000Y-127302164D01*
%TO.C,C317*%
X133360000Y-95037836D02*
X133360000Y-94822164D01*
X134080000Y-95037836D02*
X134080000Y-94822164D01*
%TO.C,F801*%
X167288578Y-60770000D02*
X166771422Y-60770000D01*
X167288578Y-62190000D02*
X166771422Y-62190000D01*
%TO.C,R1123*%
X146323641Y-61400000D02*
X146016359Y-61400000D01*
X146323641Y-62160000D02*
X146016359Y-62160000D01*
%TO.C,R207*%
X86406359Y-60400000D02*
X86713641Y-60400000D01*
X86406359Y-61160000D02*
X86713641Y-61160000D01*
%TO.C,C1456*%
X131480000Y-114127836D02*
X131480000Y-113912164D01*
X132200000Y-114127836D02*
X132200000Y-113912164D01*
%TO.C,R1002*%
X116340000Y-62913641D02*
X116340000Y-62606359D01*
X117100000Y-62913641D02*
X117100000Y-62606359D01*
%TO.C,C1003*%
X110892164Y-59570000D02*
X111107836Y-59570000D01*
X110892164Y-60290000D02*
X111107836Y-60290000D01*
%TO.C,C710*%
X121442164Y-43680000D02*
X121657836Y-43680000D01*
X121442164Y-44400000D02*
X121657836Y-44400000D01*
%TO.C,C618*%
X130997836Y-90850000D02*
X130782164Y-90850000D01*
X130997836Y-91570000D02*
X130782164Y-91570000D01*
%TO.C,C501*%
X111330000Y-75302164D02*
X111330000Y-75517836D01*
X112050000Y-75302164D02*
X112050000Y-75517836D01*
%TO.C,C1506*%
X167760000Y-101308748D02*
X167760000Y-102731252D01*
X170480000Y-101308748D02*
X170480000Y-102731252D01*
%TO.C,R1610*%
X161313641Y-120600000D02*
X161006359Y-120600000D01*
X161313641Y-121360000D02*
X161006359Y-121360000D01*
%TO.C,C625*%
X130341693Y-88969190D02*
X130189190Y-89121693D01*
X130850810Y-89478307D02*
X130698307Y-89630810D01*
%TO.C,C1121*%
X136037836Y-46060000D02*
X135822164Y-46060000D01*
X136037836Y-46780000D02*
X135822164Y-46780000D01*
%TO.C,C1604*%
X164780000Y-111497836D02*
X164780000Y-111282164D01*
X165500000Y-111497836D02*
X165500000Y-111282164D01*
%TO.C,R418*%
X87646359Y-79420000D02*
X87953641Y-79420000D01*
X87646359Y-80180000D02*
X87953641Y-80180000D01*
%TO.C,R901*%
X95596359Y-49640000D02*
X95903641Y-49640000D01*
X95596359Y-50400000D02*
X95903641Y-50400000D01*
D14*
%TO.C,U1502*%
X160779411Y-87631400D02*
X161499882Y-87631400D01*
X161499882Y-93473400D02*
X160779411Y-93473400D01*
X163919740Y-87631400D02*
X164640211Y-87631400D01*
X164640211Y-93473400D02*
X163919740Y-93473400D01*
D15*
G36*
X160347611Y-90492837D02*
G01*
X160093611Y-90492837D01*
X160093611Y-90111837D01*
X160347611Y-90111837D01*
X160347611Y-90492837D01*
G37*
G36*
X165326011Y-92993467D02*
G01*
X165072011Y-92993467D01*
X165072011Y-92612467D01*
X165326011Y-92612467D01*
X165326011Y-92993467D01*
G37*
D13*
%TO.C,R717*%
X120426359Y-41810000D02*
X120733641Y-41810000D01*
X120426359Y-42570000D02*
X120733641Y-42570000D01*
%TO.C,R1105*%
X139570000Y-70756359D02*
X139570000Y-71063641D01*
X140330000Y-70756359D02*
X140330000Y-71063641D01*
%TO.C,R414*%
X91420000Y-68646359D02*
X91420000Y-68953641D01*
X92180000Y-68646359D02*
X92180000Y-68953641D01*
%TO.C,U804*%
X167107500Y-66870000D02*
X166107500Y-66870000D01*
X167107500Y-69590000D02*
X166107500Y-69590000D01*
X165717500Y-69820000D02*
X165437500Y-69540000D01*
X165717500Y-69540000D01*
X165717500Y-69820000D01*
G36*
X165717500Y-69820000D02*
G01*
X165437500Y-69540000D01*
X165717500Y-69540000D01*
X165717500Y-69820000D01*
G37*
%TO.C,R719*%
X121686359Y-47340000D02*
X121993641Y-47340000D01*
X121686359Y-48100000D02*
X121993641Y-48100000D01*
%TO.C,C1301*%
X118840000Y-128007836D02*
X118840000Y-127792164D01*
X119560000Y-128007836D02*
X119560000Y-127792164D01*
%TO.C,R213*%
X141206359Y-82390000D02*
X141513641Y-82390000D01*
X141206359Y-83150000D02*
X141513641Y-83150000D01*
%TO.C,R201*%
X122116359Y-67200000D02*
X122423641Y-67200000D01*
X122116359Y-67960000D02*
X122423641Y-67960000D01*
%TO.C,R209*%
X91470000Y-63053641D02*
X91470000Y-62746359D01*
X92230000Y-63053641D02*
X92230000Y-62746359D01*
%TO.C,C535*%
X103412164Y-81790000D02*
X103627836Y-81790000D01*
X103412164Y-82510000D02*
X103627836Y-82510000D01*
%TO.C,J1201*%
X173000000Y-107350000D02*
X173000000Y-107410000D01*
X173000000Y-107410000D02*
X171540000Y-107410000D01*
X173000000Y-112490000D02*
X173000000Y-112550000D01*
X175660000Y-107350000D02*
X173000000Y-107350000D01*
X175660000Y-107350000D02*
X175660000Y-107410000D01*
X175660000Y-112490000D02*
X175660000Y-112550000D01*
X175660000Y-112550000D02*
X173000000Y-112550000D01*
%TO.C,C815*%
X174481252Y-61325000D02*
X173958748Y-61325000D01*
X174481252Y-62795000D02*
X173958748Y-62795000D01*
%TO.C,R821*%
X154313641Y-67580000D02*
X154006359Y-67580000D01*
X154313641Y-68340000D02*
X154006359Y-68340000D01*
%TO.C,C511*%
X97377836Y-82380000D02*
X97162164Y-82380000D01*
X97377836Y-83100000D02*
X97162164Y-83100000D01*
%TO.C,C903*%
X94827836Y-50830000D02*
X94612164Y-50830000D01*
X94827836Y-51550000D02*
X94612164Y-51550000D01*
%TO.C,R1129*%
X143380000Y-52013641D02*
X143380000Y-51706359D01*
X144140000Y-52013641D02*
X144140000Y-51706359D01*
%TO.C,C530*%
X101780000Y-72117836D02*
X101780000Y-71902164D01*
X102500000Y-72117836D02*
X102500000Y-71902164D01*
%TO.C,R420*%
X87646359Y-81820000D02*
X87953641Y-81820000D01*
X87646359Y-82580000D02*
X87953641Y-82580000D01*
%TO.C,R1612*%
X155376359Y-119180000D02*
X155683641Y-119180000D01*
X155376359Y-119940000D02*
X155683641Y-119940000D01*
%TO.C,R1106*%
X133690000Y-70756359D02*
X133690000Y-71063641D01*
X134450000Y-70756359D02*
X134450000Y-71063641D01*
%TO.C,R823*%
X164856359Y-63660000D02*
X165163641Y-63660000D01*
X164856359Y-64420000D02*
X165163641Y-64420000D01*
%TO.C,C628*%
X130997836Y-92690000D02*
X130782164Y-92690000D01*
X130997836Y-93410000D02*
X130782164Y-93410000D01*
%TO.C,R1119*%
X143383641Y-61870000D02*
X143076359Y-61870000D01*
X143383641Y-62630000D02*
X143076359Y-62630000D01*
%TO.C,R1511*%
X162816359Y-94460000D02*
X163123641Y-94460000D01*
X162816359Y-95220000D02*
X163123641Y-95220000D01*
%TO.C,R801*%
X164910000Y-75093641D02*
X164910000Y-74786359D01*
X165670000Y-75093641D02*
X165670000Y-74786359D01*
%TO.C,C1001*%
X117787836Y-67010000D02*
X117572164Y-67010000D01*
X117787836Y-67730000D02*
X117572164Y-67730000D01*
%TO.C,R1120*%
X143413641Y-60820000D02*
X143106359Y-60820000D01*
X143413641Y-61580000D02*
X143106359Y-61580000D01*
%TO.C,C1453*%
X146032164Y-129380000D02*
X146247836Y-129380000D01*
X146032164Y-130100000D02*
X146247836Y-130100000D01*
%TO.C,C613*%
X127710000Y-92847836D02*
X127710000Y-92632164D01*
X128430000Y-92847836D02*
X128430000Y-92632164D01*
%TO.C,U704*%
X113240000Y-50390000D02*
X111290000Y-50390000D01*
X113240000Y-50390000D02*
X115190000Y-50390000D01*
X113240000Y-55510000D02*
X111290000Y-55510000D01*
X113240000Y-55510000D02*
X115190000Y-55510000D01*
X115940000Y-50485000D02*
X115700000Y-50155000D01*
X116180000Y-50155000D01*
X115940000Y-50485000D01*
G36*
X115940000Y-50485000D02*
G01*
X115700000Y-50155000D01*
X116180000Y-50155000D01*
X115940000Y-50485000D01*
G37*
%TO.C,R1112*%
X140603641Y-68830000D02*
X140296359Y-68830000D01*
X140603641Y-69590000D02*
X140296359Y-69590000D01*
%TO.C,R1713*%
X146830000Y-94146359D02*
X146830000Y-94453641D01*
X147590000Y-94146359D02*
X147590000Y-94453641D01*
%TO.C,C621*%
X130782164Y-91770000D02*
X130997836Y-91770000D01*
X130782164Y-92490000D02*
X130997836Y-92490000D01*
%TO.C,R1404*%
X86753641Y-109230000D02*
X86446359Y-109230000D01*
X86753641Y-109990000D02*
X86446359Y-109990000D01*
%TO.C,C631*%
X130802164Y-93640000D02*
X131017836Y-93640000D01*
X130802164Y-94360000D02*
X131017836Y-94360000D01*
%TO.C,C513*%
X102920000Y-79562164D02*
X102920000Y-79777836D01*
X103640000Y-79562164D02*
X103640000Y-79777836D01*
%TO.C,C1605*%
X163780000Y-111517836D02*
X163780000Y-111302164D01*
X164500000Y-111517836D02*
X164500000Y-111302164D01*
D16*
%TO.C,J1501*%
X173540000Y-83110000D02*
X173540000Y-84210000D01*
X173540000Y-101610000D02*
X173540000Y-102710000D01*
X173540000Y-102710000D02*
X177840000Y-102710000D01*
X177840000Y-82510000D02*
X177840000Y-83110000D01*
X177840000Y-83110000D02*
X173540000Y-83110000D01*
X177840000Y-102710000D02*
X177840000Y-103310000D01*
X177840000Y-103310000D02*
X179040000Y-103310000D01*
X179040000Y-82510000D02*
X177840000Y-82510000D01*
X179040000Y-103310000D02*
X179040000Y-82510000D01*
D17*
X172240000Y-84950000D02*
G75*
G02*
X172040000Y-84950000I-100000J0D01*
G01*
X172040000Y-84950000D02*
G75*
G02*
X172240000Y-84950000I100000J0D01*
G01*
D13*
%TO.C,C1501*%
X160947836Y-86160000D02*
X160732164Y-86160000D01*
X160947836Y-86880000D02*
X160732164Y-86880000D01*
%TO.C,U1601*%
X160940000Y-122380000D02*
X157940000Y-122380000D01*
X160940000Y-125380000D02*
X157940000Y-125380000D01*
X157830000Y-125610000D02*
X157350000Y-125610000D01*
X157590000Y-125280000D01*
X157830000Y-125610000D01*
G36*
X157830000Y-125610000D02*
G01*
X157350000Y-125610000D01*
X157590000Y-125280000D01*
X157830000Y-125610000D01*
G37*
%TO.C,C1603*%
X163902164Y-119110000D02*
X164117836Y-119110000D01*
X163902164Y-119830000D02*
X164117836Y-119830000D01*
%TO.C,C701*%
X115030000Y-45552164D02*
X115030000Y-45767836D01*
X115750000Y-45552164D02*
X115750000Y-45767836D01*
%TO.C,R603*%
X124670000Y-90313641D02*
X124670000Y-90006359D01*
X125430000Y-90313641D02*
X125430000Y-90006359D01*
%TO.C,C408*%
X85707836Y-78240000D02*
X85492164Y-78240000D01*
X85707836Y-78960000D02*
X85492164Y-78960000D01*
%TO.C,C407*%
X85707836Y-75840000D02*
X85492164Y-75840000D01*
X85707836Y-76560000D02*
X85492164Y-76560000D01*
%TO.C,U1102*%
X134560000Y-59485000D02*
X134560000Y-59310000D01*
X134560000Y-65755000D02*
X134560000Y-66230000D01*
X134560000Y-66230000D02*
X135035000Y-66230000D01*
X135035000Y-59010000D02*
X134800000Y-59010000D01*
X141780000Y-59010000D02*
X141305000Y-59010000D01*
X141780000Y-59485000D02*
X141780000Y-59010000D01*
X141780000Y-65755000D02*
X141780000Y-66230000D01*
X141780000Y-66230000D02*
X141305000Y-66230000D01*
X134560000Y-59010000D02*
X134230000Y-59250000D01*
X134230000Y-58770000D01*
X134560000Y-59010000D01*
G36*
X134560000Y-59010000D02*
G01*
X134230000Y-59250000D01*
X134230000Y-58770000D01*
X134560000Y-59010000D01*
G37*
%TO.C,R1516*%
X164220000Y-104826359D02*
X164220000Y-105133641D01*
X164980000Y-104826359D02*
X164980000Y-105133641D01*
%TO.C,Q1302*%
X155410000Y-82157500D02*
X154760000Y-82157500D01*
X155410000Y-82157500D02*
X156060000Y-82157500D01*
X155410000Y-85277500D02*
X154760000Y-85277500D01*
X155410000Y-85277500D02*
X156060000Y-85277500D01*
X156572500Y-82207500D02*
X156332500Y-81877500D01*
X156812500Y-81877500D01*
X156572500Y-82207500D01*
G36*
X156572500Y-82207500D02*
G01*
X156332500Y-81877500D01*
X156812500Y-81877500D01*
X156572500Y-82207500D01*
G37*
%TO.C,C409*%
X85707836Y-81840000D02*
X85492164Y-81840000D01*
X85707836Y-82560000D02*
X85492164Y-82560000D01*
%TO.C,C524*%
X100312164Y-94240000D02*
X100527836Y-94240000D01*
X100312164Y-94960000D02*
X100527836Y-94960000D01*
%TO.C,R1704*%
X145680000Y-96313641D02*
X145680000Y-96006359D01*
X146440000Y-96313641D02*
X146440000Y-96006359D01*
%TO.C,R830*%
X152903641Y-62870000D02*
X152596359Y-62870000D01*
X152903641Y-63630000D02*
X152596359Y-63630000D01*
%TO.C,C623*%
X131549190Y-90148307D02*
X131701693Y-90300810D01*
X132058307Y-89639190D02*
X132210810Y-89791693D01*
%TO.C,C309*%
X136090000Y-81317836D02*
X136090000Y-81102164D01*
X136810000Y-81317836D02*
X136810000Y-81102164D01*
%TO.C,C629*%
X129497836Y-87770000D02*
X129282164Y-87770000D01*
X129497836Y-88490000D02*
X129282164Y-88490000D01*
%TO.C,U806*%
X159017500Y-68430000D02*
X159017500Y-68180000D01*
X159017500Y-73550000D02*
X159017500Y-74100000D01*
X159017500Y-74100000D02*
X159367500Y-74100000D01*
X159367500Y-67880000D02*
X159257500Y-67880000D01*
X163237500Y-67880000D02*
X162887500Y-67880000D01*
X163237500Y-68430000D02*
X163237500Y-67880000D01*
X163237500Y-73550000D02*
X163237500Y-74100000D01*
X163237500Y-74100000D02*
X162887500Y-74100000D01*
X159017500Y-67880000D02*
X158687500Y-68120000D01*
X158687500Y-67640000D01*
X159017500Y-67880000D01*
G36*
X159017500Y-67880000D02*
G01*
X158687500Y-68120000D01*
X158687500Y-67640000D01*
X159017500Y-67880000D01*
G37*
%TO.C,R1518*%
X165196359Y-82620000D02*
X165503641Y-82620000D01*
X165196359Y-83380000D02*
X165503641Y-83380000D01*
%TO.C,R831*%
X165173641Y-64670000D02*
X164866359Y-64670000D01*
X165173641Y-65430000D02*
X164866359Y-65430000D01*
%TO.C,C311*%
X135162164Y-86940000D02*
X135377836Y-86940000D01*
X135162164Y-87660000D02*
X135377836Y-87660000D01*
%TO.C,C1433*%
X139761252Y-121890000D02*
X138338748Y-121890000D01*
X139761252Y-124610000D02*
X138338748Y-124610000D01*
%TO.C,C505*%
X105457836Y-73840000D02*
X105242164Y-73840000D01*
X105457836Y-74560000D02*
X105242164Y-74560000D01*
%TO.C,C207*%
X132451693Y-80990810D02*
X132299190Y-80838307D01*
X132960810Y-80481693D02*
X132808307Y-80329190D01*
%TO.C,R602*%
X129363641Y-80520000D02*
X129056359Y-80520000D01*
X129363641Y-81280000D02*
X129056359Y-81280000D01*
%TO.C,C401*%
X125202164Y-86940000D02*
X125417836Y-86940000D01*
X125202164Y-87660000D02*
X125417836Y-87660000D01*
%TO.C,C608*%
X128392164Y-91010000D02*
X128607836Y-91010000D01*
X128392164Y-91730000D02*
X128607836Y-91730000D01*
%TO.C,R1101*%
X125300000Y-61926359D02*
X125300000Y-62233641D01*
X126060000Y-61926359D02*
X126060000Y-62233641D01*
%TO.C,C1607*%
X162950000Y-124037836D02*
X162950000Y-123822164D01*
X163670000Y-124037836D02*
X163670000Y-123822164D01*
%TO.C,C521*%
X105677836Y-81790000D02*
X105462164Y-81790000D01*
X105677836Y-82510000D02*
X105462164Y-82510000D01*
%TO.C,C533*%
X110070000Y-80022164D02*
X110070000Y-80237836D01*
X110790000Y-80022164D02*
X110790000Y-80237836D01*
D11*
%TO.C,U1404*%
X85755000Y-112955000D02*
X85755000Y-113605000D01*
X86080000Y-112930000D02*
X86080000Y-113630000D01*
X86080000Y-112930000D02*
X86730000Y-112930000D01*
X86080000Y-113280000D02*
X85755000Y-112955000D01*
X86080000Y-113280000D02*
X85780000Y-113580000D01*
X86080000Y-112930000D02*
X88530000Y-112930000D01*
X88530000Y-115430000D01*
X86080000Y-115430000D01*
X86080000Y-112930000D01*
D13*
%TO.C,J901*%
X151450000Y-35240000D02*
X165270000Y-35240000D01*
X151450000Y-37740000D02*
X151450000Y-35240000D01*
X151450000Y-40260000D02*
X151450000Y-46040000D01*
X151450000Y-49960000D02*
X151450000Y-48560000D01*
X151450000Y-49960000D02*
X165270000Y-49960000D01*
X165270000Y-37740000D02*
X165270000Y-35240000D01*
X165270000Y-46040000D02*
X165270000Y-40260000D01*
X165270000Y-49960000D02*
X165270000Y-48560000D01*
%TO.C,C1502*%
X156930000Y-107202164D02*
X156930000Y-107417836D01*
X157650000Y-107202164D02*
X157650000Y-107417836D01*
%TO.C,C712*%
X125275000Y-46327836D02*
X125275000Y-46112164D01*
X125995000Y-46327836D02*
X125995000Y-46112164D01*
%TO.C,C1118*%
X145735000Y-58521252D02*
X145735000Y-57998748D01*
X147205000Y-58521252D02*
X147205000Y-57998748D01*
%TO.C,C1422*%
X87960000Y-116282164D02*
X87960000Y-116497836D01*
X88680000Y-116282164D02*
X88680000Y-116497836D01*
%TO.C,R810*%
X163166359Y-54140000D02*
X163473641Y-54140000D01*
X163166359Y-54900000D02*
X163473641Y-54900000D01*
%TO.C,R902*%
X104986359Y-58140000D02*
X105293641Y-58140000D01*
X104986359Y-58900000D02*
X105293641Y-58900000D01*
%TO.C,R214*%
X139146359Y-81320000D02*
X139453641Y-81320000D01*
X139146359Y-82080000D02*
X139453641Y-82080000D01*
%TO.C,R1128*%
X144440000Y-51686359D02*
X144440000Y-51993641D01*
X145200000Y-51686359D02*
X145200000Y-51993641D01*
%TO.C,R1102*%
X135970000Y-70756359D02*
X135970000Y-71063641D01*
X136730000Y-70756359D02*
X136730000Y-71063641D01*
%TO.C,C1601*%
X158687836Y-111410000D02*
X158472164Y-111410000D01*
X158687836Y-112130000D02*
X158472164Y-112130000D01*
%TO.C,R217*%
X135620000Y-78243641D02*
X135620000Y-77936359D01*
X136380000Y-78243641D02*
X136380000Y-77936359D01*
%TO.C,C320*%
X136002164Y-92420000D02*
X136217836Y-92420000D01*
X136002164Y-93140000D02*
X136217836Y-93140000D01*
%TO.C,R1402*%
X114213641Y-123320000D02*
X113906359Y-123320000D01*
X114213641Y-124080000D02*
X113906359Y-124080000D01*
%TO.C,C627*%
X121420000Y-91722164D02*
X121420000Y-91937836D01*
X122140000Y-91722164D02*
X122140000Y-91937836D01*
%TO.C,R1109*%
X137170000Y-68963641D02*
X137170000Y-68656359D01*
X137930000Y-68963641D02*
X137930000Y-68656359D01*
%TO.C,L702*%
X127489420Y-46510000D02*
X127770580Y-46510000D01*
X127489420Y-47530000D02*
X127770580Y-47530000D01*
%TO.C,Q1103*%
X126030000Y-38677500D02*
X125380000Y-38677500D01*
X126030000Y-38677500D02*
X126680000Y-38677500D01*
X126030000Y-41797500D02*
X125380000Y-41797500D01*
X126030000Y-41797500D02*
X126680000Y-41797500D01*
X127192500Y-38727500D02*
X126952500Y-38397500D01*
X127432500Y-38397500D01*
X127192500Y-38727500D01*
G36*
X127192500Y-38727500D02*
G01*
X126952500Y-38397500D01*
X127432500Y-38397500D01*
X127192500Y-38727500D01*
G37*
%TO.C,R421*%
X87646359Y-74620000D02*
X87953641Y-74620000D01*
X87646359Y-75380000D02*
X87953641Y-75380000D01*
%TO.C,C606*%
X126382164Y-91120000D02*
X126597836Y-91120000D01*
X126382164Y-91840000D02*
X126597836Y-91840000D01*
%TO.C,C523*%
X99827836Y-79710000D02*
X99612164Y-79710000D01*
X99827836Y-80430000D02*
X99612164Y-80430000D01*
%TO.C,C202*%
X123950000Y-65312164D02*
X123950000Y-65527836D01*
X124670000Y-65312164D02*
X124670000Y-65527836D01*
%TD*%
M02*
