M48
; DRILL file {KiCad 9.0.4} date 2025-11-23T15:58:41-0600
; FORMAT={-:-/ absolute / metric / decimal}
; #@! TF.CreationDate,2025-11-23T15:58:41-06:00
; #@! TF.GenerationSoftware,Kicad,Pcbnew,9.0.4
; #@! TF.FileFunction,Plated,1,8,PTH
FMAT,2
METRIC
; #@! TA.AperFunction,Plated,PTH,ViaDrill
T1C0.250
; #@! TA.AperFunction,Plated,PTH,ComponentDrill
T2C0.250
; #@! TA.AperFunction,Plated,PTH,ComponentDrill
T3C0.300
; #@! TA.AperFunction,Plated,PTH,ComponentDrill
T4C0.500
; #@! TA.AperFunction,Plated,PTH,ComponentDrill
T5C0.800
; #@! TA.AperFunction,Plated,PTH,ComponentDrill
T6C0.889
; #@! TA.AperFunction,Plated,PTH,ComponentDrill
T7C1.000
; #@! TA.AperFunction,Plated,PTH,ComponentDrill
T8C1.016
; #@! TA.AperFunction,Plated,PTH,ComponentDrill
T9C1.300
; #@! TA.AperFunction,Plated,PTH,ComponentDrill
T10C1.575
; #@! TA.AperFunction,Plated,PTH,ComponentDrill
T11C2.300
; #@! TA.AperFunction,Plated,PTH,ComponentDrill
T12C3.200
%
G90
G05
T1
X81.05Y-113.37
X82.525Y-105.06
X83.03Y-86.8
X83.033Y-87.614
X83.05Y-86.02
X83.17Y-52.02
X83.485Y-105.06
X83.525Y-107.65
X83.55Y-106.7
X83.55Y-108.55
X84.02Y-97.8
X84.16Y-44.26
X85.01Y-44.265
X85.12Y-71.4
X85.12Y-73.8
X85.12Y-76.2
X85.12Y-78.6
X85.12Y-81.0
X85.12Y-82.2
X85.2Y-80.05
X85.32Y-69.0
X85.44Y-112.32
X85.76Y-116.94
X85.84Y-44.27
X86.0Y-85.0
X86.0Y-89.0
X86.0Y-91.0
X86.05Y-60.78
X86.05Y-92.1
X86.3Y-97.8
X86.475Y-107.65
X86.5Y-106.7
X86.5Y-108.6
X86.79Y-116.96
X87.54Y-115.85
X87.6Y-107.4
X87.63Y-60.78
X88.0Y-67.0
X88.2Y-90.03
X88.32Y-116.87
X88.36Y-86.31
X88.71Y-86.92
X88.89Y-98.38
X89.1Y-114.75
X89.1Y-115.5
X89.1Y-116.1
X89.1Y-116.7
X89.1Y-118.5
X89.22Y-48.96
X89.25Y-117.6
X89.374Y-49.664
X89.4Y-66.12
X89.488Y-124.004
X89.5Y-104.35
X89.5Y-105.55
X89.5Y-121.0
X89.5Y-121.75
X89.5Y-122.5
X89.5Y-123.25
X89.5Y-124.75
X89.5Y-126.25
X89.514Y-51.836
X89.516Y-125.494
X89.7Y-119.1
X89.7Y-120.0
X89.89Y-52.45
X89.926Y-50.216
X90.0Y-112.75
X90.0Y-113.5
X90.0Y-114.25
X90.0Y-115.0
X90.0Y-115.75
X90.0Y-116.4
X90.0Y-117.0
X90.0Y-117.61
X90.0Y-118.2
X90.066Y-51.284
X90.3Y-118.8
X90.35Y-104.35
X90.35Y-105.5
X90.6Y-111.9
X90.64Y-51.75
X90.72Y-50.44
X90.75Y-120.5
X90.75Y-121.5
X90.75Y-123.25
X90.9Y-111.3
X91.0Y-100.5
X91.0Y-102.1
X91.0Y-118.75
X91.2Y-110.7
X91.2Y-112.2
X91.2Y-113.4
X91.2Y-114.6
X91.25Y-64.95
X91.4Y-93.86
X91.59Y-96.43
X91.62Y-95.47
X91.71Y-120.47
X91.75Y-121.5
X91.75Y-123.25
X91.78Y-71.67
X91.8Y-66.12
X91.85Y-63.41
X92.0Y-87.8
X92.0Y-114.625
X92.0Y-118.75
X92.01Y-89.24
X92.03Y-47.61
X92.03Y-88.61
X92.04Y-45.37
X92.04Y-46.51
X92.4Y-100.5
X92.4Y-102.1
X92.49Y-94.67
X92.5Y-120.5
X92.54Y-64.55
X92.62Y-72.75
X92.75Y-118.75
X92.75Y-121.5
X92.75Y-123.25
X92.95Y-82.91
X92.98Y-96.32
X93.0Y-112.2
X93.0Y-113.4
X93.0Y-114.6
X93.01Y-95.51
X93.32Y-84.69
X93.5Y-118.75
X93.565Y-82.515
X93.57Y-81.49
X93.6Y-104.05
X93.6Y-105.75
X93.605Y-104.9
X93.75Y-123.75
X94.0Y-120.75
X94.13Y-83.08
X94.2Y-66.12
X94.2Y-112.25
X94.2Y-113.4
X94.2Y-114.6
X94.22Y-80.5
X94.24Y-51.19
X94.25Y-118.75
X94.5Y-120.0
X94.57Y-86.69
X94.6Y-78.74
X94.75Y-123.75
X94.8Y-78.14
X95.0Y-118.75
X95.17Y-79.68
X95.18Y-76.21
X95.2Y-51.19
X95.2Y-114.625
X95.21Y-90.6
X95.25Y-120.75
X95.31Y-94.62
X95.347Y-93.716
X95.36Y-75.29
X95.41Y-55.54
X95.47Y-85.19
X95.5Y-97.74
X95.5Y-124.0
X95.6Y-77.61
X95.68Y-92.78
X95.75Y-118.75
X95.9Y-91.53
X95.91Y-64.3
X95.96Y-83.88
X96.04Y-90.68
X96.13Y-76.17
X96.16Y-89.79
X96.16Y-94.59
X96.17Y-80.08
X96.17Y-88.99
X96.18Y-93.78
X96.18Y-100.23
X96.25Y-124.5
X96.28Y-92.83
X96.3Y-112.2
X96.3Y-113.4
X96.3Y-114.6
X96.34Y-97.78
X96.34Y-120.39
X96.42Y-71.03
X96.5Y-118.75
X96.56Y-122.5
X96.6Y-66.12
X96.61Y-90.98
X96.66Y-83.09
X96.75Y-81.78
X96.95Y-75.26
X96.96Y-93.79
X96.97Y-79.29
X96.97Y-80.08
X96.97Y-83.62
X96.97Y-88.99
X96.97Y-89.8
X96.98Y-94.58
X97.0Y-92.88
X97.25Y-118.75
X97.28Y-55.74
X97.35Y-92.41
X97.38Y-86.04
X97.44Y-64.3
X97.62Y-76.98
X97.64Y-76.21
X97.72Y-82.7
X97.734Y-92.945
X97.75Y-75.26
X97.76Y-74.48
X97.76Y-94.59
X97.77Y-80.07
X97.78Y-89.0
X97.78Y-89.79
X97.88Y-125.17
X97.9Y-51.65
X97.93Y-49.68
X98.0Y-112.25
X98.0Y-113.5
X98.01Y-83.71
X98.05Y-91.95
X98.09Y-70.99
X98.305Y-123.375
X98.4Y-86.19
X98.52Y-76.96
X98.54Y-81.21
X98.56Y-89.0
X98.57Y-76.12
X98.57Y-79.27
X98.575Y-74.485
X98.58Y-75.28
X98.58Y-89.8
X98.58Y-93.79
X98.61Y-90.65
X98.77Y-92.11
X98.89Y-125.12
X98.96Y-97.66
X99.0Y-66.12
X99.02Y-87.01
X99.05Y-71.33
X99.36Y-123.375
X99.37Y-88.99
X99.38Y-75.29
X99.38Y-76.16
X99.38Y-80.08
X99.41Y-96.04
X99.45Y-90.67
X99.75Y-91.95
X99.75Y-113.0
X99.85Y-122.73
X99.99Y-64.4
X100.15Y-75.27
X100.16Y-93.79
X100.16Y-94.59
X100.17Y-89.8
X100.18Y-80.06
X100.18Y-84.49
X100.18Y-88.99
X100.35Y-91.95
X100.61Y-71.3
X100.68Y-95.49
X100.78Y-55.49
X100.95Y-91.97
X100.96Y-93.79
X100.96Y-94.59
X100.97Y-74.47
X100.97Y-75.27
X100.98Y-79.28
X101.04Y-49.2
X101.093Y-73.567
X101.31Y-119.27
X101.4Y-66.12
X101.415Y-62.37
X101.43Y-113.84
X101.5Y-112.1
X101.74Y-80.04
X101.75Y-74.51
X101.76Y-79.27
X101.77Y-75.29
X101.77Y-89.8
X101.77Y-93.78
X101.78Y-88.99
X101.78Y-90.69
X101.94Y-73.47
X102.03Y-84.62
X102.1Y-95.72
X102.14Y-71.53
X102.18Y-122.56
X102.25Y-118.75
X102.4Y-120.4
X102.56Y-75.29
X102.57Y-90.69
X102.58Y-89.79
X102.6Y-82.04
X102.7Y-92.15
X102.94Y-84.49
X102.97Y-96.0
X103.01Y-64.35
X103.13Y-76.33
X103.25Y-118.75
X103.32Y-92.94
X103.33Y-90.74
X103.36Y-71.38
X103.36Y-93.79
X103.37Y-74.47
X103.38Y-75.28
X103.38Y-79.28
X103.38Y-80.08
X103.38Y-89.79
X103.4Y-55.5
X103.4Y-120.7
X103.45Y-51.005
X103.5Y-112.1
X103.5Y-113.5
X103.5Y-123.25
X103.62Y-57.74
X103.75Y-115.3
X103.77Y-84.45
X103.8Y-66.12
X103.83Y-95.7
X103.9Y-53.18
X103.96Y-77.93
X104.0Y-118.75
X104.0Y-119.8
X104.14Y-79.25
X104.15Y-75.31
X104.15Y-76.33
X104.16Y-90.7
X104.17Y-74.47
X104.17Y-80.09
X104.17Y-89.8
X104.2Y-92.947
X104.31Y-82.12
X104.345Y-98.025
X104.39Y-71.42
X104.453Y-51.057
X104.5Y-123.25
X104.59Y-84.49
X104.6Y-76.96
X104.6Y-120.7
X104.7Y-82.98
X104.75Y-95.71
X104.75Y-118.75
X104.8Y-127.625
X104.95Y-79.26
X104.97Y-74.47
X104.97Y-80.09
X104.97Y-89.8
X104.97Y-92.95
X104.97Y-93.78
X105.06Y-76.37
X105.08Y-52.55
X105.09Y-82.15
X105.23Y-70.27
X105.25Y-123.25
X105.295Y-130.0
X105.35Y-71.44
X105.36Y-84.49
X105.37Y-95.77
X105.44Y-57.04
X105.5Y-118.75
X105.58Y-82.78
X105.58Y-106.31
X105.64Y-114.52
X105.7Y-56.0
X105.75Y-89.77
X105.76Y-80.07
X105.77Y-74.47
X105.77Y-94.59
X105.9Y-107.4
X105.91Y-76.49
X105.95Y-127.3
X106.0Y-112.1
X106.0Y-113.5
X106.04Y-78.02
X106.05Y-82.15
X106.11Y-95.73
X106.15Y-84.5
X106.19Y-70.21
X106.2Y-71.46
X106.25Y-118.75
X106.25Y-119.5
X106.25Y-120.25
X106.25Y-121.0
X106.25Y-121.75
X106.25Y-122.5
X106.25Y-123.25
X106.25Y-124.25
X106.25Y-125.25
X106.255Y-130.0
X106.45Y-56.99
X106.56Y-80.07
X106.57Y-74.47
X106.57Y-99.12
X106.58Y-89.8
X106.6Y-55.0
X106.6Y-82.79
X106.65Y-76.41
X106.9Y-71.41
X106.97Y-84.48
X107.0Y-118.75
X107.06Y-99.79
X107.08Y-95.97
X107.23Y-97.897
X107.34Y-89.77
X107.36Y-80.06
X107.45Y-82.36
X107.75Y-118.75
X107.78Y-84.47
X107.86Y-71.41
X108.053Y-95.583
X108.19Y-65.97
X108.25Y-111.0
X108.25Y-111.75
X108.25Y-112.5
X108.25Y-113.25
X108.25Y-114.0
X108.25Y-115.0
X108.25Y-115.75
X108.25Y-116.5
X108.25Y-117.25
X108.25Y-118.0
X108.5Y-94.7
X108.64Y-71.55
X108.74Y-59.33
X108.75Y-119.5
X108.75Y-120.25
X108.75Y-121.0
X108.75Y-121.75
X108.75Y-122.5
X108.75Y-123.25
X108.75Y-124.25
X108.8Y-78.41
X108.92Y-65.26
X109.05Y-54.59
X109.1Y-112.5
X109.1Y-113.25
X109.1Y-114.0
X109.1Y-115.0
X109.1Y-115.75
X109.1Y-116.5
X109.1Y-117.25
X109.1Y-118.0
X109.15Y-111.75
X109.22Y-75.67
X109.39Y-40.52
X109.42Y-51.9
X109.5Y-119.5
X109.574Y-71.566
X109.7Y-121.6
X109.94Y-59.63
X110.13Y-74.91
X110.25Y-119.5
X110.28Y-46.76
X110.28Y-68.08
X110.3Y-120.7
X110.35Y-50.34
X110.38Y-116.05
X110.39Y-80.48
X110.42Y-79.68
X110.43Y-59.14
X110.45Y-114.1
X110.5Y-112.75
X110.84Y-74.47
X110.9Y-121.6
X110.91Y-44.67
X110.98Y-72.28
X111.0Y-119.5
X111.01Y-67.34
X111.42Y-43.56
X111.57Y-49.3
X111.6Y-123.75
X111.69Y-50.16
X111.69Y-75.95
X111.7Y-120.9
X111.75Y-119.5
X111.9Y-122.9
X111.92Y-107.85
X112.0Y-112.75
X112.0Y-114.1
X112.06Y-40.52
X112.5Y-119.5
X112.52Y-109.33
X112.63Y-54.337
X112.655Y-58.515
X112.655Y-59.39
X112.655Y-60.265
X112.71Y-62.85
X112.78Y-55.82
X112.89Y-82.41
X113.0Y-125.8
X113.14Y-50.59
X113.2Y-48.45
X113.25Y-112.75
X113.36Y-62.83
X113.38Y-76.755
X113.38Y-77.385
X113.5Y-123.7
X113.51Y-60.265
X113.53Y-58.515
X113.55Y-59.39
X113.77Y-56.41
X113.87Y-38.83
X113.89Y-41.06
X113.9Y-42.12
X113.97Y-125.75
X114.11Y-73.56
X114.2Y-114.1
X114.28Y-62.8
X114.405Y-58.515
X114.405Y-59.39
X114.405Y-60.265
X114.57Y-123.72
X114.7Y-112.7
X114.78Y-73.4
X114.82Y-55.82
X115.025Y-123.025
X115.1Y-114.1
X115.23Y-43.9
X115.3Y-62.84
X115.38Y-49.78
X115.39Y-45.18
X115.39Y-46.14
X115.57Y-47.54
X115.61Y-80.49
X115.8Y-81.68
X115.85Y-104.63
X115.9Y-61.7
X115.92Y-39.99
X116.0Y-40.93
X116.14Y-43.92
X116.25Y-112.75
X116.35Y-44.9
X116.62Y-114.17
X116.69Y-119.82
X116.72Y-61.57
X116.82Y-44.06
X116.97Y-84.24
X116.98Y-50.35
X117.25Y-40.95
X117.25Y-92.14
X117.27Y-46.16
X117.27Y-47.61
X117.27Y-49.06
X117.32Y-122.93
X117.37Y-120.86
X117.465Y-79.065
X117.49Y-44.0
X117.49Y-76.06
X117.5Y-112.75
X117.5Y-119.5
X117.51Y-65.91
X117.53Y-39.97
X117.55Y-42.56
X117.93Y-91.62
X117.957Y-70.003
X117.98Y-53.44
X118.0Y-92.35
X118.09Y-42.4
X118.25Y-119.5
X118.29Y-81.93
X118.3Y-93.56
X118.34Y-130.42
X118.42Y-75.47
X118.45Y-44.0
X118.5Y-120.25
X118.57Y-58.76
X118.645Y-125.955
X118.72Y-46.16
X118.72Y-47.61
X118.72Y-49.06
X118.72Y-127.17
X118.75Y-112.75
X118.75Y-114.1
X118.85Y-116.1
X118.89Y-86.31
X118.91Y-77.31
X118.95Y-90.4
X119.0Y-119.5
X119.0Y-121.0
X119.04Y-93.77
X119.12Y-108.89
X119.31Y-62.41
X119.4Y-53.5
X119.43Y-76.58
X119.5Y-120.25
X119.59Y-92.85
X119.62Y-79.75
X119.67Y-64.49
X119.67Y-70.15
X119.725Y-123.95
X119.75Y-119.5
X119.87Y-90.4
X119.98Y-86.38
X119.99Y-40.04
X119.99Y-42.51
X120.02Y-128.65
X120.08Y-68.45
X120.17Y-46.16
X120.17Y-47.61
X120.17Y-49.06
X120.23Y-92.043
X120.25Y-110.5
X120.25Y-111.25
X120.25Y-112.0
X120.25Y-112.75
X120.25Y-113.5
X120.25Y-114.25
X120.25Y-115.0
X120.25Y-115.75
X120.25Y-116.5
X120.25Y-117.25
X120.25Y-118.0
X120.25Y-118.75
X120.39Y-80.56
X120.46Y-91.15
X120.5Y-120.25
X120.5Y-121.0
X120.5Y-121.75
X120.5Y-122.5
X120.5Y-123.25
X120.52Y-103.48
X120.59Y-94.059
X120.62Y-99.19
X120.7Y-81.52
X120.73Y-71.18
X120.88Y-86.46
X120.92Y-89.72
X120.94Y-109.14
X121.07Y-44.09
X121.09Y-42.19
X121.245Y-46.145
X121.25Y-110.5
X121.25Y-111.25
X121.25Y-112.0
X121.25Y-112.75
X121.25Y-113.5
X121.25Y-114.25
X121.25Y-115.0
X121.25Y-115.75
X121.25Y-116.5
X121.25Y-117.25
X121.25Y-118.0
X121.25Y-118.75
X121.25Y-119.5
X121.33Y-47.72
X121.36Y-64.53
X121.43Y-53.47
X121.69Y-85.69
X121.69Y-89.72
X121.69Y-91.3
X121.7Y-81.72
X121.7Y-84.88
X121.7Y-88.91
X121.71Y-86.5
X121.72Y-83.3
X121.755Y-76.335
X121.77Y-99.19
X121.84Y-70.25
X122.0Y-119.5
X122.03Y-44.04
X122.23Y-78.26
X122.35Y-51.03
X122.421Y-96.031
X122.45Y-122.125
X122.46Y-75.88
X122.47Y-83.31
X122.48Y-88.11
X122.48Y-89.72
X122.48Y-92.91
X122.49Y-85.69
X122.49Y-90.52
X122.5Y-81.73
X122.5Y-87.297
X122.5Y-91.3
X122.5Y-111.75
X122.5Y-113.5
X122.503Y-92.097
X122.51Y-86.5
X122.51Y-88.92
X122.518Y-93.728
X122.54Y-115.37
X122.56Y-70.91
X122.637Y-96.972
X122.68Y-99.32
X122.9Y-80.63
X122.91Y-42.48
X123.0Y-107.75
X123.11Y-79.89
X123.15Y-53.67
X123.17Y-43.86
X123.21Y-73.69
X123.25Y-119.5
X123.26Y-88.92
X123.27Y-83.31
X123.29Y-88.1
X123.29Y-89.72
X123.29Y-92.93
X123.29Y-94.53
X123.3Y-81.69
X123.3Y-82.52
X123.3Y-84.13
X123.3Y-85.72
X123.3Y-86.503
X123.3Y-90.52
X123.3Y-91.3
X123.3Y-92.1
X123.3Y-93.73
X123.31Y-96.128
X123.33Y-66.38
X123.42Y-96.99
X123.42Y-131.41
X123.68Y-75.52
X123.82Y-55.76
X123.83Y-37.98
X123.87Y-59.02
X123.9Y-76.17
X124.0Y-111.75
X124.0Y-113.5
X124.0Y-119.5
X124.0Y-120.25
X124.0Y-121.0
X124.0Y-121.75
X124.0Y-122.5
X124.0Y-123.25
X124.04Y-115.37
X124.087Y-93.733
X124.1Y-81.69
X124.1Y-84.12
X124.1Y-84.91
X124.1Y-85.73
X124.1Y-86.5
X124.1Y-87.34
X124.1Y-88.12
X124.1Y-88.91
X124.1Y-90.48
X124.1Y-91.313
X124.1Y-92.11
X124.1Y-92.9
X124.1Y-95.34
X124.103Y-89.669
X124.11Y-82.49
X124.11Y-83.31
X124.13Y-132.81
X124.27Y-50.33
X124.4Y-52.5
X124.4Y-103.21
X124.44Y-47.96
X124.44Y-48.92
X124.45Y-50.91
X124.461Y-97.18
X124.66Y-100.1
X124.75Y-119.5
X124.87Y-131.79
X124.88Y-84.92
X124.88Y-95.32
X124.9Y-68.06
X124.9Y-79.86
X124.9Y-83.31
X124.9Y-88.1
X124.9Y-88.9
X124.9Y-89.7
X124.9Y-90.5
X124.9Y-91.3
X124.9Y-92.1
X124.91Y-81.72
X124.91Y-82.5
X124.91Y-84.13
X124.91Y-94.47
X124.92Y-85.71
X124.92Y-87.3
X124.92Y-92.89
X124.92Y-93.71
X125.0Y-105.5
X125.0Y-107.0
X125.0Y-120.8
X125.055Y-106.24
X125.5Y-120.1
X125.502Y-119.518
X125.585Y-49.04
X125.59Y-99.3
X125.6Y-131.31
X125.62Y-100.1
X125.635Y-45.74
X125.7Y-80.67
X125.7Y-85.74
X125.71Y-82.53
X125.71Y-83.33
X125.72Y-84.16
X125.72Y-84.955
X125.72Y-87.28
X125.72Y-88.1
X125.72Y-90.46
X125.72Y-91.31
X125.72Y-92.11
X125.73Y-88.88
X125.73Y-89.67
X125.74Y-86.49
X125.74Y-96.06
X125.75Y-92.88
X125.75Y-93.66
X125.76Y-42.83
X125.76Y-96.98
X125.83Y-38.5
X125.83Y-128.65
X125.84Y-58.54
X125.98Y-101.305
X125.98Y-102.855
X125.98Y-115.33
X126.0Y-111.75
X126.0Y-113.5
X126.0Y-120.8
X126.08Y-43.87
X126.1Y-44.9
X126.25Y-119.5
X126.29Y-104.44
X126.5Y-86.5
X126.51Y-80.81
X126.51Y-81.7
X126.51Y-82.52
X126.51Y-83.33
X126.51Y-85.73
X126.513Y-84.887
X126.53Y-100.11
X126.59Y-99.32
X126.97Y-120.36
X127.0Y-119.5
X127.25Y-122.5
X127.3Y-82.54
X127.3Y-87.31
X127.3Y-88.1
X127.3Y-88.91
X127.3Y-92.89
X127.3Y-93.7
X127.3Y-96.1
X127.3Y-96.88
X127.31Y-78.21
X127.31Y-84.1
X127.31Y-84.92
X127.31Y-89.72
X127.31Y-90.54
X127.31Y-91.33
X127.32Y-85.73
X127.32Y-92.12
X127.49Y-100.11
X127.54Y-74.61
X127.585Y-54.63
X127.62Y-97.87
X127.73Y-61.56
X127.75Y-119.5
X127.8Y-70.39
X127.86Y-60.44
X127.93Y-69.46
X128.0Y-111.75
X128.0Y-113.5
X128.005Y-106.24
X128.05Y-115.25
X128.06Y-72.421
X128.1Y-83.32
X128.1Y-84.12
X128.1Y-88.14
X128.1Y-88.91
X128.1Y-91.29
X128.1Y-95.33
X128.1Y-125.29
X128.101Y-80.225
X128.101Y-82.49
X128.11Y-89.7
X128.11Y-90.5
X128.11Y-92.11
X128.11Y-92.89
X128.12Y-85.66
X128.12Y-87.3
X128.16Y-86.46
X128.18Y-70.93
X128.21Y-63.14
X128.22Y-62.18
X128.27Y-69.99
X128.405Y-47.02
X128.415Y-48.57
X128.47Y-74.64
X128.471Y-73.18
X128.51Y-73.98
X128.53Y-99.13
X128.54Y-97.9
X128.59Y-75.43
X128.63Y-72.56
X128.71Y-123.2
X128.75Y-103.5
X128.86Y-88.1
X128.88Y-87.3
X128.89Y-86.5
X128.89Y-89.69
X128.89Y-90.51
X128.89Y-91.29
X128.89Y-92.9
X128.9Y-88.9
X128.9Y-96.1
X128.9Y-130.15
X128.902Y-83.27
X128.91Y-82.52
X128.91Y-84.14
X128.91Y-92.1
X128.911Y-78.846
X129.03Y-56.01
X129.03Y-56.97
X129.03Y-97.01
X129.095Y-132.475
X129.1Y-125.26
X129.49Y-99.13
X129.5Y-97.9
X129.69Y-83.32
X129.69Y-84.13
X129.69Y-87.27
X129.69Y-88.9
X129.69Y-90.48
X129.69Y-92.08
X129.69Y-94.5
X129.69Y-95.27
X129.7Y-91.34
X129.7Y-92.91
X129.7Y-93.69
X129.71Y-82.52
X129.71Y-88.11
X129.71Y-96.1
X129.713Y-81.687
X129.72Y-84.9
X129.73Y-85.75
X129.73Y-100.615
X129.73Y-103.565
X129.735Y-123.185
X129.75Y-86.53
X129.83Y-96.99
X129.9Y-109.5
X129.93Y-113.03
X129.93Y-115.28
X129.98Y-62.19
X130.0Y-106.525
X130.0Y-111.7
X130.04Y-68.35
X130.055Y-132.475
X130.225Y-122.7
X130.35Y-72.43
X130.45Y-89.67
X130.47Y-83.3
X130.47Y-88.88
X130.48Y-90.49
X130.48Y-91.32
X130.49Y-92.88
X130.49Y-93.73
X130.49Y-95.32
X130.499Y-84.148
X130.5Y-81.73
X130.5Y-84.93
X130.5Y-88.11
X130.5Y-92.11
X130.5Y-96.12
X130.501Y-80.89
X130.501Y-82.549
X130.51Y-85.74
X130.51Y-86.53
X130.51Y-87.34
X130.68Y-100.63
X130.75Y-103.5
X130.79Y-66.73
X130.84Y-106.535
X130.84Y-109.485
X130.95Y-56.6
X131.175Y-129.2
X131.23Y-73.18
X131.26Y-84.93
X131.27Y-87.31
X131.29Y-86.5
X131.3Y-85.72
X131.3Y-92.1
X131.3Y-93.72
X131.3Y-83.273
X131.31Y-89.7
X131.31Y-90.49
X131.31Y-92.93
X131.318Y-84.128
X131.32Y-88.11
X131.32Y-91.32
X131.32Y-95.29
X131.33Y-96.07
X131.46Y-63.95
X131.48Y-64.99
X131.5Y-119.34
X131.64Y-97.13
X131.65Y-59.64
X131.65Y-106.525
X131.7Y-109.5
X131.84Y-113.54
X131.84Y-115.25
X132.0Y-111.7
X132.06Y-88.17
X132.09Y-88.93
X132.09Y-93.7
X132.1Y-81.673
X132.1Y-83.273
X132.1Y-68.31
X132.1Y-82.473
X132.1Y-84.1
X132.1Y-90.53
X132.1Y-92.89
X132.1Y-94.5
X132.11Y-87.32
X132.12Y-80.34
X132.16Y-92.15
X132.2Y-123.05
X132.25Y-119.5
X132.27Y-59.63
X132.47Y-97.13
X132.5Y-120.5
X132.88Y-92.11
X132.88Y-94.49
X132.89Y-88.87
X132.89Y-93.7
X132.9Y-82.5
X132.9Y-84.1
X132.9Y-84.9
X132.9Y-86.528
X132.9Y-87.317
X132.9Y-88.12
X132.91Y-83.3
X132.91Y-85.72
X132.92Y-81.7
X132.92Y-89.69
X132.95Y-63.54
X133.0Y-67.11
X133.0Y-119.5
X133.04Y-69.31
X133.13Y-123.69
X133.225Y-125.55
X133.25Y-109.425
X133.33Y-65.86
X133.4Y-106.45
X133.4Y-121.3
X133.55Y-58.31
X133.55Y-59.33
X133.68Y-93.71
X133.69Y-84.91
X133.69Y-85.72
X133.69Y-94.47
X133.696Y-87.31
X133.7Y-83.3
X133.7Y-91.32
X133.7Y-95.34
X133.7Y-86.51
X133.71Y-88.91
X133.71Y-90.5
X133.71Y-92.12
X133.72Y-82.51
X133.725Y-89.775
X133.725Y-92.905
X133.73Y-88.11
X133.75Y-119.5
X133.77Y-61.5
X133.78Y-60.85
X133.93Y-78.49
X133.94Y-115.07
X133.96Y-123.66
X134.0Y-111.7
X134.0Y-113.5
X134.0Y-120.3
X134.02Y-63.92
X134.15Y-74.33
X134.18Y-106.445
X134.18Y-109.395
X134.29Y-77.56
X134.48Y-91.26
X134.49Y-85.72
X134.5Y-86.51
X134.5Y-90.54
X134.5Y-93.71
X134.5Y-119.5
X134.5Y-121.3
X134.505Y-94.525
X134.508Y-87.31
X134.51Y-82.5
X134.51Y-83.31
X134.51Y-84.92
X134.51Y-88.91
X134.51Y-89.73
X134.51Y-92.91
X134.51Y-95.32
X134.52Y-84.12
X134.52Y-92.1
X134.732Y-61.87
X134.75Y-132.25
X134.78Y-72.48
X134.8Y-58.51
X134.85Y-123.67
X135.0Y-106.5
X135.05Y-109.4
X135.12Y-67.63
X135.214Y-80.655
X135.25Y-119.5
X135.29Y-86.529
X135.29Y-92.9
X135.3Y-81.7
X135.3Y-82.5
X135.3Y-88.9
X135.3Y-95.32
X135.31Y-84.9
X135.32Y-90.54
X135.4Y-79.2
X135.45Y-46.42
X135.5Y-132.25
X135.56Y-60.41
X135.59Y-63.45
X135.64Y-41.737
X135.81Y-126.09
X135.86Y-127.09
X135.92Y-65.18
X136.0Y-119.5
X136.0Y-120.25
X136.0Y-121.0
X136.0Y-121.75
X136.0Y-122.5
X136.0Y-123.25
X136.08Y-95.3
X136.09Y-87.31
X136.1Y-82.51
X136.14Y-80.59
X136.25Y-132.25
X136.49Y-67.56
X136.51Y-80.0
X136.7Y-115.115
X136.75Y-111.75
X136.75Y-113.5
X136.75Y-119.5
X136.8Y-61.25
X136.8Y-62.62
X136.8Y-63.99
X136.9Y-92.88
X136.9Y-96.88
X136.93Y-59.72
X137.0Y-132.5
X137.075Y-75.27
X137.08Y-84.51
X137.25Y-121.25
X137.37Y-67.61
X137.46Y-88.89
X137.5Y-119.5
X137.5Y-133.0
X137.54Y-124.23
X137.57Y-122.33
X137.575Y-123.25
X137.659Y-97.579
X137.66Y-92.86
X137.7Y-126.54
X137.77Y-73.21
X137.78Y-127.61
X137.91Y-65.22
X137.91Y-79.25
X138.0Y-121.25
X138.07Y-41.68
X138.1Y-81.7
X138.17Y-61.25
X138.17Y-62.62
X138.17Y-63.99
X138.25Y-119.5
X138.25Y-133.5
X138.31Y-128.09
X138.38Y-88.94
X138.38Y-93.48
X138.45Y-75.64
X138.46Y-130.34
X138.5Y-125.0
X138.6Y-67.89
X138.66Y-76.7
X138.75Y-111.25
X138.75Y-112.0
X138.75Y-112.75
X138.75Y-113.5
X138.75Y-114.25
X138.75Y-115.0
X138.75Y-115.75
X138.75Y-116.5
X138.75Y-117.25
X138.75Y-118.0
X138.75Y-118.75
X138.75Y-121.25
X139.0Y-133.5
X139.09Y-76.18
X139.12Y-65.05
X139.23Y-82.74
X139.3Y-77.67
X139.37Y-72.19
X139.41Y-60.06
X139.44Y-57.3
X139.5Y-121.25
X139.511Y-98.921
X139.54Y-61.25
X139.54Y-62.62
X139.54Y-63.99
X139.75Y-133.5
X139.8Y-53.55
X139.8Y-54.75
X139.83Y-117.95
X139.91Y-76.01
X140.0Y-123.4
X140.025Y-75.27
X140.17Y-82.74
X140.189Y-99.599
X140.2Y-65.13
X140.25Y-121.25
X140.35Y-132.0
X140.41Y-113.73
X140.5Y-133.5
X140.62Y-62.36
X140.7Y-124.9
X140.7Y-130.5
X140.71Y-64.71
X140.9Y-122.9
X140.9Y-124.1
X140.96Y-69.21
X141.0Y-121.25
X141.05Y-131.6
X141.05Y-132.5
X141.2Y-76.15
X141.2Y-91.54
X141.2Y-92.42
X141.25Y-133.5
X141.34Y-59.3
X141.37Y-56.31
X141.37Y-57.33
X141.74Y-96.99
X141.75Y-120.75
X141.75Y-121.5
X141.75Y-122.25
X141.75Y-123.0
X141.75Y-123.75
X141.75Y-124.5
X141.75Y-125.25
X141.75Y-126.0
X141.76Y-129.71
X141.88Y-100.27
X141.94Y-87.97
X142.0Y-130.5
X142.0Y-131.75
X142.0Y-132.5
X142.0Y-133.25
X142.02Y-76.63
X142.25Y-120.0
X142.5Y-131.25
X142.62Y-75.97
X142.65Y-53.35
X142.7Y-54.5
X142.75Y-132.0
X142.75Y-132.75
X142.75Y-133.5
X142.94Y-56.33
X143.0Y-119.75
X143.01Y-103.59
X143.17Y-90.75
X143.175Y-115.775
X143.2Y-116.65
X143.2Y-117.45
X143.25Y-63.87
X143.28Y-65.49
X143.28Y-67.39
X143.44Y-57.63
X143.5Y-133.5
X143.56Y-55.79
X143.59Y-58.91
X143.597Y-102.907
X143.75Y-119.75
X143.76Y-51.35
X143.95Y-74.81
X144.04Y-90.68
X144.2Y-102.28
X144.25Y-53.96
X144.25Y-133.5
X144.5Y-119.75
X144.72Y-61.64
X144.73Y-57.295
X144.73Y-70.31
X144.82Y-51.33
X144.824Y-90.684
X145.0Y-133.5
X145.07Y-105.59
X145.25Y-119.75
X145.27Y-53.95
X145.376Y-91.236
X145.683Y-104.993
X145.75Y-133.5
X146.0Y-119.75
X146.17Y-91.33
X146.175Y-115.825
X146.175Y-116.65
X146.19Y-120.8
X146.19Y-121.55
X146.19Y-122.3
X146.2Y-117.5
X146.29Y-104.37
X146.3Y-132.05
X146.32Y-124.25
X146.37Y-61.78
X146.46Y-58.38
X146.46Y-63.31
X146.47Y-57.31
X146.47Y-59.21
X146.49Y-83.49
X146.5Y-133.5
X146.602Y-39.182
X146.75Y-119.75
X146.95Y-85.62
X147.02Y-101.36
X147.18Y-96.7
X147.2Y-98.34
X147.21Y-93.79
X147.25Y-129.75
X147.25Y-133.5
X147.5Y-119.75
X148.0Y-120.75
X148.0Y-122.25
X148.0Y-124.25
X148.0Y-125.5
X148.0Y-126.75
X148.0Y-128.0
X148.0Y-129.25
X148.0Y-130.75
X148.0Y-132.0
X148.0Y-133.5
X148.25Y-93.7
X148.25Y-119.75
X148.75Y-133.5
X149.0Y-119.75
X149.02Y-100.95
X149.5Y-120.75
X149.5Y-122.25
X149.5Y-124.25
X149.5Y-125.5
X149.5Y-126.75
X149.5Y-128.0
X149.5Y-129.25
X149.5Y-130.75
X149.5Y-132.0
X149.5Y-133.5
X149.66Y-101.75
X149.661Y-50.789
X149.75Y-114.21
X149.75Y-119.75
X149.79Y-106.69
X149.954Y-114.914
X150.08Y-103.22
X150.08Y-104.24
X150.115Y-92.955
X150.18Y-97.53
X150.19Y-47.6
X150.27Y-50.07
X150.3Y-102.2
X150.357Y-106.147
X150.506Y-115.466
X150.53Y-92.41
X150.65Y-93.79
X150.86Y-105.59
X150.99Y-91.98
X151.14Y-115.94
X151.15Y-103.48
X151.34Y-96.15
X151.414Y-87.654
X151.59Y-45.0
X151.68Y-86.97
X151.9Y-115.45
X151.94Y-108.81
X151.966Y-88.206
X151.99Y-55.06
X151.99Y-56.08
X151.99Y-57.0
X151.99Y-58.02
X152.01Y-61.02
X152.07Y-96.04
X152.18Y-67.99
X152.24Y-63.25
X152.24Y-64.25
X152.3Y-116.45
X152.443Y-108.233
X152.46Y-129.78
X152.51Y-126.93
X152.52Y-87.75
X152.55Y-119.04
X152.55Y-120.06
X152.73Y-43.8
X152.78Y-59.02
X152.85Y-96.04
X153.05Y-61.02
X153.06Y-107.57
X153.13Y-65.09
X153.25Y-47.5
X153.25Y-49.0
X153.31Y-89.83
X153.34Y-99.66
X153.35Y-127.95
X153.46Y-126.72
X153.484Y-112.734
X153.53Y-96.06
X153.54Y-52.76
X153.54Y-53.83
X153.57Y-125.17
X153.65Y-120.69
X153.65Y-121.71
X153.73Y-128.45
X153.74Y-59.02
X153.74Y-109.11
X153.81Y-43.8
X153.84Y-105.07
X153.84Y-115.52
X153.88Y-54.82
X153.892Y-48.31
X154.036Y-113.286
X154.05Y-112.14
X154.07Y-114.85
X154.124Y-109.894
X154.17Y-45.81
X154.21Y-98.81
X154.31Y-89.83
X154.41Y-61.03
X154.44Y-84.8
X154.5Y-47.5
X154.5Y-49.0
X154.6Y-42.85
X154.63Y-87.93
X154.64Y-51.11
X154.67Y-67.96
X154.676Y-110.446
X154.79Y-121.41
X154.8Y-103.21
X154.81Y-113.2
X154.86Y-116.69
X154.96Y-83.72
X155.02Y-119.56
X155.03Y-59.57
X155.03Y-125.69
X155.114Y-85.324
X155.17Y-98.81
X155.3Y-105.05
X155.34Y-109.97
X155.654Y-116.754
X155.666Y-85.876
X155.73Y-125.51
X155.82Y-54.08
X155.82Y-55.04
X155.98Y-51.94
X155.98Y-53.0
X156.04Y-123.46
X156.04Y-124.42
X156.15Y-83.69
X156.15Y-84.65
X156.194Y-66.914
X156.206Y-117.306
X156.255Y-44.7
X156.27Y-85.49
X156.34Y-93.65
X156.34Y-118.0
X156.347Y-82.767
X156.35Y-96.71
X156.387Y-82.062
X156.41Y-105.06
X156.66Y-89.65
X156.74Y-98.55
X156.746Y-67.466
X156.76Y-99.39
X156.77Y-100.4
X156.832Y-80.25
X156.92Y-70.84
X156.954Y-62.686
X157.01Y-95.16
X157.04Y-48.15
X157.1Y-49.17
X157.29Y-107.79
X157.3Y-106.8
X157.506Y-62.134
X157.52Y-119.21
X157.54Y-57.227
X157.54Y-58.578
X157.54Y-69.59
X157.56Y-60.92
X157.6Y-93.65
X157.6Y-96.73
X157.71Y-54.97
X157.77Y-110.72
X157.79Y-100.4
X157.86Y-74.84
X157.89Y-72.18
X157.9Y-87.73
X157.91Y-79.01
X157.96Y-40.53
X158.07Y-85.67
X158.1Y-111.77
X158.16Y-47.62
X158.16Y-48.58
X158.2Y-66.9
X158.2Y-67.86
X158.21Y-76.75
X158.25Y-82.25
X158.25Y-83.75
X158.275Y-83.0
X158.37Y-101.62
X158.47Y-43.42
X158.47Y-44.38
X158.55Y-119.92
X158.55Y-120.92
X158.71Y-63.27
X158.72Y-100.38
X158.73Y-91.49
X158.75Y-73.5
X158.86Y-62.11
X158.91Y-60.69
X158.98Y-54.09
X159.06Y-127.95
X159.09Y-124.9
X159.1Y-111.81
X159.11Y-57.227
X159.11Y-58.65
X159.21Y-76.76
X159.275Y-74.405
X159.31Y-47.12
X159.37Y-103.77
X159.43Y-83.44
X159.48Y-43.6
X159.53Y-50.7
X159.69Y-91.49
X159.72Y-109.73
X159.73Y-99.37
X159.73Y-110.77
X159.74Y-97.23
X159.74Y-100.38
X159.81Y-74.74
X160.02Y-118.29
X160.05Y-46.47
X160.07Y-76.04
X160.08Y-69.98
X160.09Y-72.03
X160.1Y-115.78
X160.11Y-61.85
X160.12Y-54.81
X160.18Y-117.28
X160.2Y-114.33
X160.3Y-79.18
X160.36Y-86.52
X160.49Y-74.77
X160.49Y-76.56
X160.49Y-97.42
X160.655Y-44.7
X160.67Y-119.92
X160.68Y-57.227
X160.68Y-58.578
X160.78Y-115.79
X160.79Y-80.95
X160.83Y-98.58
X160.99Y-72.93
X161.0Y-51.99
X161.03Y-71.04
X161.03Y-119.13
X161.225Y-83.0
X161.24Y-117.32
X161.25Y-82.25
X161.25Y-83.75
X161.25Y-114.33
X161.3Y-79.18
X161.355Y-86.555
X161.37Y-61.66
X161.44Y-99.38
X161.85Y-65.53
X161.85Y-66.49
X161.87Y-64.68
X161.89Y-69.12
X161.9Y-71.07
X162.07Y-88.95
X162.12Y-92.2
X162.22Y-75.54
X162.49Y-111.97
X162.55Y-127.14
X162.71Y-90.552
X162.74Y-60.3
X162.74Y-76.41
X162.75Y-102.21
X162.75Y-109.74
X162.75Y-110.73
X162.84Y-83.0
X162.84Y-84.01
X162.87Y-55.13
X162.87Y-55.93
X162.935Y-75.255
X162.95Y-93.98
X162.96Y-100.57
X163.01Y-59.31
X163.31Y-123.45
X163.36Y-92.21
X163.38Y-121.04
X163.39Y-88.97
X163.42Y-73.97
X163.53Y-119.47
X163.55Y-64.75
X163.63Y-60.94
X163.76Y-57.58
X163.76Y-76.41
X163.77Y-77.54
X163.802Y-67.188
X163.83Y-53.43
X163.83Y-54.52
X164.1Y-109.52
X164.11Y-56.0
X164.14Y-110.93
X164.16Y-73.22
X164.18Y-70.65
X164.19Y-75.06
X164.27Y-58.07
X164.34Y-80.84
X164.47Y-106.54
X164.49Y-119.47
X164.59Y-60.94
X164.6Y-104.47
X164.68Y-53.79
X164.841Y-57.651
X164.89Y-74.43
X164.9Y-56.77
X164.97Y-55.46
X165.01Y-94.21
X165.06Y-51.83
X165.08Y-73.22
X165.14Y-110.91
X165.15Y-48.71
X165.21Y-123.46
X165.29Y-75.45
X165.3Y-77.42
X165.38Y-59.77
X165.44Y-117.83
X165.5Y-69.75
X165.5Y-105.52
X165.52Y-63.04
X165.52Y-64.04
X165.53Y-65.05
X165.53Y-66.05
X165.53Y-68.24
X165.64Y-71.37
X165.66Y-120.09
X165.66Y-121.58
X165.7Y-124.68
X165.78Y-101.74
X165.82Y-92.08
X165.86Y-83.0
X165.86Y-84.01
X165.92Y-118.27
X165.97Y-94.21
X165.98Y-76.39
X165.99Y-86.28
X166.0Y-87.07
X166.089Y-112.684
X166.15Y-110.49
X166.17Y-113.399
X166.17Y-114.179
X166.29Y-108.54
X166.44Y-59.75
X166.51Y-91.76
X166.74Y-87.0
X166.88Y-94.31
X166.94Y-80.84
X167.044Y-93.666
X167.07Y-86.26
X167.18Y-48.71
X167.22Y-51.84
X167.25Y-92.4
X167.29Y-91.76
X167.32Y-55.42
X167.37Y-88.61
X167.52Y-87.0
X167.596Y-93.114
X167.6Y-112.82
X167.65Y-68.55
X167.65Y-69.33
X167.68Y-71.71
X167.68Y-72.49
X167.7Y-67.87
X167.71Y-66.98
X167.71Y-70.14
X167.71Y-70.92
X167.754Y-113.534
X167.77Y-74.96
X167.89Y-110.61
X167.92Y-75.97
X167.92Y-92.16
X167.94Y-90.69
X167.94Y-91.47
X167.95Y-47.95
X167.96Y-56.03
X167.97Y-61.438
X167.99Y-49.44
X168.0Y-50.94
X168.02Y-73.82
X168.06Y-52.46
X168.07Y-92.75
X168.09Y-68.95
X168.1Y-90.02
X168.1Y-105.52
X168.114Y-88.334
X168.12Y-67.46
X168.12Y-74.46
X168.18Y-86.85
X168.2Y-70.47
X168.2Y-71.98
X168.29Y-103.51
X168.306Y-114.086
X168.45Y-114.74
X168.54Y-99.32
X168.666Y-88.886
X168.73Y-110.615
X168.78Y-97.47
X168.974Y-90.396
X169.12Y-91.09
X169.18Y-98.89
X169.21Y-103.505
X169.23Y-88.37
X169.38Y-82.78
X169.39Y-86.84
X169.43Y-96.88
X169.526Y-89.844
X169.55Y-110.61
X169.74Y-105.14
X169.8Y-89.17
X169.838Y-62.05
X169.87Y-121.69
X169.96Y-84.71
X169.99Y-112.35
X170.05Y-91.73
X170.1Y-103.53
X170.13Y-82.775
X170.21Y-96.88
X170.21Y-118.64
X170.26Y-112.97
X170.29Y-115.71
X170.335Y-109.165
X170.37Y-113.88
X170.37Y-114.66
X170.39Y-109.81
X170.48Y-87.1
X170.48Y-87.88
X170.56Y-94.75
X170.68Y-73.52
X170.77Y-88.97
X170.78Y-91.11
X170.89Y-54.34
X170.89Y-55.44
X170.93Y-51.71
X170.95Y-82.79
X171.01Y-94.12
X171.28Y-96.71
X171.58Y-72.52
X171.77Y-62.05
X171.89Y-53.08
X172.3Y-50.74
X172.39Y-100.9
X172.51Y-122.72
X172.53Y-110.585
X172.78Y-106.65
X173.27Y-62.06
X173.33Y-100.93
X173.58Y-84.91
X173.6Y-109.36
X173.68Y-118.72
X173.71Y-115.67
X173.76Y-121.69
X173.9Y-112.73
X173.96Y-122.69
X173.99Y-108.05
X174.227Y-106.679
X174.41Y-107.56
X174.56Y-99.61
X174.64Y-88.42
X174.79Y-109.38
X174.99Y-110.61
X175.0Y-51.71
X175.0Y-54.25
X175.14Y-84.91
X175.16Y-90.16
X175.16Y-96.77
X175.17Y-62.06
X175.17Y-85.9
X175.27Y-97.55
X175.29Y-87.34
X175.45Y-122.7
X175.65Y-106.72
X175.75Y-98.74
X175.94Y-100.98
X176.07Y-88.62
X176.08Y-93.88
X176.08Y-94.91
X176.09Y-97.1
X176.11Y-89.32
X176.13Y-91.88
X176.15Y-111.84
X176.2Y-90.99
X176.67Y-84.94
T2
X98.56Y-121.83
X98.835Y-121.38
X99.11Y-121.83
X99.385Y-121.38
X99.66Y-121.83
X99.935Y-121.38
X113.735Y-122.37
X114.01Y-121.92
X114.285Y-122.37
X114.56Y-121.92
X114.835Y-122.37
X115.11Y-121.92
X128.94Y-121.9
X129.215Y-121.45
X129.49Y-121.9
X129.765Y-121.45
X130.04Y-121.9
X130.315Y-121.45
X139.21Y-126.8
X139.21Y-127.35
X139.21Y-127.9
X139.66Y-127.075
X139.66Y-127.625
X139.66Y-128.175
T3
X85.08Y-101.58
X85.08Y-102.78
X86.18Y-101.58
X86.18Y-102.78
X87.48Y-101.58
X87.48Y-102.78
X88.68Y-101.58
X88.68Y-102.78
T5
X84.7Y-110.92
X87.24Y-110.92
X89.78Y-110.92
T6
X131.348Y-47.743
X132.618Y-49.013
X133.888Y-47.743
X135.158Y-49.013
X136.428Y-47.743
X137.698Y-49.013
X138.968Y-47.743
X140.238Y-49.013
X141.508Y-47.743
X142.778Y-49.013
T7
X91.75Y-132.06
X91.75Y-134.6
X94.29Y-132.06
X94.29Y-134.6
X96.83Y-132.06
X96.83Y-134.6
X99.37Y-132.06
X99.37Y-134.6
X101.91Y-132.06
X101.91Y-134.6
X107.97Y-38.28
X107.97Y-40.82
X107.97Y-43.36
X107.97Y-45.9
X107.97Y-48.44
X107.97Y-50.98
X111.6Y-132.06
X111.6Y-134.6
X114.14Y-132.06
X114.14Y-134.6
X116.68Y-132.06
X116.68Y-134.6
X119.22Y-132.06
X119.22Y-134.6
X121.76Y-132.06
X121.76Y-134.6
X151.43Y-41.1
X153.97Y-41.1
X154.28Y-132.06
X154.28Y-134.6
X156.51Y-41.1
X156.82Y-132.06
X156.82Y-134.6
X159.05Y-41.1
X159.36Y-132.06
X159.36Y-134.6
X161.59Y-41.1
X161.9Y-132.06
X161.9Y-134.6
X164.13Y-41.1
X164.44Y-132.06
X164.44Y-134.6
T8
X130.269Y-36.821
X130.269Y-38.853
X143.858Y-36.821
X143.858Y-38.853
T9
X103.23Y-104.57
X103.29Y-109.05
X109.73Y-104.57
X109.79Y-109.05
X170.31Y-44.95
X170.31Y-59.45
X170.31Y-64.45
X170.31Y-78.95
X175.21Y-44.35
X175.21Y-60.05
X175.21Y-63.85
X175.21Y-79.55
T10
X129.189Y-44.441
X144.937Y-44.441
T11
X88.98Y-42.84
X102.12Y-42.84
T12
X82.06Y-38.82
X82.06Y-132.4
X173.6Y-38.82
X173.6Y-132.4
T4
G00X78.975Y-46.58
M15
G01X79.675Y-46.58
M16
G05
G00X78.975Y-53.18
M15
G01X79.675Y-53.18
M16
G05
G00X115.53Y-35.765
M15
G01X115.53Y-36.465
M16
G05
G00X122.13Y-35.765
M15
G01X122.13Y-36.465
M16
G05
T7
G00X80.77Y-119.89
M15
G01X80.77Y-122.09
M16
G05
G00X85.27Y-125.79
M15
G01X83.07Y-125.79
M16
G05
G00X87.07Y-119.69
M15
G01X87.07Y-122.29
M16
G05
M30
