%TF.GenerationSoftware,KiCad,Pcbnew,9.0.4*%
%TF.CreationDate,2025-11-16T17:21:23-06:00*%
%TF.ProjectId,zynq_test,7a796e71-5f74-4657-9374-2e6b69636164,rev?*%
%TF.SameCoordinates,Original*%
%TF.FileFunction,Legend,Top*%
%TF.FilePolarity,Positive*%
%FSLAX46Y46*%
G04 Gerber Fmt 4.6, Leading zero omitted, Abs format (unit mm)*
G04 Created by KiCad (PCBNEW 9.0.4) date 2025-11-16 17:21:23*
%MOMM*%
%LPD*%
G01*
G04 APERTURE LIST*
%ADD10C,0.150000*%
%ADD11C,0.120000*%
%ADD12C,0.250000*%
%ADD13C,0.152400*%
%ADD14C,0.000000*%
%ADD15C,0.100000*%
%ADD16C,0.127000*%
%ADD17C,0.200000*%
%ADD18C,0.508000*%
G04 APERTURE END LIST*
D10*
X100487200Y-68003808D02*
X100534819Y-67860951D01*
X100534819Y-67860951D02*
X100534819Y-67622856D01*
X100534819Y-67622856D02*
X100487200Y-67527618D01*
X100487200Y-67527618D02*
X100439580Y-67479999D01*
X100439580Y-67479999D02*
X100344342Y-67432380D01*
X100344342Y-67432380D02*
X100249104Y-67432380D01*
X100249104Y-67432380D02*
X100153866Y-67479999D01*
X100153866Y-67479999D02*
X100106247Y-67527618D01*
X100106247Y-67527618D02*
X100058628Y-67622856D01*
X100058628Y-67622856D02*
X100011009Y-67813332D01*
X100011009Y-67813332D02*
X99963390Y-67908570D01*
X99963390Y-67908570D02*
X99915771Y-67956189D01*
X99915771Y-67956189D02*
X99820533Y-68003808D01*
X99820533Y-68003808D02*
X99725295Y-68003808D01*
X99725295Y-68003808D02*
X99630057Y-67956189D01*
X99630057Y-67956189D02*
X99582438Y-67908570D01*
X99582438Y-67908570D02*
X99534819Y-67813332D01*
X99534819Y-67813332D02*
X99534819Y-67575237D01*
X99534819Y-67575237D02*
X99582438Y-67432380D01*
X100534819Y-67003808D02*
X99534819Y-67003808D01*
X99534819Y-67003808D02*
X99534819Y-66622856D01*
X99534819Y-66622856D02*
X99582438Y-66527618D01*
X99582438Y-66527618D02*
X99630057Y-66479999D01*
X99630057Y-66479999D02*
X99725295Y-66432380D01*
X99725295Y-66432380D02*
X99868152Y-66432380D01*
X99868152Y-66432380D02*
X99963390Y-66479999D01*
X99963390Y-66479999D02*
X100011009Y-66527618D01*
X100011009Y-66527618D02*
X100058628Y-66622856D01*
X100058628Y-66622856D02*
X100058628Y-67003808D01*
X100534819Y-66003808D02*
X99534819Y-66003808D01*
X84114819Y-52856190D02*
X84114819Y-52665714D01*
X84114819Y-52665714D02*
X84162438Y-52570476D01*
X84162438Y-52570476D02*
X84257676Y-52475238D01*
X84257676Y-52475238D02*
X84448152Y-52427619D01*
X84448152Y-52427619D02*
X84781485Y-52427619D01*
X84781485Y-52427619D02*
X84971961Y-52475238D01*
X84971961Y-52475238D02*
X85067200Y-52570476D01*
X85067200Y-52570476D02*
X85114819Y-52665714D01*
X85114819Y-52665714D02*
X85114819Y-52856190D01*
X85114819Y-52856190D02*
X85067200Y-52951428D01*
X85067200Y-52951428D02*
X84971961Y-53046666D01*
X84971961Y-53046666D02*
X84781485Y-53094285D01*
X84781485Y-53094285D02*
X84448152Y-53094285D01*
X84448152Y-53094285D02*
X84257676Y-53046666D01*
X84257676Y-53046666D02*
X84162438Y-52951428D01*
X84162438Y-52951428D02*
X84114819Y-52856190D01*
X84114819Y-52141904D02*
X84114819Y-51570476D01*
X85114819Y-51856190D02*
X84114819Y-51856190D01*
X84162438Y-50713333D02*
X84114819Y-50808571D01*
X84114819Y-50808571D02*
X84114819Y-50951428D01*
X84114819Y-50951428D02*
X84162438Y-51094285D01*
X84162438Y-51094285D02*
X84257676Y-51189523D01*
X84257676Y-51189523D02*
X84352914Y-51237142D01*
X84352914Y-51237142D02*
X84543390Y-51284761D01*
X84543390Y-51284761D02*
X84686247Y-51284761D01*
X84686247Y-51284761D02*
X84876723Y-51237142D01*
X84876723Y-51237142D02*
X84971961Y-51189523D01*
X84971961Y-51189523D02*
X85067200Y-51094285D01*
X85067200Y-51094285D02*
X85114819Y-50951428D01*
X85114819Y-50951428D02*
X85114819Y-50856190D01*
X85114819Y-50856190D02*
X85067200Y-50713333D01*
X85067200Y-50713333D02*
X85019580Y-50665714D01*
X85019580Y-50665714D02*
X84686247Y-50665714D01*
X84686247Y-50665714D02*
X84686247Y-50856190D01*
X173397142Y-126734819D02*
X173063809Y-126258628D01*
X172825714Y-126734819D02*
X172825714Y-125734819D01*
X172825714Y-125734819D02*
X173206666Y-125734819D01*
X173206666Y-125734819D02*
X173301904Y-125782438D01*
X173301904Y-125782438D02*
X173349523Y-125830057D01*
X173349523Y-125830057D02*
X173397142Y-125925295D01*
X173397142Y-125925295D02*
X173397142Y-126068152D01*
X173397142Y-126068152D02*
X173349523Y-126163390D01*
X173349523Y-126163390D02*
X173301904Y-126211009D01*
X173301904Y-126211009D02*
X173206666Y-126258628D01*
X173206666Y-126258628D02*
X172825714Y-126258628D01*
X173730476Y-125734819D02*
X174397142Y-126734819D01*
X174397142Y-125734819D02*
X173730476Y-126734819D01*
X175301904Y-126734819D02*
X174730476Y-126734819D01*
X175016190Y-126734819D02*
X175016190Y-125734819D01*
X175016190Y-125734819D02*
X174920952Y-125877676D01*
X174920952Y-125877676D02*
X174825714Y-125972914D01*
X174825714Y-125972914D02*
X174730476Y-126020533D01*
X104039524Y-132697200D02*
X104182381Y-132744819D01*
X104182381Y-132744819D02*
X104420476Y-132744819D01*
X104420476Y-132744819D02*
X104515714Y-132697200D01*
X104515714Y-132697200D02*
X104563333Y-132649580D01*
X104563333Y-132649580D02*
X104610952Y-132554342D01*
X104610952Y-132554342D02*
X104610952Y-132459104D01*
X104610952Y-132459104D02*
X104563333Y-132363866D01*
X104563333Y-132363866D02*
X104515714Y-132316247D01*
X104515714Y-132316247D02*
X104420476Y-132268628D01*
X104420476Y-132268628D02*
X104230000Y-132221009D01*
X104230000Y-132221009D02*
X104134762Y-132173390D01*
X104134762Y-132173390D02*
X104087143Y-132125771D01*
X104087143Y-132125771D02*
X104039524Y-132030533D01*
X104039524Y-132030533D02*
X104039524Y-131935295D01*
X104039524Y-131935295D02*
X104087143Y-131840057D01*
X104087143Y-131840057D02*
X104134762Y-131792438D01*
X104134762Y-131792438D02*
X104230000Y-131744819D01*
X104230000Y-131744819D02*
X104468095Y-131744819D01*
X104468095Y-131744819D02*
X104610952Y-131792438D01*
X105039524Y-132221009D02*
X105372857Y-132221009D01*
X105515714Y-132744819D02*
X105039524Y-132744819D01*
X105039524Y-132744819D02*
X105039524Y-131744819D01*
X105039524Y-131744819D02*
X105515714Y-131744819D01*
X105944286Y-132744819D02*
X105944286Y-131744819D01*
X105944286Y-131744819D02*
X106515714Y-132744819D01*
X106515714Y-132744819D02*
X106515714Y-131744819D01*
X106944286Y-132697200D02*
X107087143Y-132744819D01*
X107087143Y-132744819D02*
X107325238Y-132744819D01*
X107325238Y-132744819D02*
X107420476Y-132697200D01*
X107420476Y-132697200D02*
X107468095Y-132649580D01*
X107468095Y-132649580D02*
X107515714Y-132554342D01*
X107515714Y-132554342D02*
X107515714Y-132459104D01*
X107515714Y-132459104D02*
X107468095Y-132363866D01*
X107468095Y-132363866D02*
X107420476Y-132316247D01*
X107420476Y-132316247D02*
X107325238Y-132268628D01*
X107325238Y-132268628D02*
X107134762Y-132221009D01*
X107134762Y-132221009D02*
X107039524Y-132173390D01*
X107039524Y-132173390D02*
X106991905Y-132125771D01*
X106991905Y-132125771D02*
X106944286Y-132030533D01*
X106944286Y-132030533D02*
X106944286Y-131935295D01*
X106944286Y-131935295D02*
X106991905Y-131840057D01*
X106991905Y-131840057D02*
X107039524Y-131792438D01*
X107039524Y-131792438D02*
X107134762Y-131744819D01*
X107134762Y-131744819D02*
X107372857Y-131744819D01*
X107372857Y-131744819D02*
X107515714Y-131792438D01*
X107944286Y-132221009D02*
X108277619Y-132221009D01*
X108420476Y-132744819D02*
X107944286Y-132744819D01*
X107944286Y-132744819D02*
X107944286Y-131744819D01*
X107944286Y-131744819D02*
X108420476Y-131744819D01*
X160801429Y-129493866D02*
X161563334Y-129493866D01*
X161182381Y-129874819D02*
X161182381Y-129112914D01*
X162515714Y-128874819D02*
X162039524Y-128874819D01*
X162039524Y-128874819D02*
X161991905Y-129351009D01*
X161991905Y-129351009D02*
X162039524Y-129303390D01*
X162039524Y-129303390D02*
X162134762Y-129255771D01*
X162134762Y-129255771D02*
X162372857Y-129255771D01*
X162372857Y-129255771D02*
X162468095Y-129303390D01*
X162468095Y-129303390D02*
X162515714Y-129351009D01*
X162515714Y-129351009D02*
X162563333Y-129446247D01*
X162563333Y-129446247D02*
X162563333Y-129684342D01*
X162563333Y-129684342D02*
X162515714Y-129779580D01*
X162515714Y-129779580D02*
X162468095Y-129827200D01*
X162468095Y-129827200D02*
X162372857Y-129874819D01*
X162372857Y-129874819D02*
X162134762Y-129874819D01*
X162134762Y-129874819D02*
X162039524Y-129827200D01*
X162039524Y-129827200D02*
X161991905Y-129779580D01*
X162849048Y-128874819D02*
X163182381Y-129874819D01*
X163182381Y-129874819D02*
X163515714Y-128874819D01*
X165134762Y-128922438D02*
X165039524Y-128874819D01*
X165039524Y-128874819D02*
X164896667Y-128874819D01*
X164896667Y-128874819D02*
X164753810Y-128922438D01*
X164753810Y-128922438D02*
X164658572Y-129017676D01*
X164658572Y-129017676D02*
X164610953Y-129112914D01*
X164610953Y-129112914D02*
X164563334Y-129303390D01*
X164563334Y-129303390D02*
X164563334Y-129446247D01*
X164563334Y-129446247D02*
X164610953Y-129636723D01*
X164610953Y-129636723D02*
X164658572Y-129731961D01*
X164658572Y-129731961D02*
X164753810Y-129827200D01*
X164753810Y-129827200D02*
X164896667Y-129874819D01*
X164896667Y-129874819D02*
X164991905Y-129874819D01*
X164991905Y-129874819D02*
X165134762Y-129827200D01*
X165134762Y-129827200D02*
X165182381Y-129779580D01*
X165182381Y-129779580D02*
X165182381Y-129446247D01*
X165182381Y-129446247D02*
X164991905Y-129446247D01*
X165610953Y-129874819D02*
X165610953Y-128874819D01*
X165610953Y-128874819D02*
X165991905Y-128874819D01*
X165991905Y-128874819D02*
X166087143Y-128922438D01*
X166087143Y-128922438D02*
X166134762Y-128970057D01*
X166134762Y-128970057D02*
X166182381Y-129065295D01*
X166182381Y-129065295D02*
X166182381Y-129208152D01*
X166182381Y-129208152D02*
X166134762Y-129303390D01*
X166134762Y-129303390D02*
X166087143Y-129351009D01*
X166087143Y-129351009D02*
X165991905Y-129398628D01*
X165991905Y-129398628D02*
X165610953Y-129398628D01*
X166610953Y-129874819D02*
X166610953Y-128874819D01*
X167277619Y-128874819D02*
X167468095Y-128874819D01*
X167468095Y-128874819D02*
X167563333Y-128922438D01*
X167563333Y-128922438D02*
X167658571Y-129017676D01*
X167658571Y-129017676D02*
X167706190Y-129208152D01*
X167706190Y-129208152D02*
X167706190Y-129541485D01*
X167706190Y-129541485D02*
X167658571Y-129731961D01*
X167658571Y-129731961D02*
X167563333Y-129827200D01*
X167563333Y-129827200D02*
X167468095Y-129874819D01*
X167468095Y-129874819D02*
X167277619Y-129874819D01*
X167277619Y-129874819D02*
X167182381Y-129827200D01*
X167182381Y-129827200D02*
X167087143Y-129731961D01*
X167087143Y-129731961D02*
X167039524Y-129541485D01*
X167039524Y-129541485D02*
X167039524Y-129208152D01*
X167039524Y-129208152D02*
X167087143Y-129017676D01*
X167087143Y-129017676D02*
X167182381Y-128922438D01*
X167182381Y-128922438D02*
X167277619Y-128874819D01*
X100607200Y-51775713D02*
X100654819Y-51632856D01*
X100654819Y-51632856D02*
X100654819Y-51394761D01*
X100654819Y-51394761D02*
X100607200Y-51299523D01*
X100607200Y-51299523D02*
X100559580Y-51251904D01*
X100559580Y-51251904D02*
X100464342Y-51204285D01*
X100464342Y-51204285D02*
X100369104Y-51204285D01*
X100369104Y-51204285D02*
X100273866Y-51251904D01*
X100273866Y-51251904D02*
X100226247Y-51299523D01*
X100226247Y-51299523D02*
X100178628Y-51394761D01*
X100178628Y-51394761D02*
X100131009Y-51585237D01*
X100131009Y-51585237D02*
X100083390Y-51680475D01*
X100083390Y-51680475D02*
X100035771Y-51728094D01*
X100035771Y-51728094D02*
X99940533Y-51775713D01*
X99940533Y-51775713D02*
X99845295Y-51775713D01*
X99845295Y-51775713D02*
X99750057Y-51728094D01*
X99750057Y-51728094D02*
X99702438Y-51680475D01*
X99702438Y-51680475D02*
X99654819Y-51585237D01*
X99654819Y-51585237D02*
X99654819Y-51347142D01*
X99654819Y-51347142D02*
X99702438Y-51204285D01*
X100654819Y-50775713D02*
X99654819Y-50775713D01*
X99654819Y-50775713D02*
X99654819Y-50537618D01*
X99654819Y-50537618D02*
X99702438Y-50394761D01*
X99702438Y-50394761D02*
X99797676Y-50299523D01*
X99797676Y-50299523D02*
X99892914Y-50251904D01*
X99892914Y-50251904D02*
X100083390Y-50204285D01*
X100083390Y-50204285D02*
X100226247Y-50204285D01*
X100226247Y-50204285D02*
X100416723Y-50251904D01*
X100416723Y-50251904D02*
X100511961Y-50299523D01*
X100511961Y-50299523D02*
X100607200Y-50394761D01*
X100607200Y-50394761D02*
X100654819Y-50537618D01*
X100654819Y-50537618D02*
X100654819Y-50775713D01*
X87113333Y-48574819D02*
X87113333Y-47574819D01*
X87113333Y-48051009D02*
X87684761Y-48051009D01*
X87684761Y-48574819D02*
X87684761Y-47574819D01*
X88351428Y-47574819D02*
X88541904Y-47574819D01*
X88541904Y-47574819D02*
X88637142Y-47622438D01*
X88637142Y-47622438D02*
X88732380Y-47717676D01*
X88732380Y-47717676D02*
X88779999Y-47908152D01*
X88779999Y-47908152D02*
X88779999Y-48241485D01*
X88779999Y-48241485D02*
X88732380Y-48431961D01*
X88732380Y-48431961D02*
X88637142Y-48527200D01*
X88637142Y-48527200D02*
X88541904Y-48574819D01*
X88541904Y-48574819D02*
X88351428Y-48574819D01*
X88351428Y-48574819D02*
X88256190Y-48527200D01*
X88256190Y-48527200D02*
X88160952Y-48431961D01*
X88160952Y-48431961D02*
X88113333Y-48241485D01*
X88113333Y-48241485D02*
X88113333Y-47908152D01*
X88113333Y-47908152D02*
X88160952Y-47717676D01*
X88160952Y-47717676D02*
X88256190Y-47622438D01*
X88256190Y-47622438D02*
X88351428Y-47574819D01*
X89160952Y-48527200D02*
X89303809Y-48574819D01*
X89303809Y-48574819D02*
X89541904Y-48574819D01*
X89541904Y-48574819D02*
X89637142Y-48527200D01*
X89637142Y-48527200D02*
X89684761Y-48479580D01*
X89684761Y-48479580D02*
X89732380Y-48384342D01*
X89732380Y-48384342D02*
X89732380Y-48289104D01*
X89732380Y-48289104D02*
X89684761Y-48193866D01*
X89684761Y-48193866D02*
X89637142Y-48146247D01*
X89637142Y-48146247D02*
X89541904Y-48098628D01*
X89541904Y-48098628D02*
X89351428Y-48051009D01*
X89351428Y-48051009D02*
X89256190Y-48003390D01*
X89256190Y-48003390D02*
X89208571Y-47955771D01*
X89208571Y-47955771D02*
X89160952Y-47860533D01*
X89160952Y-47860533D02*
X89160952Y-47765295D01*
X89160952Y-47765295D02*
X89208571Y-47670057D01*
X89208571Y-47670057D02*
X89256190Y-47622438D01*
X89256190Y-47622438D02*
X89351428Y-47574819D01*
X89351428Y-47574819D02*
X89589523Y-47574819D01*
X89589523Y-47574819D02*
X89732380Y-47622438D01*
X90018095Y-47574819D02*
X90589523Y-47574819D01*
X90303809Y-48574819D02*
X90303809Y-47574819D01*
X98344819Y-68412856D02*
X97344819Y-68412856D01*
X97344819Y-68412856D02*
X97344819Y-68174761D01*
X97344819Y-68174761D02*
X97392438Y-68031904D01*
X97392438Y-68031904D02*
X97487676Y-67936666D01*
X97487676Y-67936666D02*
X97582914Y-67889047D01*
X97582914Y-67889047D02*
X97773390Y-67841428D01*
X97773390Y-67841428D02*
X97916247Y-67841428D01*
X97916247Y-67841428D02*
X98106723Y-67889047D01*
X98106723Y-67889047D02*
X98201961Y-67936666D01*
X98201961Y-67936666D02*
X98297200Y-68031904D01*
X98297200Y-68031904D02*
X98344819Y-68174761D01*
X98344819Y-68174761D02*
X98344819Y-68412856D01*
X97821009Y-67412856D02*
X97821009Y-67079523D01*
X98344819Y-66936666D02*
X98344819Y-67412856D01*
X98344819Y-67412856D02*
X97344819Y-67412856D01*
X97344819Y-67412856D02*
X97344819Y-66936666D01*
X97344819Y-66650951D02*
X98344819Y-66317618D01*
X98344819Y-66317618D02*
X97344819Y-65984285D01*
X97754286Y-104944819D02*
X97754286Y-103944819D01*
X97754286Y-103944819D02*
X98135238Y-103944819D01*
X98135238Y-103944819D02*
X98230476Y-103992438D01*
X98230476Y-103992438D02*
X98278095Y-104040057D01*
X98278095Y-104040057D02*
X98325714Y-104135295D01*
X98325714Y-104135295D02*
X98325714Y-104278152D01*
X98325714Y-104278152D02*
X98278095Y-104373390D01*
X98278095Y-104373390D02*
X98230476Y-104421009D01*
X98230476Y-104421009D02*
X98135238Y-104468628D01*
X98135238Y-104468628D02*
X97754286Y-104468628D01*
X99325714Y-104944819D02*
X98992381Y-104468628D01*
X98754286Y-104944819D02*
X98754286Y-103944819D01*
X98754286Y-103944819D02*
X99135238Y-103944819D01*
X99135238Y-103944819D02*
X99230476Y-103992438D01*
X99230476Y-103992438D02*
X99278095Y-104040057D01*
X99278095Y-104040057D02*
X99325714Y-104135295D01*
X99325714Y-104135295D02*
X99325714Y-104278152D01*
X99325714Y-104278152D02*
X99278095Y-104373390D01*
X99278095Y-104373390D02*
X99230476Y-104421009D01*
X99230476Y-104421009D02*
X99135238Y-104468628D01*
X99135238Y-104468628D02*
X98754286Y-104468628D01*
X99944762Y-103944819D02*
X100135238Y-103944819D01*
X100135238Y-103944819D02*
X100230476Y-103992438D01*
X100230476Y-103992438D02*
X100325714Y-104087676D01*
X100325714Y-104087676D02*
X100373333Y-104278152D01*
X100373333Y-104278152D02*
X100373333Y-104611485D01*
X100373333Y-104611485D02*
X100325714Y-104801961D01*
X100325714Y-104801961D02*
X100230476Y-104897200D01*
X100230476Y-104897200D02*
X100135238Y-104944819D01*
X100135238Y-104944819D02*
X99944762Y-104944819D01*
X99944762Y-104944819D02*
X99849524Y-104897200D01*
X99849524Y-104897200D02*
X99754286Y-104801961D01*
X99754286Y-104801961D02*
X99706667Y-104611485D01*
X99706667Y-104611485D02*
X99706667Y-104278152D01*
X99706667Y-104278152D02*
X99754286Y-104087676D01*
X99754286Y-104087676D02*
X99849524Y-103992438D01*
X99849524Y-103992438D02*
X99944762Y-103944819D01*
X101325714Y-103992438D02*
X101230476Y-103944819D01*
X101230476Y-103944819D02*
X101087619Y-103944819D01*
X101087619Y-103944819D02*
X100944762Y-103992438D01*
X100944762Y-103992438D02*
X100849524Y-104087676D01*
X100849524Y-104087676D02*
X100801905Y-104182914D01*
X100801905Y-104182914D02*
X100754286Y-104373390D01*
X100754286Y-104373390D02*
X100754286Y-104516247D01*
X100754286Y-104516247D02*
X100801905Y-104706723D01*
X100801905Y-104706723D02*
X100849524Y-104801961D01*
X100849524Y-104801961D02*
X100944762Y-104897200D01*
X100944762Y-104897200D02*
X101087619Y-104944819D01*
X101087619Y-104944819D02*
X101182857Y-104944819D01*
X101182857Y-104944819D02*
X101325714Y-104897200D01*
X101325714Y-104897200D02*
X101373333Y-104849580D01*
X101373333Y-104849580D02*
X101373333Y-104516247D01*
X101373333Y-104516247D02*
X101182857Y-104516247D01*
X102434819Y-129569047D02*
X102434819Y-130140475D01*
X102434819Y-129854761D02*
X101434819Y-129854761D01*
X101434819Y-129854761D02*
X101577676Y-129949999D01*
X101577676Y-129949999D02*
X101672914Y-130045237D01*
X101672914Y-130045237D02*
X101720533Y-130140475D01*
X101434819Y-129283332D02*
X102434819Y-128949999D01*
X102434819Y-128949999D02*
X101434819Y-128616666D01*
X101863390Y-128140475D02*
X101815771Y-128235713D01*
X101815771Y-128235713D02*
X101768152Y-128283332D01*
X101768152Y-128283332D02*
X101672914Y-128330951D01*
X101672914Y-128330951D02*
X101625295Y-128330951D01*
X101625295Y-128330951D02*
X101530057Y-128283332D01*
X101530057Y-128283332D02*
X101482438Y-128235713D01*
X101482438Y-128235713D02*
X101434819Y-128140475D01*
X101434819Y-128140475D02*
X101434819Y-127949999D01*
X101434819Y-127949999D02*
X101482438Y-127854761D01*
X101482438Y-127854761D02*
X101530057Y-127807142D01*
X101530057Y-127807142D02*
X101625295Y-127759523D01*
X101625295Y-127759523D02*
X101672914Y-127759523D01*
X101672914Y-127759523D02*
X101768152Y-127807142D01*
X101768152Y-127807142D02*
X101815771Y-127854761D01*
X101815771Y-127854761D02*
X101863390Y-127949999D01*
X101863390Y-127949999D02*
X101863390Y-128140475D01*
X101863390Y-128140475D02*
X101911009Y-128235713D01*
X101911009Y-128235713D02*
X101958628Y-128283332D01*
X101958628Y-128283332D02*
X102053866Y-128330951D01*
X102053866Y-128330951D02*
X102244342Y-128330951D01*
X102244342Y-128330951D02*
X102339580Y-128283332D01*
X102339580Y-128283332D02*
X102387200Y-128235713D01*
X102387200Y-128235713D02*
X102434819Y-128140475D01*
X102434819Y-128140475D02*
X102434819Y-127949999D01*
X102434819Y-127949999D02*
X102387200Y-127854761D01*
X102387200Y-127854761D02*
X102339580Y-127807142D01*
X102339580Y-127807142D02*
X102244342Y-127759523D01*
X102244342Y-127759523D02*
X102053866Y-127759523D01*
X102053866Y-127759523D02*
X101958628Y-127807142D01*
X101958628Y-127807142D02*
X101911009Y-127854761D01*
X101911009Y-127854761D02*
X101863390Y-127949999D01*
X91152438Y-129501904D02*
X91104819Y-129597142D01*
X91104819Y-129597142D02*
X91104819Y-129739999D01*
X91104819Y-129739999D02*
X91152438Y-129882856D01*
X91152438Y-129882856D02*
X91247676Y-129978094D01*
X91247676Y-129978094D02*
X91342914Y-130025713D01*
X91342914Y-130025713D02*
X91533390Y-130073332D01*
X91533390Y-130073332D02*
X91676247Y-130073332D01*
X91676247Y-130073332D02*
X91866723Y-130025713D01*
X91866723Y-130025713D02*
X91961961Y-129978094D01*
X91961961Y-129978094D02*
X92057200Y-129882856D01*
X92057200Y-129882856D02*
X92104819Y-129739999D01*
X92104819Y-129739999D02*
X92104819Y-129644761D01*
X92104819Y-129644761D02*
X92057200Y-129501904D01*
X92057200Y-129501904D02*
X92009580Y-129454285D01*
X92009580Y-129454285D02*
X91676247Y-129454285D01*
X91676247Y-129454285D02*
X91676247Y-129644761D01*
X92104819Y-129025713D02*
X91104819Y-129025713D01*
X91104819Y-129025713D02*
X92104819Y-128454285D01*
X92104819Y-128454285D02*
X91104819Y-128454285D01*
X92104819Y-127978094D02*
X91104819Y-127978094D01*
X91104819Y-127978094D02*
X91104819Y-127739999D01*
X91104819Y-127739999D02*
X91152438Y-127597142D01*
X91152438Y-127597142D02*
X91247676Y-127501904D01*
X91247676Y-127501904D02*
X91342914Y-127454285D01*
X91342914Y-127454285D02*
X91533390Y-127406666D01*
X91533390Y-127406666D02*
X91676247Y-127406666D01*
X91676247Y-127406666D02*
X91866723Y-127454285D01*
X91866723Y-127454285D02*
X91961961Y-127501904D01*
X91961961Y-127501904D02*
X92057200Y-127597142D01*
X92057200Y-127597142D02*
X92104819Y-127739999D01*
X92104819Y-127739999D02*
X92104819Y-127978094D01*
X109071429Y-129543866D02*
X109833334Y-129543866D01*
X109452381Y-129924819D02*
X109452381Y-129162914D01*
X110214286Y-128924819D02*
X110833333Y-128924819D01*
X110833333Y-128924819D02*
X110500000Y-129305771D01*
X110500000Y-129305771D02*
X110642857Y-129305771D01*
X110642857Y-129305771D02*
X110738095Y-129353390D01*
X110738095Y-129353390D02*
X110785714Y-129401009D01*
X110785714Y-129401009D02*
X110833333Y-129496247D01*
X110833333Y-129496247D02*
X110833333Y-129734342D01*
X110833333Y-129734342D02*
X110785714Y-129829580D01*
X110785714Y-129829580D02*
X110738095Y-129877200D01*
X110738095Y-129877200D02*
X110642857Y-129924819D01*
X110642857Y-129924819D02*
X110357143Y-129924819D01*
X110357143Y-129924819D02*
X110261905Y-129877200D01*
X110261905Y-129877200D02*
X110214286Y-129829580D01*
X111119048Y-128924819D02*
X111452381Y-129924819D01*
X111452381Y-129924819D02*
X111785714Y-128924819D01*
X113404762Y-128972438D02*
X113309524Y-128924819D01*
X113309524Y-128924819D02*
X113166667Y-128924819D01*
X113166667Y-128924819D02*
X113023810Y-128972438D01*
X113023810Y-128972438D02*
X112928572Y-129067676D01*
X112928572Y-129067676D02*
X112880953Y-129162914D01*
X112880953Y-129162914D02*
X112833334Y-129353390D01*
X112833334Y-129353390D02*
X112833334Y-129496247D01*
X112833334Y-129496247D02*
X112880953Y-129686723D01*
X112880953Y-129686723D02*
X112928572Y-129781961D01*
X112928572Y-129781961D02*
X113023810Y-129877200D01*
X113023810Y-129877200D02*
X113166667Y-129924819D01*
X113166667Y-129924819D02*
X113261905Y-129924819D01*
X113261905Y-129924819D02*
X113404762Y-129877200D01*
X113404762Y-129877200D02*
X113452381Y-129829580D01*
X113452381Y-129829580D02*
X113452381Y-129496247D01*
X113452381Y-129496247D02*
X113261905Y-129496247D01*
X113880953Y-129924819D02*
X113880953Y-128924819D01*
X113880953Y-128924819D02*
X114261905Y-128924819D01*
X114261905Y-128924819D02*
X114357143Y-128972438D01*
X114357143Y-128972438D02*
X114404762Y-129020057D01*
X114404762Y-129020057D02*
X114452381Y-129115295D01*
X114452381Y-129115295D02*
X114452381Y-129258152D01*
X114452381Y-129258152D02*
X114404762Y-129353390D01*
X114404762Y-129353390D02*
X114357143Y-129401009D01*
X114357143Y-129401009D02*
X114261905Y-129448628D01*
X114261905Y-129448628D02*
X113880953Y-129448628D01*
X114880953Y-129924819D02*
X114880953Y-128924819D01*
X115547619Y-128924819D02*
X115738095Y-128924819D01*
X115738095Y-128924819D02*
X115833333Y-128972438D01*
X115833333Y-128972438D02*
X115928571Y-129067676D01*
X115928571Y-129067676D02*
X115976190Y-129258152D01*
X115976190Y-129258152D02*
X115976190Y-129591485D01*
X115976190Y-129591485D02*
X115928571Y-129781961D01*
X115928571Y-129781961D02*
X115833333Y-129877200D01*
X115833333Y-129877200D02*
X115738095Y-129924819D01*
X115738095Y-129924819D02*
X115547619Y-129924819D01*
X115547619Y-129924819D02*
X115452381Y-129877200D01*
X115452381Y-129877200D02*
X115357143Y-129781961D01*
X115357143Y-129781961D02*
X115309524Y-129591485D01*
X115309524Y-129591485D02*
X115309524Y-129258152D01*
X115309524Y-129258152D02*
X115357143Y-129067676D01*
X115357143Y-129067676D02*
X115452381Y-128972438D01*
X115452381Y-128972438D02*
X115547619Y-128924819D01*
X93864819Y-129928094D02*
X93864819Y-129309047D01*
X93864819Y-129309047D02*
X94245771Y-129642380D01*
X94245771Y-129642380D02*
X94245771Y-129499523D01*
X94245771Y-129499523D02*
X94293390Y-129404285D01*
X94293390Y-129404285D02*
X94341009Y-129356666D01*
X94341009Y-129356666D02*
X94436247Y-129309047D01*
X94436247Y-129309047D02*
X94674342Y-129309047D01*
X94674342Y-129309047D02*
X94769580Y-129356666D01*
X94769580Y-129356666D02*
X94817200Y-129404285D01*
X94817200Y-129404285D02*
X94864819Y-129499523D01*
X94864819Y-129499523D02*
X94864819Y-129785237D01*
X94864819Y-129785237D02*
X94817200Y-129880475D01*
X94817200Y-129880475D02*
X94769580Y-129928094D01*
X93864819Y-129023332D02*
X94864819Y-128689999D01*
X94864819Y-128689999D02*
X93864819Y-128356666D01*
X93864819Y-128118570D02*
X93864819Y-127499523D01*
X93864819Y-127499523D02*
X94245771Y-127832856D01*
X94245771Y-127832856D02*
X94245771Y-127689999D01*
X94245771Y-127689999D02*
X94293390Y-127594761D01*
X94293390Y-127594761D02*
X94341009Y-127547142D01*
X94341009Y-127547142D02*
X94436247Y-127499523D01*
X94436247Y-127499523D02*
X94674342Y-127499523D01*
X94674342Y-127499523D02*
X94769580Y-127547142D01*
X94769580Y-127547142D02*
X94817200Y-127594761D01*
X94817200Y-127594761D02*
X94864819Y-127689999D01*
X94864819Y-127689999D02*
X94864819Y-127975713D01*
X94864819Y-127975713D02*
X94817200Y-128070951D01*
X94817200Y-128070951D02*
X94769580Y-128118570D01*
X88464819Y-134730476D02*
X88464819Y-135206666D01*
X88464819Y-135206666D02*
X88941009Y-135254285D01*
X88941009Y-135254285D02*
X88893390Y-135206666D01*
X88893390Y-135206666D02*
X88845771Y-135111428D01*
X88845771Y-135111428D02*
X88845771Y-134873333D01*
X88845771Y-134873333D02*
X88893390Y-134778095D01*
X88893390Y-134778095D02*
X88941009Y-134730476D01*
X88941009Y-134730476D02*
X89036247Y-134682857D01*
X89036247Y-134682857D02*
X89274342Y-134682857D01*
X89274342Y-134682857D02*
X89369580Y-134730476D01*
X89369580Y-134730476D02*
X89417200Y-134778095D01*
X89417200Y-134778095D02*
X89464819Y-134873333D01*
X89464819Y-134873333D02*
X89464819Y-135111428D01*
X89464819Y-135111428D02*
X89417200Y-135206666D01*
X89417200Y-135206666D02*
X89369580Y-135254285D01*
X88464819Y-134397142D02*
X89464819Y-134063809D01*
X89464819Y-134063809D02*
X88464819Y-133730476D01*
X170584819Y-101668094D02*
X170584819Y-101096666D01*
X171584819Y-101382380D02*
X170584819Y-101382380D01*
X170584819Y-100858570D02*
X171584819Y-100191904D01*
X170584819Y-100191904D02*
X171584819Y-100858570D01*
X170680057Y-99858570D02*
X170632438Y-99810951D01*
X170632438Y-99810951D02*
X170584819Y-99715713D01*
X170584819Y-99715713D02*
X170584819Y-99477618D01*
X170584819Y-99477618D02*
X170632438Y-99382380D01*
X170632438Y-99382380D02*
X170680057Y-99334761D01*
X170680057Y-99334761D02*
X170775295Y-99287142D01*
X170775295Y-99287142D02*
X170870533Y-99287142D01*
X170870533Y-99287142D02*
X171013390Y-99334761D01*
X171013390Y-99334761D02*
X171584819Y-99906189D01*
X171584819Y-99906189D02*
X171584819Y-99287142D01*
X167384819Y-59911904D02*
X167384819Y-59340476D01*
X168384819Y-59626190D02*
X167384819Y-59626190D01*
X167384819Y-59102380D02*
X168384819Y-58435714D01*
X167384819Y-58435714D02*
X168384819Y-59102380D01*
X99732380Y-109574819D02*
X99399047Y-109098628D01*
X99160952Y-109574819D02*
X99160952Y-108574819D01*
X99160952Y-108574819D02*
X99541904Y-108574819D01*
X99541904Y-108574819D02*
X99637142Y-108622438D01*
X99637142Y-108622438D02*
X99684761Y-108670057D01*
X99684761Y-108670057D02*
X99732380Y-108765295D01*
X99732380Y-108765295D02*
X99732380Y-108908152D01*
X99732380Y-108908152D02*
X99684761Y-109003390D01*
X99684761Y-109003390D02*
X99637142Y-109051009D01*
X99637142Y-109051009D02*
X99541904Y-109098628D01*
X99541904Y-109098628D02*
X99160952Y-109098628D01*
X100113333Y-109527200D02*
X100256190Y-109574819D01*
X100256190Y-109574819D02*
X100494285Y-109574819D01*
X100494285Y-109574819D02*
X100589523Y-109527200D01*
X100589523Y-109527200D02*
X100637142Y-109479580D01*
X100637142Y-109479580D02*
X100684761Y-109384342D01*
X100684761Y-109384342D02*
X100684761Y-109289104D01*
X100684761Y-109289104D02*
X100637142Y-109193866D01*
X100637142Y-109193866D02*
X100589523Y-109146247D01*
X100589523Y-109146247D02*
X100494285Y-109098628D01*
X100494285Y-109098628D02*
X100303809Y-109051009D01*
X100303809Y-109051009D02*
X100208571Y-109003390D01*
X100208571Y-109003390D02*
X100160952Y-108955771D01*
X100160952Y-108955771D02*
X100113333Y-108860533D01*
X100113333Y-108860533D02*
X100113333Y-108765295D01*
X100113333Y-108765295D02*
X100160952Y-108670057D01*
X100160952Y-108670057D02*
X100208571Y-108622438D01*
X100208571Y-108622438D02*
X100303809Y-108574819D01*
X100303809Y-108574819D02*
X100541904Y-108574819D01*
X100541904Y-108574819D02*
X100684761Y-108622438D01*
X100970476Y-108574819D02*
X101541904Y-108574819D01*
X101256190Y-109574819D02*
X101256190Y-108574819D01*
X94524819Y-68166666D02*
X95239104Y-68166666D01*
X95239104Y-68166666D02*
X95381961Y-68214285D01*
X95381961Y-68214285D02*
X95477200Y-68309523D01*
X95477200Y-68309523D02*
X95524819Y-68452380D01*
X95524819Y-68452380D02*
X95524819Y-68547618D01*
X94524819Y-67833332D02*
X94524819Y-67261904D01*
X95524819Y-67547618D02*
X94524819Y-67547618D01*
X95239104Y-66976189D02*
X95239104Y-66499999D01*
X95524819Y-67071427D02*
X94524819Y-66738094D01*
X94524819Y-66738094D02*
X95524819Y-66404761D01*
X94572438Y-65547618D02*
X94524819Y-65642856D01*
X94524819Y-65642856D02*
X94524819Y-65785713D01*
X94524819Y-65785713D02*
X94572438Y-65928570D01*
X94572438Y-65928570D02*
X94667676Y-66023808D01*
X94667676Y-66023808D02*
X94762914Y-66071427D01*
X94762914Y-66071427D02*
X94953390Y-66119046D01*
X94953390Y-66119046D02*
X95096247Y-66119046D01*
X95096247Y-66119046D02*
X95286723Y-66071427D01*
X95286723Y-66071427D02*
X95381961Y-66023808D01*
X95381961Y-66023808D02*
X95477200Y-65928570D01*
X95477200Y-65928570D02*
X95524819Y-65785713D01*
X95524819Y-65785713D02*
X95524819Y-65690475D01*
X95524819Y-65690475D02*
X95477200Y-65547618D01*
X95477200Y-65547618D02*
X95429580Y-65499999D01*
X95429580Y-65499999D02*
X95096247Y-65499999D01*
X95096247Y-65499999D02*
X95096247Y-65690475D01*
X89936667Y-109134819D02*
X89936667Y-108134819D01*
X89936667Y-108134819D02*
X90317619Y-108134819D01*
X90317619Y-108134819D02*
X90412857Y-108182438D01*
X90412857Y-108182438D02*
X90460476Y-108230057D01*
X90460476Y-108230057D02*
X90508095Y-108325295D01*
X90508095Y-108325295D02*
X90508095Y-108468152D01*
X90508095Y-108468152D02*
X90460476Y-108563390D01*
X90460476Y-108563390D02*
X90412857Y-108611009D01*
X90412857Y-108611009D02*
X90317619Y-108658628D01*
X90317619Y-108658628D02*
X89936667Y-108658628D01*
X90841429Y-108134819D02*
X91079524Y-109134819D01*
X91079524Y-109134819D02*
X91270000Y-108420533D01*
X91270000Y-108420533D02*
X91460476Y-109134819D01*
X91460476Y-109134819D02*
X91698572Y-108134819D01*
X92650952Y-109134819D02*
X92317619Y-108658628D01*
X92079524Y-109134819D02*
X92079524Y-108134819D01*
X92079524Y-108134819D02*
X92460476Y-108134819D01*
X92460476Y-108134819D02*
X92555714Y-108182438D01*
X92555714Y-108182438D02*
X92603333Y-108230057D01*
X92603333Y-108230057D02*
X92650952Y-108325295D01*
X92650952Y-108325295D02*
X92650952Y-108468152D01*
X92650952Y-108468152D02*
X92603333Y-108563390D01*
X92603333Y-108563390D02*
X92555714Y-108611009D01*
X92555714Y-108611009D02*
X92460476Y-108658628D01*
X92460476Y-108658628D02*
X92079524Y-108658628D01*
X104136667Y-135284819D02*
X104136667Y-134284819D01*
X104136667Y-134284819D02*
X104517619Y-134284819D01*
X104517619Y-134284819D02*
X104612857Y-134332438D01*
X104612857Y-134332438D02*
X104660476Y-134380057D01*
X104660476Y-134380057D02*
X104708095Y-134475295D01*
X104708095Y-134475295D02*
X104708095Y-134618152D01*
X104708095Y-134618152D02*
X104660476Y-134713390D01*
X104660476Y-134713390D02*
X104612857Y-134761009D01*
X104612857Y-134761009D02*
X104517619Y-134808628D01*
X104517619Y-134808628D02*
X104136667Y-134808628D01*
X105041429Y-134284819D02*
X105279524Y-135284819D01*
X105279524Y-135284819D02*
X105470000Y-134570533D01*
X105470000Y-134570533D02*
X105660476Y-135284819D01*
X105660476Y-135284819D02*
X105898572Y-134284819D01*
X106850952Y-135284819D02*
X106517619Y-134808628D01*
X106279524Y-135284819D02*
X106279524Y-134284819D01*
X106279524Y-134284819D02*
X106660476Y-134284819D01*
X106660476Y-134284819D02*
X106755714Y-134332438D01*
X106755714Y-134332438D02*
X106803333Y-134380057D01*
X106803333Y-134380057D02*
X106850952Y-134475295D01*
X106850952Y-134475295D02*
X106850952Y-134618152D01*
X106850952Y-134618152D02*
X106803333Y-134713390D01*
X106803333Y-134713390D02*
X106755714Y-134761009D01*
X106755714Y-134761009D02*
X106660476Y-134808628D01*
X106660476Y-134808628D02*
X106279524Y-134808628D01*
X99724819Y-129499047D02*
X99724819Y-130070475D01*
X99724819Y-129784761D02*
X98724819Y-129784761D01*
X98724819Y-129784761D02*
X98867676Y-129879999D01*
X98867676Y-129879999D02*
X98962914Y-129975237D01*
X98962914Y-129975237D02*
X99010533Y-130070475D01*
X98724819Y-129213332D02*
X99724819Y-128879999D01*
X99724819Y-128879999D02*
X98724819Y-128546666D01*
X98724819Y-128022856D02*
X98724819Y-127927618D01*
X98724819Y-127927618D02*
X98772438Y-127832380D01*
X98772438Y-127832380D02*
X98820057Y-127784761D01*
X98820057Y-127784761D02*
X98915295Y-127737142D01*
X98915295Y-127737142D02*
X99105771Y-127689523D01*
X99105771Y-127689523D02*
X99343866Y-127689523D01*
X99343866Y-127689523D02*
X99534342Y-127737142D01*
X99534342Y-127737142D02*
X99629580Y-127784761D01*
X99629580Y-127784761D02*
X99677200Y-127832380D01*
X99677200Y-127832380D02*
X99724819Y-127927618D01*
X99724819Y-127927618D02*
X99724819Y-128022856D01*
X99724819Y-128022856D02*
X99677200Y-128118094D01*
X99677200Y-128118094D02*
X99629580Y-128165713D01*
X99629580Y-128165713D02*
X99534342Y-128213332D01*
X99534342Y-128213332D02*
X99343866Y-128260951D01*
X99343866Y-128260951D02*
X99105771Y-128260951D01*
X99105771Y-128260951D02*
X98915295Y-128213332D01*
X98915295Y-128213332D02*
X98820057Y-128165713D01*
X98820057Y-128165713D02*
X98772438Y-128118094D01*
X98772438Y-128118094D02*
X98724819Y-128022856D01*
X167974819Y-78186666D02*
X167498628Y-78519999D01*
X167974819Y-78758094D02*
X166974819Y-78758094D01*
X166974819Y-78758094D02*
X166974819Y-78377142D01*
X166974819Y-78377142D02*
X167022438Y-78281904D01*
X167022438Y-78281904D02*
X167070057Y-78234285D01*
X167070057Y-78234285D02*
X167165295Y-78186666D01*
X167165295Y-78186666D02*
X167308152Y-78186666D01*
X167308152Y-78186666D02*
X167403390Y-78234285D01*
X167403390Y-78234285D02*
X167451009Y-78281904D01*
X167451009Y-78281904D02*
X167498628Y-78377142D01*
X167498628Y-78377142D02*
X167498628Y-78758094D01*
X166974819Y-77853332D02*
X167974819Y-77186666D01*
X166974819Y-77186666D02*
X167974819Y-77853332D01*
X97484819Y-130058094D02*
X96484819Y-130058094D01*
X96484819Y-130058094D02*
X96484819Y-129819999D01*
X96484819Y-129819999D02*
X96532438Y-129677142D01*
X96532438Y-129677142D02*
X96627676Y-129581904D01*
X96627676Y-129581904D02*
X96722914Y-129534285D01*
X96722914Y-129534285D02*
X96913390Y-129486666D01*
X96913390Y-129486666D02*
X97056247Y-129486666D01*
X97056247Y-129486666D02*
X97246723Y-129534285D01*
X97246723Y-129534285D02*
X97341961Y-129581904D01*
X97341961Y-129581904D02*
X97437200Y-129677142D01*
X97437200Y-129677142D02*
X97484819Y-129819999D01*
X97484819Y-129819999D02*
X97484819Y-130058094D01*
X97484819Y-129058094D02*
X96484819Y-129058094D01*
X96484819Y-129058094D02*
X96484819Y-128819999D01*
X96484819Y-128819999D02*
X96532438Y-128677142D01*
X96532438Y-128677142D02*
X96627676Y-128581904D01*
X96627676Y-128581904D02*
X96722914Y-128534285D01*
X96722914Y-128534285D02*
X96913390Y-128486666D01*
X96913390Y-128486666D02*
X97056247Y-128486666D01*
X97056247Y-128486666D02*
X97246723Y-128534285D01*
X97246723Y-128534285D02*
X97341961Y-128581904D01*
X97341961Y-128581904D02*
X97437200Y-128677142D01*
X97437200Y-128677142D02*
X97484819Y-128819999D01*
X97484819Y-128819999D02*
X97484819Y-129058094D01*
X97484819Y-127486666D02*
X97008628Y-127819999D01*
X97484819Y-128058094D02*
X96484819Y-128058094D01*
X96484819Y-128058094D02*
X96484819Y-127677142D01*
X96484819Y-127677142D02*
X96532438Y-127581904D01*
X96532438Y-127581904D02*
X96580057Y-127534285D01*
X96580057Y-127534285D02*
X96675295Y-127486666D01*
X96675295Y-127486666D02*
X96818152Y-127486666D01*
X96818152Y-127486666D02*
X96913390Y-127534285D01*
X96913390Y-127534285D02*
X96961009Y-127581904D01*
X96961009Y-127581904D02*
X97008628Y-127677142D01*
X97008628Y-127677142D02*
X97008628Y-128058094D01*
X96484819Y-127153332D02*
X96484819Y-126534285D01*
X96484819Y-126534285D02*
X96865771Y-126867618D01*
X96865771Y-126867618D02*
X96865771Y-126724761D01*
X96865771Y-126724761D02*
X96913390Y-126629523D01*
X96913390Y-126629523D02*
X96961009Y-126581904D01*
X96961009Y-126581904D02*
X97056247Y-126534285D01*
X97056247Y-126534285D02*
X97294342Y-126534285D01*
X97294342Y-126534285D02*
X97389580Y-126581904D01*
X97389580Y-126581904D02*
X97437200Y-126629523D01*
X97437200Y-126629523D02*
X97484819Y-126724761D01*
X97484819Y-126724761D02*
X97484819Y-127010475D01*
X97484819Y-127010475D02*
X97437200Y-127105713D01*
X97437200Y-127105713D02*
X97389580Y-127153332D01*
X127185714Y-78864819D02*
X127185714Y-79674342D01*
X127185714Y-79674342D02*
X127233333Y-79769580D01*
X127233333Y-79769580D02*
X127280952Y-79817200D01*
X127280952Y-79817200D02*
X127376190Y-79864819D01*
X127376190Y-79864819D02*
X127566666Y-79864819D01*
X127566666Y-79864819D02*
X127661904Y-79817200D01*
X127661904Y-79817200D02*
X127709523Y-79769580D01*
X127709523Y-79769580D02*
X127757142Y-79674342D01*
X127757142Y-79674342D02*
X127757142Y-78864819D01*
X128185714Y-78960057D02*
X128233333Y-78912438D01*
X128233333Y-78912438D02*
X128328571Y-78864819D01*
X128328571Y-78864819D02*
X128566666Y-78864819D01*
X128566666Y-78864819D02*
X128661904Y-78912438D01*
X128661904Y-78912438D02*
X128709523Y-78960057D01*
X128709523Y-78960057D02*
X128757142Y-79055295D01*
X128757142Y-79055295D02*
X128757142Y-79150533D01*
X128757142Y-79150533D02*
X128709523Y-79293390D01*
X128709523Y-79293390D02*
X128138095Y-79864819D01*
X128138095Y-79864819D02*
X128757142Y-79864819D01*
X129376190Y-78864819D02*
X129471428Y-78864819D01*
X129471428Y-78864819D02*
X129566666Y-78912438D01*
X129566666Y-78912438D02*
X129614285Y-78960057D01*
X129614285Y-78960057D02*
X129661904Y-79055295D01*
X129661904Y-79055295D02*
X129709523Y-79245771D01*
X129709523Y-79245771D02*
X129709523Y-79483866D01*
X129709523Y-79483866D02*
X129661904Y-79674342D01*
X129661904Y-79674342D02*
X129614285Y-79769580D01*
X129614285Y-79769580D02*
X129566666Y-79817200D01*
X129566666Y-79817200D02*
X129471428Y-79864819D01*
X129471428Y-79864819D02*
X129376190Y-79864819D01*
X129376190Y-79864819D02*
X129280952Y-79817200D01*
X129280952Y-79817200D02*
X129233333Y-79769580D01*
X129233333Y-79769580D02*
X129185714Y-79674342D01*
X129185714Y-79674342D02*
X129138095Y-79483866D01*
X129138095Y-79483866D02*
X129138095Y-79245771D01*
X129138095Y-79245771D02*
X129185714Y-79055295D01*
X129185714Y-79055295D02*
X129233333Y-78960057D01*
X129233333Y-78960057D02*
X129280952Y-78912438D01*
X129280952Y-78912438D02*
X129376190Y-78864819D01*
X130090476Y-78960057D02*
X130138095Y-78912438D01*
X130138095Y-78912438D02*
X130233333Y-78864819D01*
X130233333Y-78864819D02*
X130471428Y-78864819D01*
X130471428Y-78864819D02*
X130566666Y-78912438D01*
X130566666Y-78912438D02*
X130614285Y-78960057D01*
X130614285Y-78960057D02*
X130661904Y-79055295D01*
X130661904Y-79055295D02*
X130661904Y-79150533D01*
X130661904Y-79150533D02*
X130614285Y-79293390D01*
X130614285Y-79293390D02*
X130042857Y-79864819D01*
X130042857Y-79864819D02*
X130661904Y-79864819D01*
X154266800Y-92114189D02*
X154266800Y-92352284D01*
X154028705Y-92257046D02*
X154266800Y-92352284D01*
X154266800Y-92352284D02*
X154504895Y-92257046D01*
X154123943Y-92542760D02*
X154266800Y-92352284D01*
X154266800Y-92352284D02*
X154409657Y-92542760D01*
X154266800Y-92114189D02*
X154266800Y-92352284D01*
X154028705Y-92257046D02*
X154266800Y-92352284D01*
X154266800Y-92352284D02*
X154504895Y-92257046D01*
X154123943Y-92542760D02*
X154266800Y-92352284D01*
X154266800Y-92352284D02*
X154409657Y-92542760D01*
X164144819Y-106119047D02*
X164144819Y-106690475D01*
X164144819Y-106404761D02*
X163144819Y-106404761D01*
X163144819Y-106404761D02*
X163287676Y-106499999D01*
X163287676Y-106499999D02*
X163382914Y-106595237D01*
X163382914Y-106595237D02*
X163430533Y-106690475D01*
X163144819Y-105833332D02*
X164144819Y-105499999D01*
X164144819Y-105499999D02*
X163144819Y-105166666D01*
X163573390Y-104690475D02*
X163525771Y-104785713D01*
X163525771Y-104785713D02*
X163478152Y-104833332D01*
X163478152Y-104833332D02*
X163382914Y-104880951D01*
X163382914Y-104880951D02*
X163335295Y-104880951D01*
X163335295Y-104880951D02*
X163240057Y-104833332D01*
X163240057Y-104833332D02*
X163192438Y-104785713D01*
X163192438Y-104785713D02*
X163144819Y-104690475D01*
X163144819Y-104690475D02*
X163144819Y-104499999D01*
X163144819Y-104499999D02*
X163192438Y-104404761D01*
X163192438Y-104404761D02*
X163240057Y-104357142D01*
X163240057Y-104357142D02*
X163335295Y-104309523D01*
X163335295Y-104309523D02*
X163382914Y-104309523D01*
X163382914Y-104309523D02*
X163478152Y-104357142D01*
X163478152Y-104357142D02*
X163525771Y-104404761D01*
X163525771Y-104404761D02*
X163573390Y-104499999D01*
X163573390Y-104499999D02*
X163573390Y-104690475D01*
X163573390Y-104690475D02*
X163621009Y-104785713D01*
X163621009Y-104785713D02*
X163668628Y-104833332D01*
X163668628Y-104833332D02*
X163763866Y-104880951D01*
X163763866Y-104880951D02*
X163954342Y-104880951D01*
X163954342Y-104880951D02*
X164049580Y-104833332D01*
X164049580Y-104833332D02*
X164097200Y-104785713D01*
X164097200Y-104785713D02*
X164144819Y-104690475D01*
X164144819Y-104690475D02*
X164144819Y-104499999D01*
X164144819Y-104499999D02*
X164097200Y-104404761D01*
X164097200Y-104404761D02*
X164049580Y-104357142D01*
X164049580Y-104357142D02*
X163954342Y-104309523D01*
X163954342Y-104309523D02*
X163763866Y-104309523D01*
X163763866Y-104309523D02*
X163668628Y-104357142D01*
X163668628Y-104357142D02*
X163621009Y-104404761D01*
X163621009Y-104404761D02*
X163573390Y-104499999D01*
X168854819Y-106281904D02*
X168854819Y-105662857D01*
X168854819Y-105662857D02*
X169235771Y-105996190D01*
X169235771Y-105996190D02*
X169235771Y-105853333D01*
X169235771Y-105853333D02*
X169283390Y-105758095D01*
X169283390Y-105758095D02*
X169331009Y-105710476D01*
X169331009Y-105710476D02*
X169426247Y-105662857D01*
X169426247Y-105662857D02*
X169664342Y-105662857D01*
X169664342Y-105662857D02*
X169759580Y-105710476D01*
X169759580Y-105710476D02*
X169807200Y-105758095D01*
X169807200Y-105758095D02*
X169854819Y-105853333D01*
X169854819Y-105853333D02*
X169854819Y-106139047D01*
X169854819Y-106139047D02*
X169807200Y-106234285D01*
X169807200Y-106234285D02*
X169759580Y-106281904D01*
X168854819Y-105377142D02*
X169854819Y-105043809D01*
X169854819Y-105043809D02*
X168854819Y-104710476D01*
X167906667Y-80294819D02*
X168525714Y-80294819D01*
X168525714Y-80294819D02*
X168192381Y-80675771D01*
X168192381Y-80675771D02*
X168335238Y-80675771D01*
X168335238Y-80675771D02*
X168430476Y-80723390D01*
X168430476Y-80723390D02*
X168478095Y-80771009D01*
X168478095Y-80771009D02*
X168525714Y-80866247D01*
X168525714Y-80866247D02*
X168525714Y-81104342D01*
X168525714Y-81104342D02*
X168478095Y-81199580D01*
X168478095Y-81199580D02*
X168430476Y-81247200D01*
X168430476Y-81247200D02*
X168335238Y-81294819D01*
X168335238Y-81294819D02*
X168049524Y-81294819D01*
X168049524Y-81294819D02*
X167954286Y-81247200D01*
X167954286Y-81247200D02*
X167906667Y-81199580D01*
X163325714Y-81294819D02*
X162754286Y-81294819D01*
X163040000Y-81294819D02*
X163040000Y-80294819D01*
X163040000Y-80294819D02*
X162944762Y-80437676D01*
X162944762Y-80437676D02*
X162849524Y-80532914D01*
X162849524Y-80532914D02*
X162754286Y-80580533D01*
D11*
%TO.C,C1445*%
X93360000Y-115388748D02*
X93360000Y-116811252D01*
X90640000Y-115388748D02*
X90640000Y-116811252D01*
%TO.C,C1444*%
X96560000Y-115388748D02*
X96560000Y-116811252D01*
X93840000Y-115388748D02*
X93840000Y-116811252D01*
%TO.C,C1007*%
X105815000Y-53438748D02*
X105815000Y-53961252D01*
X104345000Y-53438748D02*
X104345000Y-53961252D01*
%TO.C,C1402*%
X109535000Y-121778748D02*
X109535000Y-122301252D01*
X111005000Y-121778748D02*
X111005000Y-122301252D01*
%TO.C,C1427*%
X125245000Y-116018748D02*
X125245000Y-116541252D01*
X126715000Y-116018748D02*
X126715000Y-116541252D01*
%TO.C,C603*%
X145386252Y-115240000D02*
X143963748Y-115240000D01*
X145386252Y-117960000D02*
X143963748Y-117960000D01*
%TO.C,R813*%
X157830000Y-76393641D02*
X157830000Y-76086359D01*
X158590000Y-76393641D02*
X158590000Y-76086359D01*
%TO.C,L1403*%
X142840000Y-125340000D02*
X148760000Y-125340000D01*
X142840000Y-126890000D02*
X142840000Y-125340000D01*
X142840000Y-130760000D02*
X142840000Y-129210000D01*
X148760000Y-125340000D02*
X148760000Y-126890000D01*
X148760000Y-129210000D02*
X148760000Y-130760000D01*
X148760000Y-130760000D02*
X142840000Y-130760000D01*
%TO.C,R1207*%
X153270000Y-121353641D02*
X153270000Y-121046359D01*
X154030000Y-121353641D02*
X154030000Y-121046359D01*
%TO.C,Q1101*%
X142565000Y-57005000D02*
X142565000Y-56205000D01*
X142565000Y-57005000D02*
X142565000Y-57805000D01*
X144420000Y-56990000D02*
X144420000Y-56190000D01*
X144420000Y-56990000D02*
X144420000Y-57790000D01*
X144920000Y-56570000D02*
X144590000Y-56330000D01*
X144920000Y-56090000D01*
X144920000Y-56570000D01*
G36*
X144920000Y-56570000D02*
G01*
X144590000Y-56330000D01*
X144920000Y-56090000D01*
X144920000Y-56570000D01*
G37*
%TO.C,D1302*%
X152625000Y-79300000D02*
X152625000Y-81220000D01*
X152625000Y-81220000D02*
X155310000Y-81220000D01*
X155310000Y-79300000D02*
X152625000Y-79300000D01*
%TO.C,C703*%
X119812164Y-52940000D02*
X120027836Y-52940000D01*
X119812164Y-53660000D02*
X120027836Y-53660000D01*
%TO.C,R708*%
X111776359Y-43180000D02*
X112083641Y-43180000D01*
X111776359Y-43940000D02*
X112083641Y-43940000D01*
%TO.C,R1208*%
X152170000Y-119396359D02*
X152170000Y-119703641D01*
X152930000Y-119396359D02*
X152930000Y-119703641D01*
%TO.C,R833*%
X165000000Y-59413641D02*
X165000000Y-59106359D01*
X165760000Y-59413641D02*
X165760000Y-59106359D01*
%TO.C,C1446*%
X103015000Y-115988748D02*
X103015000Y-116511252D01*
X104485000Y-115988748D02*
X104485000Y-116511252D01*
%TO.C,C538*%
X107497836Y-85810000D02*
X107282164Y-85810000D01*
X107497836Y-86530000D02*
X107282164Y-86530000D01*
%TO.C,R1409*%
X129670000Y-124626359D02*
X129670000Y-124933641D01*
X130430000Y-124626359D02*
X130430000Y-124933641D01*
%TO.C,C517*%
X109207836Y-71200000D02*
X108992164Y-71200000D01*
X109207836Y-71920000D02*
X108992164Y-71920000D01*
%TO.C,R1202*%
X166846359Y-120830000D02*
X167153641Y-120830000D01*
X166846359Y-121590000D02*
X167153641Y-121590000D01*
%TO.C,D1401*%
X119760000Y-105780000D02*
X119760000Y-108465000D01*
X119760000Y-108465000D02*
X121680000Y-108465000D01*
X121680000Y-108465000D02*
X121680000Y-105780000D01*
%TO.C,C532*%
X96047836Y-97450000D02*
X95832164Y-97450000D01*
X96047836Y-98170000D02*
X95832164Y-98170000D01*
%TO.C,R1721*%
X157126359Y-100020000D02*
X157433641Y-100020000D01*
X157126359Y-100780000D02*
X157433641Y-100780000D01*
%TO.C,C527*%
X92300000Y-72122164D02*
X92300000Y-72337836D01*
X93020000Y-72122164D02*
X93020000Y-72337836D01*
%TO.C,R1730*%
X161060000Y-101853641D02*
X161060000Y-101546359D01*
X161820000Y-101853641D02*
X161820000Y-101546359D01*
%TO.C,R1203*%
X164983641Y-120680000D02*
X164676359Y-120680000D01*
X164983641Y-121440000D02*
X164676359Y-121440000D01*
%TO.C,C519*%
X99967836Y-70960000D02*
X99752164Y-70960000D01*
X99967836Y-71680000D02*
X99752164Y-71680000D01*
D10*
%TO.C,U1403*%
X137785000Y-125365002D02*
X138034999Y-125365002D01*
X137785000Y-125615001D02*
X137785000Y-125365002D01*
X137785000Y-129815000D02*
X137785000Y-129565001D01*
X137785000Y-129815000D02*
X138034999Y-129815000D01*
X140985001Y-125365002D02*
X141235000Y-125365002D01*
X140985001Y-129815000D02*
X141235000Y-129815000D01*
X141235000Y-125615001D02*
X141235000Y-125365002D01*
X141235000Y-129815000D02*
X141235000Y-129565001D01*
D12*
X137585000Y-126090001D02*
G75*
G02*
X137334998Y-126090001I-125001J0D01*
G01*
X137334998Y-126090001D02*
G75*
G02*
X137585000Y-126090001I125001J0D01*
G01*
D11*
%TO.C,L1101*%
X128219420Y-54120000D02*
X128500580Y-54120000D01*
X128219420Y-55140000D02*
X128500580Y-55140000D01*
%TO.C,C536*%
X92730000Y-88062164D02*
X92730000Y-88277836D01*
X93450000Y-88062164D02*
X93450000Y-88277836D01*
%TO.C,R206*%
X122769940Y-77887341D02*
X122552659Y-77670060D01*
X123307341Y-77349940D02*
X123090060Y-77132659D01*
%TO.C,R805*%
X164300000Y-54146359D02*
X164300000Y-54453641D01*
X165060000Y-54146359D02*
X165060000Y-54453641D01*
%TO.C,C1116*%
X136002164Y-62010000D02*
X136217836Y-62010000D01*
X136002164Y-62730000D02*
X136217836Y-62730000D01*
%TO.C,C502*%
X105897836Y-84690000D02*
X105682164Y-84690000D01*
X105897836Y-85410000D02*
X105682164Y-85410000D01*
%TO.C,C525*%
X108752164Y-82650000D02*
X108967836Y-82650000D01*
X108752164Y-83370000D02*
X108967836Y-83370000D01*
%TO.C,C1441*%
X100775000Y-125398748D02*
X100775000Y-125921252D01*
X102245000Y-125398748D02*
X102245000Y-125921252D01*
%TO.C,C1102*%
X138590000Y-64717836D02*
X138590000Y-64502164D01*
X139310000Y-64717836D02*
X139310000Y-64502164D01*
%TO.C,C542*%
X91418748Y-103540000D02*
X92841252Y-103540000D01*
X91418748Y-106260000D02*
X92841252Y-106260000D01*
%TO.C,R712*%
X112233641Y-47880000D02*
X111926359Y-47880000D01*
X112233641Y-48640000D02*
X111926359Y-48640000D01*
%TO.C,R718*%
X125436359Y-44520000D02*
X125743641Y-44520000D01*
X125436359Y-45280000D02*
X125743641Y-45280000D01*
%TO.C,R804*%
X164319940Y-57667341D02*
X164102659Y-57450060D01*
X164857341Y-57129940D02*
X164640060Y-56912659D01*
%TO.C,C901*%
X149821693Y-50119190D02*
X149669190Y-50271693D01*
X150330810Y-50628307D02*
X150178307Y-50780810D01*
%TO.C,R203*%
X97796359Y-64870000D02*
X98103641Y-64870000D01*
X97796359Y-65630000D02*
X98103641Y-65630000D01*
%TO.C,C1707*%
X158010000Y-102207836D02*
X158010000Y-101992164D01*
X158730000Y-102207836D02*
X158730000Y-101992164D01*
%TO.C,R1608*%
X133628391Y-102004750D02*
X133321109Y-102004750D01*
X133628391Y-102764750D02*
X133321109Y-102764750D01*
%TO.C,R818*%
X152653641Y-57640000D02*
X152346359Y-57640000D01*
X152653641Y-58400000D02*
X152346359Y-58400000D01*
%TO.C,C1411*%
X140337836Y-124510000D02*
X140122164Y-124510000D01*
X140337836Y-125230000D02*
X140122164Y-125230000D01*
%TO.C,U202*%
X120290000Y-97520000D02*
X120290000Y-81300000D01*
X121290000Y-80300000D02*
X137510000Y-80300000D01*
X137510000Y-80300000D02*
X137510000Y-97520000D01*
X137510000Y-97520000D02*
X120290000Y-97520000D01*
X120290000Y-80300000D02*
X119790000Y-80300000D01*
X120290000Y-79800000D01*
X120290000Y-80300000D01*
G36*
X120290000Y-80300000D02*
G01*
X119790000Y-80300000D01*
X120290000Y-79800000D01*
X120290000Y-80300000D01*
G37*
%TO.C,C1702*%
X154797836Y-98450000D02*
X154582164Y-98450000D01*
X154797836Y-99170000D02*
X154582164Y-99170000D01*
D13*
%TO.C,U1701*%
X155079600Y-98081000D02*
X155800071Y-98081000D01*
X155800071Y-92239000D02*
X155079600Y-92239000D01*
X158219929Y-98081000D02*
X158940400Y-98081000D01*
X158940400Y-92239000D02*
X158219929Y-92239000D01*
D14*
G36*
X154647800Y-97601067D02*
G01*
X154393800Y-97601067D01*
X154393800Y-97220067D01*
X154647800Y-97220067D01*
X154647800Y-97601067D01*
G37*
G36*
X159626200Y-95100437D02*
G01*
X159372200Y-95100437D01*
X159372200Y-94719437D01*
X159626200Y-94719437D01*
X159626200Y-95100437D01*
G37*
D11*
%TO.C,C1401*%
X139741252Y-122655000D02*
X139218748Y-122655000D01*
X139741252Y-124125000D02*
X139218748Y-124125000D01*
%TO.C,C1606*%
X167370000Y-108428748D02*
X167370000Y-109851252D01*
X170090000Y-108428748D02*
X170090000Y-109851252D01*
%TO.C,R1728*%
X155996359Y-89270000D02*
X156303641Y-89270000D01*
X155996359Y-90030000D02*
X156303641Y-90030000D01*
%TO.C,C529*%
X97377836Y-70650000D02*
X97162164Y-70650000D01*
X97377836Y-71370000D02*
X97162164Y-71370000D01*
%TO.C,C803*%
X162795010Y-67155543D02*
X162425543Y-67525010D01*
X163834457Y-68194990D02*
X163464990Y-68564457D01*
%TO.C,Q1401*%
X115210000Y-105540000D02*
X115210000Y-104890000D01*
X115210000Y-105540000D02*
X115210000Y-106190000D01*
X118330000Y-105540000D02*
X118330000Y-104890000D01*
X118330000Y-105540000D02*
X118330000Y-106190000D01*
X118610000Y-104617500D02*
X118280000Y-104377500D01*
X118610000Y-104137500D01*
X118610000Y-104617500D01*
G36*
X118610000Y-104617500D02*
G01*
X118280000Y-104377500D01*
X118610000Y-104137500D01*
X118610000Y-104617500D01*
G37*
%TO.C,C1451*%
X145411252Y-120240000D02*
X143988748Y-120240000D01*
X145411252Y-122960000D02*
X143988748Y-122960000D01*
%TO.C,J1302*%
X152950000Y-130950000D02*
X154280000Y-130950000D01*
X152950000Y-132060000D02*
X152950000Y-130950000D01*
X152950000Y-136060000D02*
X165770000Y-136060000D01*
X153920000Y-133550000D02*
X153920000Y-133170000D01*
X153920000Y-136060000D02*
X153920000Y-135650000D01*
X154640000Y-133550000D02*
X154640000Y-133170000D01*
X154640000Y-136060000D02*
X154640000Y-135650000D01*
X156460000Y-133550000D02*
X156460000Y-133110000D01*
X156460000Y-136060000D02*
X156460000Y-135650000D01*
X157180000Y-133550000D02*
X157180000Y-133110000D01*
X157180000Y-136060000D02*
X157180000Y-135650000D01*
X159000000Y-133550000D02*
X159000000Y-133110000D01*
X159000000Y-136060000D02*
X159000000Y-135650000D01*
X159720000Y-133550000D02*
X159720000Y-133110000D01*
X159720000Y-136060000D02*
X159720000Y-135650000D01*
X161540000Y-133550000D02*
X161540000Y-133110000D01*
X161540000Y-136060000D02*
X161540000Y-135650000D01*
X162260000Y-133550000D02*
X162260000Y-133110000D01*
X162260000Y-136060000D02*
X162260000Y-135650000D01*
X164080000Y-133550000D02*
X164080000Y-133110000D01*
X164080000Y-136060000D02*
X164080000Y-135650000D01*
X164800000Y-133550000D02*
X164800000Y-133110000D01*
X164800000Y-136060000D02*
X164800000Y-135650000D01*
%TO.C,C544*%
X84607836Y-97440000D02*
X84392164Y-97440000D01*
X84607836Y-98160000D02*
X84392164Y-98160000D01*
%TO.C,R1420*%
X99510000Y-124526359D02*
X99510000Y-124833641D01*
X100270000Y-124526359D02*
X100270000Y-124833641D01*
%TO.C,R1413*%
X136493641Y-127690000D02*
X136186359Y-127690000D01*
X136493641Y-128450000D02*
X136186359Y-128450000D01*
%TO.C,C632*%
X115620000Y-75048748D02*
X115620000Y-76471252D01*
X118340000Y-75048748D02*
X118340000Y-76471252D01*
%TO.C,R1601*%
X138803641Y-101160000D02*
X138496359Y-101160000D01*
X138803641Y-101920000D02*
X138496359Y-101920000D01*
%TO.C,J1001*%
X88120000Y-32450000D02*
X88120000Y-32970000D01*
X88120000Y-32970000D02*
X88890000Y-32970000D01*
X88890000Y-41080000D02*
X88890000Y-32970000D01*
X88890000Y-46670000D02*
X88890000Y-44600000D01*
X91200000Y-46670000D02*
X88890000Y-46670000D01*
X93700000Y-46660000D02*
X92880000Y-46660000D01*
X95720000Y-46660000D02*
X95380000Y-46660000D01*
X98220000Y-46660000D02*
X97400000Y-46660000D01*
X99900000Y-47960000D02*
X99900000Y-46670000D01*
X102210000Y-32970000D02*
X102210000Y-41080000D01*
X102210000Y-32970000D02*
X102980000Y-32970000D01*
X102210000Y-46670000D02*
X99900000Y-46670000D01*
X102210000Y-46670000D02*
X102210000Y-44600000D01*
X102980000Y-32450000D02*
X88120000Y-32450000D01*
X102980000Y-32970000D02*
X102980000Y-32450000D01*
%TO.C,C1439*%
X102030000Y-120742164D02*
X102030000Y-120957836D01*
X102750000Y-120742164D02*
X102750000Y-120957836D01*
%TO.C,C1403*%
X133235000Y-121488748D02*
X133235000Y-122011252D01*
X134705000Y-121488748D02*
X134705000Y-122011252D01*
%TO.C,R1718*%
X148870000Y-94056359D02*
X148870000Y-94363641D01*
X149630000Y-94056359D02*
X149630000Y-94363641D01*
D15*
%TO.C,U1101*%
X128422500Y-58615000D02*
X128422500Y-59090000D01*
X128422500Y-61265000D02*
X128422500Y-60390000D01*
X128422500Y-61265000D02*
X131397500Y-61265000D01*
X128897500Y-58615000D02*
X128422500Y-58615000D01*
X131397500Y-58615000D02*
X129972500Y-58615000D01*
X131397500Y-58615000D02*
X131397500Y-61265000D01*
D11*
%TO.C,R711*%
X108653641Y-53880000D02*
X108346359Y-53880000D01*
X108653641Y-53120000D02*
X108346359Y-53120000D01*
%TO.C,C302*%
X127241252Y-104880000D02*
X125818748Y-104880000D01*
X127241252Y-107600000D02*
X125818748Y-107600000D01*
%TO.C,C522*%
X97997836Y-85720000D02*
X97782164Y-85720000D01*
X97997836Y-86440000D02*
X97782164Y-86440000D01*
%TO.C,C1117*%
X137540000Y-64717836D02*
X137540000Y-64502164D01*
X138260000Y-64717836D02*
X138260000Y-64502164D01*
%TO.C,R1717*%
X149950000Y-96233641D02*
X149950000Y-95926359D01*
X150710000Y-96233641D02*
X150710000Y-95926359D01*
%TO.C,C540*%
X85711252Y-106290000D02*
X84288748Y-106290000D01*
X85711252Y-109010000D02*
X84288748Y-109010000D01*
%TO.C,C507*%
X105642164Y-71030000D02*
X105857836Y-71030000D01*
X105642164Y-71750000D02*
X105857836Y-71750000D01*
%TO.C,C1434*%
X145561252Y-123445000D02*
X145038748Y-123445000D01*
X145561252Y-124915000D02*
X145038748Y-124915000D01*
%TO.C,C1419*%
X128892164Y-118990000D02*
X129107836Y-118990000D01*
X128892164Y-119710000D02*
X129107836Y-119710000D01*
%TO.C,R710*%
X111736359Y-45330000D02*
X112043641Y-45330000D01*
X111736359Y-46090000D02*
X112043641Y-46090000D01*
%TO.C,R702*%
X109900000Y-46096359D02*
X109900000Y-46403641D01*
X110660000Y-46096359D02*
X110660000Y-46403641D01*
%TO.C,R220*%
X98103641Y-63920000D02*
X97796359Y-63920000D01*
X98103641Y-64680000D02*
X97796359Y-64680000D01*
%TO.C,R1303*%
X160446359Y-79890000D02*
X160753641Y-79890000D01*
X160446359Y-80650000D02*
X160753641Y-80650000D01*
%TO.C,C702*%
X112767836Y-50230000D02*
X112552164Y-50230000D01*
X112767836Y-50950000D02*
X112552164Y-50950000D01*
%TO.C,R1201*%
X165003641Y-121700000D02*
X164696359Y-121700000D01*
X165003641Y-122460000D02*
X164696359Y-122460000D01*
%TO.C,C713*%
X125147836Y-38170000D02*
X124932164Y-38170000D01*
X125147836Y-38890000D02*
X124932164Y-38890000D01*
%TO.C,C1703*%
X152950000Y-90417836D02*
X152950000Y-90202164D01*
X153670000Y-90417836D02*
X153670000Y-90202164D01*
%TO.C,R221*%
X100653641Y-64020000D02*
X100346359Y-64020000D01*
X100653641Y-64780000D02*
X100346359Y-64780000D01*
%TO.C,C1704*%
X153950000Y-90417836D02*
X153950000Y-90202164D01*
X154670000Y-90417836D02*
X154670000Y-90202164D01*
%TO.C,R1507*%
X144740000Y-86403641D02*
X144740000Y-86096359D01*
X145500000Y-86403641D02*
X145500000Y-86096359D01*
%TO.C,C539*%
X105602164Y-69850000D02*
X105817836Y-69850000D01*
X105602164Y-70570000D02*
X105817836Y-70570000D01*
%TO.C,C813*%
X164912164Y-69390000D02*
X165127836Y-69390000D01*
X164912164Y-70110000D02*
X165127836Y-70110000D01*
%TO.C,R1726*%
X157236359Y-87350000D02*
X157543641Y-87350000D01*
X157236359Y-88110000D02*
X157543641Y-88110000D01*
%TO.C,J701*%
X106590000Y-36900000D02*
X107970000Y-36900000D01*
X106590000Y-38280000D02*
X106590000Y-36900000D01*
X106590000Y-39550000D02*
X106590000Y-52360000D01*
X106590000Y-39550000D02*
X109350000Y-39550000D01*
X106590000Y-52360000D02*
X109350000Y-52360000D01*
X109350000Y-39550000D02*
X109350000Y-52360000D01*
%TO.C,R1603*%
X133291109Y-99694750D02*
X133598391Y-99694750D01*
X133291109Y-100454750D02*
X133598391Y-100454750D01*
%TO.C,R836*%
X152653641Y-55660000D02*
X152346359Y-55660000D01*
X152653641Y-56420000D02*
X152346359Y-56420000D01*
%TO.C,C1701*%
X159102164Y-91130000D02*
X159317836Y-91130000D01*
X159102164Y-91850000D02*
X159317836Y-91850000D01*
%TO.C,C512*%
X103417836Y-84600000D02*
X103202164Y-84600000D01*
X103417836Y-85320000D02*
X103202164Y-85320000D01*
%TO.C,R1118*%
X133170000Y-58973641D02*
X133170000Y-58666359D01*
X133930000Y-58973641D02*
X133930000Y-58666359D01*
%TO.C,C1706*%
X150790000Y-103107836D02*
X150790000Y-102892164D01*
X151510000Y-103107836D02*
X151510000Y-102892164D01*
%TO.C,U1702*%
X156230000Y-101327500D02*
X153230000Y-101327500D01*
X156230000Y-104327500D02*
X153230000Y-104327500D01*
X152880000Y-101427500D02*
X152640000Y-101097500D01*
X153120000Y-101097500D01*
X152880000Y-101427500D01*
G36*
X152880000Y-101427500D02*
G01*
X152640000Y-101097500D01*
X153120000Y-101097500D01*
X152880000Y-101427500D01*
G37*
%TO.C,R1508*%
X142670000Y-89033641D02*
X142670000Y-88726359D01*
X143430000Y-89033641D02*
X143430000Y-88726359D01*
%TO.C,C1405*%
X118175000Y-121268748D02*
X118175000Y-121791252D01*
X119645000Y-121268748D02*
X119645000Y-121791252D01*
%TO.C,SW1401*%
X82130000Y-109560000D02*
X92350000Y-109560000D01*
X92350000Y-112280000D01*
X82130000Y-112280000D01*
X82130000Y-109560000D01*
%TO.C,C619*%
X108951266Y-68314596D02*
X107945404Y-67308734D01*
X110874596Y-66391266D02*
X109868734Y-65385404D01*
%TO.C,C1705*%
X168770000Y-84961252D02*
X168770000Y-83538748D01*
X171490000Y-84961252D02*
X171490000Y-83538748D01*
%TO.C,C810*%
X155460000Y-54667836D02*
X155460000Y-54452164D01*
X156180000Y-54667836D02*
X156180000Y-54452164D01*
%TO.C,C633*%
X128370000Y-101378748D02*
X128370000Y-102801252D01*
X131090000Y-101378748D02*
X131090000Y-102801252D01*
%TO.C,C1404*%
X140131252Y-131265000D02*
X139608748Y-131265000D01*
X140131252Y-132735000D02*
X139608748Y-132735000D01*
%TO.C,C1440*%
X111560000Y-108222164D02*
X111560000Y-108437836D01*
X112280000Y-108222164D02*
X112280000Y-108437836D01*
%TO.C,C515*%
X106012164Y-82430000D02*
X106227836Y-82430000D01*
X106012164Y-83150000D02*
X106227836Y-83150000D01*
%TO.C,U808*%
X166772500Y-54090000D02*
X165772500Y-54090000D01*
X166772500Y-56810000D02*
X165772500Y-56810000D01*
X165382500Y-54140000D02*
X165102500Y-54140000D01*
X165382500Y-53860000D01*
X165382500Y-54140000D01*
G36*
X165382500Y-54140000D02*
G01*
X165102500Y-54140000D01*
X165382500Y-53860000D01*
X165382500Y-54140000D01*
G37*
%TO.C,U702*%
X114110000Y-43000000D02*
X114585000Y-43000000D01*
X114110000Y-43475000D02*
X114110000Y-43000000D01*
X114110000Y-51745000D02*
X114110000Y-52220000D01*
X114110000Y-52220000D02*
X114585000Y-52220000D01*
X122855000Y-43000000D02*
X123090000Y-43000000D01*
X123330000Y-43475000D02*
X123330000Y-43300000D01*
X123330000Y-51745000D02*
X123330000Y-52220000D01*
X123330000Y-52220000D02*
X122855000Y-52220000D01*
X123660000Y-43240000D02*
X123330000Y-43000000D01*
X123660000Y-42760000D01*
X123660000Y-43240000D01*
G36*
X123660000Y-43240000D02*
G01*
X123330000Y-43000000D01*
X123660000Y-42760000D01*
X123660000Y-43240000D01*
G37*
%TO.C,C1436*%
X93835000Y-121078748D02*
X93835000Y-121601252D01*
X95305000Y-121078748D02*
X95305000Y-121601252D01*
%TO.C,C1119*%
X142230000Y-59673748D02*
X142230000Y-61096252D01*
X144950000Y-59673748D02*
X144950000Y-61096252D01*
%TO.C,C807*%
X153367836Y-58660000D02*
X153152164Y-58660000D01*
X153367836Y-59380000D02*
X153152164Y-59380000D01*
%TO.C,C1407*%
X140317836Y-130140000D02*
X140102164Y-130140000D01*
X140317836Y-130860000D02*
X140102164Y-130860000D01*
%TO.C,R814*%
X158830000Y-76096359D02*
X158830000Y-76403641D01*
X159590000Y-76096359D02*
X159590000Y-76403641D01*
%TO.C,C545*%
X83112836Y-104700000D02*
X82897164Y-104700000D01*
X83112836Y-105420000D02*
X82897164Y-105420000D01*
%TO.C,C1106*%
X136002164Y-63010000D02*
X136217836Y-63010000D01*
X136002164Y-63730000D02*
X136217836Y-63730000D01*
%TO.C,C316*%
X139519190Y-99438307D02*
X139671693Y-99590810D01*
X140028307Y-98929190D02*
X140180810Y-99081693D01*
%TO.C,JP1601*%
X164750000Y-104520000D02*
X168850000Y-104520000D01*
X164750000Y-106520000D02*
X164750000Y-104520000D01*
X168850000Y-104520000D02*
X168850000Y-106520000D01*
X168850000Y-106520000D02*
X164750000Y-106520000D01*
%TO.C,C1417*%
X115735000Y-125778748D02*
X115735000Y-126301252D01*
X117205000Y-125778748D02*
X117205000Y-126301252D01*
%TO.C,R1410*%
X112620000Y-125443641D02*
X112620000Y-125136359D01*
X113380000Y-125443641D02*
X113380000Y-125136359D01*
%TO.C,R1723*%
X159383641Y-100000000D02*
X159076359Y-100000000D01*
X159383641Y-100760000D02*
X159076359Y-100760000D01*
%TO.C,R1712*%
X147800000Y-95603641D02*
X147800000Y-95296359D01*
X148560000Y-95603641D02*
X148560000Y-95296359D01*
%TO.C,R1724*%
X159066359Y-98990000D02*
X159373641Y-98990000D01*
X159066359Y-99750000D02*
X159373641Y-99750000D01*
%TO.C,R1419*%
X97500000Y-124813641D02*
X97500000Y-124506359D01*
X98260000Y-124813641D02*
X98260000Y-124506359D01*
%TO.C,D601*%
X122080000Y-105740000D02*
X122080000Y-108425000D01*
X122080000Y-108425000D02*
X124000000Y-108425000D01*
X124000000Y-108425000D02*
X124000000Y-105740000D01*
%TO.C,R1304*%
X153020000Y-82206359D02*
X153020000Y-82513641D01*
X153780000Y-82206359D02*
X153780000Y-82513641D01*
%TO.C,R403*%
X92593641Y-93420000D02*
X92286359Y-93420000D01*
X92593641Y-94180000D02*
X92286359Y-94180000D01*
%TO.C,SW602*%
X103380000Y-102720000D02*
X103380000Y-103180000D01*
X103380000Y-103180000D02*
X102380000Y-103180000D01*
X103380000Y-105960000D02*
X103380000Y-106420000D01*
X103380000Y-106420000D02*
X109580000Y-106420000D01*
X109580000Y-102720000D02*
X103380000Y-102720000D01*
X109580000Y-102720000D02*
X109580000Y-103180000D01*
X109580000Y-105960000D02*
X109580000Y-106420000D01*
X104980000Y-104020000D02*
X107830000Y-104020000D01*
X107830000Y-105070000D01*
X104980000Y-105070000D01*
X104980000Y-104020000D01*
%TO.C,R709*%
X111776359Y-44290000D02*
X112083641Y-44290000D01*
X111776359Y-45050000D02*
X112083641Y-45050000D01*
%TO.C,C1437*%
X95980000Y-120762164D02*
X95980000Y-120977836D01*
X96700000Y-120762164D02*
X96700000Y-120977836D01*
%TO.C,R1205*%
X155366359Y-118880000D02*
X155673641Y-118880000D01*
X155366359Y-119640000D02*
X155673641Y-119640000D01*
D10*
%TO.C,U1401*%
X127505001Y-120124999D02*
X127505001Y-119875000D01*
X127505001Y-123325000D02*
X127505001Y-123075001D01*
X127755000Y-119875000D02*
X127505001Y-119875000D01*
X127755000Y-123325000D02*
X127505001Y-123325000D01*
X131954999Y-119875000D02*
X131705000Y-119875000D01*
X131954999Y-120124999D02*
X131954999Y-119875000D01*
X131954999Y-123325000D02*
X131705000Y-123325000D01*
X131954999Y-123325000D02*
X131954999Y-123075001D01*
D12*
X128355001Y-123650001D02*
G75*
G02*
X128104999Y-123650001I-125001J0D01*
G01*
X128104999Y-123650001D02*
G75*
G02*
X128355001Y-123650001I125001J0D01*
G01*
D11*
%TO.C,C1416*%
X131165000Y-124988748D02*
X131165000Y-125511252D01*
X132635000Y-124988748D02*
X132635000Y-125511252D01*
%TO.C,C541*%
X91230000Y-96057836D02*
X91230000Y-95842164D01*
X91950000Y-96057836D02*
X91950000Y-95842164D01*
%TO.C,C1408*%
X117010000Y-121232164D02*
X117010000Y-121447836D01*
X117730000Y-121232164D02*
X117730000Y-121447836D01*
D16*
%TO.C,J1701*%
X173540000Y-83110000D02*
X177840000Y-83110000D01*
X173540000Y-84210000D02*
X173540000Y-83110000D01*
X173540000Y-102710000D02*
X173540000Y-101610000D01*
X177840000Y-82510000D02*
X179040000Y-82510000D01*
X177840000Y-83110000D02*
X177840000Y-82510000D01*
X177840000Y-102710000D02*
X173540000Y-102710000D01*
X177840000Y-103310000D02*
X177840000Y-102710000D01*
X179040000Y-82510000D02*
X179040000Y-103310000D01*
X179040000Y-103310000D02*
X177840000Y-103310000D01*
D17*
X172240000Y-100870000D02*
G75*
G02*
X172040000Y-100870000I-100000J0D01*
G01*
X172040000Y-100870000D02*
G75*
G02*
X172240000Y-100870000I100000J0D01*
G01*
D11*
%TO.C,C1418*%
X135591252Y-128895000D02*
X135068748Y-128895000D01*
X135591252Y-130365000D02*
X135068748Y-130365000D01*
D16*
%TO.C,U402*%
X94770000Y-87790000D02*
X94770000Y-89790000D01*
X94770000Y-87790000D02*
X98270000Y-87790000D01*
X94770000Y-95790000D02*
X94770000Y-93790000D01*
X94770000Y-95790000D02*
X98270000Y-95790000D01*
X108770000Y-87790000D02*
X105270000Y-87790000D01*
X108770000Y-87790000D02*
X108770000Y-89790000D01*
X108770000Y-95790000D02*
X105270000Y-95790000D01*
X108770000Y-95790000D02*
X108770000Y-93790000D01*
D17*
X107870000Y-87290000D02*
G75*
G02*
X107670000Y-87290000I-100000J0D01*
G01*
X107670000Y-87290000D02*
G75*
G02*
X107870000Y-87290000I100000J0D01*
G01*
D11*
%TO.C,R1204*%
X165280000Y-119733641D02*
X165280000Y-119426359D01*
X166040000Y-119733641D02*
X166040000Y-119426359D01*
%TO.C,R827*%
X152670000Y-60663641D02*
X152670000Y-60356359D01*
X153430000Y-60663641D02*
X153430000Y-60356359D01*
%TO.C,C1421*%
X141380000Y-127202164D02*
X141380000Y-127417836D01*
X142100000Y-127202164D02*
X142100000Y-127417836D01*
%TO.C,C1423*%
X121890000Y-116188748D02*
X121890000Y-117611252D01*
X124610000Y-116188748D02*
X124610000Y-117611252D01*
%TO.C,R407*%
X102353641Y-82620000D02*
X102046359Y-82620000D01*
X102353641Y-83380000D02*
X102046359Y-83380000D01*
%TO.C,C1114*%
X136002164Y-61080000D02*
X136217836Y-61080000D01*
X136002164Y-61800000D02*
X136217836Y-61800000D01*
%TO.C,D1301*%
X156770000Y-81210000D02*
X159455000Y-81210000D01*
X159455000Y-79290000D02*
X156770000Y-79290000D01*
X159455000Y-81210000D02*
X159455000Y-79290000D01*
D10*
%TO.C,U1405*%
X97125002Y-120055000D02*
X97125002Y-119805001D01*
X97125002Y-123255001D02*
X97125002Y-123005002D01*
X97375001Y-119805001D02*
X97125002Y-119805001D01*
X97375001Y-123255001D02*
X97125002Y-123255001D01*
X101575000Y-119805001D02*
X101325001Y-119805001D01*
X101575000Y-120055000D02*
X101575000Y-119805001D01*
X101575000Y-123255001D02*
X101325001Y-123255001D01*
X101575000Y-123255001D02*
X101575000Y-123005002D01*
D12*
X97975002Y-123580002D02*
G75*
G02*
X97725000Y-123580002I-125001J0D01*
G01*
X97725000Y-123580002D02*
G75*
G02*
X97975002Y-123580002I125001J0D01*
G01*
D11*
%TO.C,U805*%
X166692500Y-47350000D02*
X165692500Y-47350000D01*
X166692500Y-50070000D02*
X165692500Y-50070000D01*
X165302500Y-47400000D02*
X165022500Y-47400000D01*
X165302500Y-47120000D01*
X165302500Y-47400000D01*
G36*
X165302500Y-47400000D02*
G01*
X165022500Y-47400000D01*
X165302500Y-47120000D01*
X165302500Y-47400000D01*
G37*
%TO.C,C534*%
X92590000Y-96077836D02*
X92590000Y-95862164D01*
X93310000Y-96077836D02*
X93310000Y-95862164D01*
%TO.C,C604*%
X132820000Y-108631252D02*
X132820000Y-107208748D01*
X135540000Y-108631252D02*
X135540000Y-107208748D01*
%TO.C,SW601*%
X103440000Y-107200000D02*
X103440000Y-107660000D01*
X103440000Y-107660000D02*
X102440000Y-107660000D01*
X103440000Y-110440000D02*
X103440000Y-110900000D01*
X103440000Y-110900000D02*
X109640000Y-110900000D01*
X109640000Y-107200000D02*
X103440000Y-107200000D01*
X109640000Y-107200000D02*
X109640000Y-107660000D01*
X109640000Y-110440000D02*
X109640000Y-110900000D01*
X105040000Y-108500000D02*
X107890000Y-108500000D01*
X107890000Y-109550000D01*
X105040000Y-109550000D01*
X105040000Y-108500000D01*
%TO.C,C1431*%
X109665000Y-116788748D02*
X109665000Y-117311252D01*
X111135000Y-116788748D02*
X111135000Y-117311252D01*
%TO.C,R834*%
X166060000Y-59086359D02*
X166060000Y-59393641D01*
X166820000Y-59086359D02*
X166820000Y-59393641D01*
%TO.C,R1506*%
X140566359Y-92120000D02*
X140873641Y-92120000D01*
X140566359Y-92880000D02*
X140873641Y-92880000D01*
%TO.C,R1411*%
X114570000Y-125146359D02*
X114570000Y-125453641D01*
X115330000Y-125146359D02*
X115330000Y-125453641D01*
%TO.C,R1503*%
X140510000Y-89023641D02*
X140510000Y-88716359D01*
X141270000Y-89023641D02*
X141270000Y-88716359D01*
%TO.C,C902*%
X157140000Y-47992164D02*
X157140000Y-48207836D01*
X157860000Y-47992164D02*
X157860000Y-48207836D01*
%TO.C,R1501*%
X142540000Y-86313641D02*
X142540000Y-86006359D01*
X143300000Y-86313641D02*
X143300000Y-86006359D01*
%TO.C,C1108*%
X139080000Y-57887836D02*
X139080000Y-57672164D01*
X139800000Y-57887836D02*
X139800000Y-57672164D01*
%TO.C,R1412*%
X136166359Y-125710000D02*
X136473641Y-125710000D01*
X136166359Y-126470000D02*
X136473641Y-126470000D01*
%TO.C,R1209*%
X164456359Y-109140000D02*
X164763641Y-109140000D01*
X164456359Y-109900000D02*
X164763641Y-109900000D01*
%TO.C,C705*%
X117382164Y-52900000D02*
X117597836Y-52900000D01*
X117382164Y-53620000D02*
X117597836Y-53620000D01*
%TO.C,R1408*%
X127720000Y-124933641D02*
X127720000Y-124626359D01*
X128480000Y-124933641D02*
X128480000Y-124626359D01*
%TO.C,C1424*%
X135340000Y-115878748D02*
X135340000Y-117301252D01*
X138060000Y-115878748D02*
X138060000Y-117301252D01*
%TO.C,C537*%
X103752164Y-71030000D02*
X103967836Y-71030000D01*
X103752164Y-71750000D02*
X103967836Y-71750000D01*
%TO.C,R1505*%
X140566359Y-91080000D02*
X140873641Y-91080000D01*
X140566359Y-91840000D02*
X140873641Y-91840000D01*
%TO.C,C531*%
X100500000Y-85787836D02*
X100500000Y-85572164D01*
X101220000Y-85787836D02*
X101220000Y-85572164D01*
%TO.C,C1112*%
X135112164Y-63970000D02*
X135327836Y-63970000D01*
X135112164Y-64690000D02*
X135327836Y-64690000D01*
%TO.C,U901*%
X151782500Y-46650000D02*
X151782500Y-46440000D01*
X151782500Y-50420000D02*
X151782500Y-49970000D01*
X152232500Y-46200000D02*
X152082500Y-46200000D01*
X152232500Y-50420000D02*
X151782500Y-50420000D01*
X155552500Y-46200000D02*
X156002500Y-46200000D01*
X155552500Y-50420000D02*
X156002500Y-50420000D01*
X156002500Y-46200000D02*
X156002500Y-46650000D01*
X156002500Y-50420000D02*
X156002500Y-49970000D01*
X151782500Y-46200000D02*
X151542500Y-45870000D01*
X152022500Y-45870000D01*
X151782500Y-46200000D01*
G36*
X151782500Y-46200000D02*
G01*
X151542500Y-45870000D01*
X152022500Y-45870000D01*
X151782500Y-46200000D01*
G37*
%TO.C,L1404*%
X96970000Y-112290000D02*
X98520000Y-112290000D01*
X96970000Y-118210000D02*
X96970000Y-112290000D01*
X98520000Y-118210000D02*
X96970000Y-118210000D01*
X100840000Y-112290000D02*
X102390000Y-112290000D01*
X102390000Y-112290000D02*
X102390000Y-118210000D01*
X102390000Y-118210000D02*
X100840000Y-118210000D01*
D10*
%TO.C,U501*%
X84305000Y-100105000D02*
X84305000Y-104255000D01*
X89455000Y-100105000D02*
X89455000Y-104255000D01*
D11*
X89710000Y-99920000D02*
X89380000Y-99680000D01*
X89710000Y-99440000D01*
X89710000Y-99920000D01*
G36*
X89710000Y-99920000D02*
G01*
X89380000Y-99680000D01*
X89710000Y-99440000D01*
X89710000Y-99920000D01*
G37*
%TO.C,JP1701*%
X163590000Y-79840000D02*
X167690000Y-79840000D01*
X163590000Y-81840000D02*
X163590000Y-79840000D01*
X167690000Y-79840000D02*
X167690000Y-81840000D01*
X167690000Y-81840000D02*
X163590000Y-81840000D01*
%TO.C,C1449*%
X136232164Y-126730000D02*
X136447836Y-126730000D01*
X136232164Y-127450000D02*
X136447836Y-127450000D01*
%TO.C,R1729*%
X159013641Y-103390000D02*
X158706359Y-103390000D01*
X159013641Y-104150000D02*
X158706359Y-104150000D01*
%TO.C,R1720*%
X149700000Y-103576359D02*
X149700000Y-103883641D01*
X150460000Y-103576359D02*
X150460000Y-103883641D01*
%TO.C,C1413*%
X111370000Y-121252164D02*
X111370000Y-121467836D01*
X112090000Y-121252164D02*
X112090000Y-121467836D01*
%TO.C,R835*%
X152346359Y-54680000D02*
X152653641Y-54680000D01*
X152346359Y-55440000D02*
X152653641Y-55440000D01*
%TO.C,U1003*%
X101890000Y-49867500D02*
X101890000Y-49067500D01*
X101890000Y-49867500D02*
X101890000Y-50667500D01*
X105010000Y-49867500D02*
X105010000Y-49067500D01*
X105010000Y-49867500D02*
X105010000Y-50667500D01*
X101940000Y-51167500D02*
X101610000Y-51407500D01*
X101610000Y-50927500D01*
X101940000Y-51167500D01*
G36*
X101940000Y-51167500D02*
G01*
X101610000Y-51407500D01*
X101610000Y-50927500D01*
X101940000Y-51167500D01*
G37*
D15*
%TO.C,U703*%
X123715000Y-39192500D02*
X123715000Y-42167500D01*
X123715000Y-39192500D02*
X124590000Y-39192500D01*
X126365000Y-39192500D02*
X125890000Y-39192500D01*
X126365000Y-39667500D02*
X126365000Y-39192500D01*
X126365000Y-42167500D02*
X123715000Y-42167500D01*
X126365000Y-42167500D02*
X126365000Y-40742500D01*
D11*
%TO.C,C1412*%
X138137836Y-130080000D02*
X137922164Y-130080000D01*
X138137836Y-130800000D02*
X137922164Y-130800000D01*
%TO.C,R1416*%
X116026359Y-119440000D02*
X116333641Y-119440000D01*
X116026359Y-120200000D02*
X116333641Y-120200000D01*
%TO.C,R807*%
X153896359Y-52380000D02*
X154203641Y-52380000D01*
X153896359Y-53140000D02*
X154203641Y-53140000D01*
%TO.C,C1410*%
X116960000Y-123302164D02*
X116960000Y-123517836D01*
X117680000Y-123302164D02*
X117680000Y-123517836D01*
%TO.C,C406*%
X104092164Y-82640000D02*
X104307836Y-82640000D01*
X104092164Y-83360000D02*
X104307836Y-83360000D01*
%TO.C,J1402*%
X90420000Y-130950000D02*
X91750000Y-130950000D01*
X90420000Y-132060000D02*
X90420000Y-130950000D01*
X90420000Y-136060000D02*
X103240000Y-136060000D01*
X91390000Y-133550000D02*
X91390000Y-133170000D01*
X91390000Y-136060000D02*
X91390000Y-135650000D01*
X92110000Y-133550000D02*
X92110000Y-133170000D01*
X92110000Y-136060000D02*
X92110000Y-135650000D01*
X93930000Y-133550000D02*
X93930000Y-133110000D01*
X93930000Y-136060000D02*
X93930000Y-135650000D01*
X94650000Y-133550000D02*
X94650000Y-133110000D01*
X94650000Y-136060000D02*
X94650000Y-135650000D01*
X96470000Y-133550000D02*
X96470000Y-133110000D01*
X96470000Y-136060000D02*
X96470000Y-135650000D01*
X97190000Y-133550000D02*
X97190000Y-133110000D01*
X97190000Y-136060000D02*
X97190000Y-135650000D01*
X99010000Y-133550000D02*
X99010000Y-133110000D01*
X99010000Y-136060000D02*
X99010000Y-135650000D01*
X99730000Y-133550000D02*
X99730000Y-133110000D01*
X99730000Y-136060000D02*
X99730000Y-135650000D01*
X101550000Y-133550000D02*
X101550000Y-133110000D01*
X101550000Y-136060000D02*
X101550000Y-135650000D01*
X102270000Y-133550000D02*
X102270000Y-133110000D01*
X102270000Y-136060000D02*
X102270000Y-135650000D01*
%TO.C,C1115*%
X140447836Y-63220000D02*
X140232164Y-63220000D01*
X140447836Y-63940000D02*
X140232164Y-63940000D01*
%TO.C,U803*%
X156000000Y-56142500D02*
X156000000Y-56032500D01*
X156000000Y-60012500D02*
X156000000Y-59662500D01*
X156550000Y-55792500D02*
X156300000Y-55792500D01*
X156550000Y-60012500D02*
X156000000Y-60012500D01*
X161670000Y-55792500D02*
X162220000Y-55792500D01*
X161670000Y-60012500D02*
X162220000Y-60012500D01*
X162220000Y-55792500D02*
X162220000Y-56142500D01*
X162220000Y-60012500D02*
X162220000Y-59662500D01*
X156000000Y-55792500D02*
X155760000Y-55462500D01*
X156240000Y-55462500D01*
X156000000Y-55792500D01*
G36*
X156000000Y-55792500D02*
G01*
X155760000Y-55462500D01*
X156240000Y-55462500D01*
X156000000Y-55792500D01*
G37*
%TO.C,U705*%
X118610000Y-40630000D02*
X118610000Y-41630000D01*
X121330000Y-40630000D02*
X121330000Y-41630000D01*
X118660000Y-42300000D02*
X118380000Y-42020000D01*
X118660000Y-42020000D01*
X118660000Y-42300000D01*
G36*
X118660000Y-42300000D02*
G01*
X118380000Y-42020000D01*
X118660000Y-42020000D01*
X118660000Y-42300000D01*
G37*
%TO.C,R1110*%
X131080000Y-64306359D02*
X131080000Y-64613641D01*
X131840000Y-64306359D02*
X131840000Y-64613641D01*
%TO.C,C301*%
X159038748Y-81640000D02*
X160461252Y-81640000D01*
X159038748Y-84360000D02*
X160461252Y-84360000D01*
%TO.C,U1002*%
X110920000Y-56780000D02*
X110920000Y-57255000D01*
X110920000Y-62000000D02*
X110920000Y-61525000D01*
X111395000Y-56780000D02*
X110920000Y-56780000D01*
X111395000Y-62000000D02*
X110920000Y-62000000D01*
X115665000Y-56780000D02*
X116140000Y-56780000D01*
X115665000Y-62000000D02*
X115840000Y-62000000D01*
X116140000Y-56780000D02*
X116140000Y-57255000D01*
X116140000Y-61525000D02*
X116140000Y-61760000D01*
X116380000Y-62330000D02*
X115900000Y-62330000D01*
X116140000Y-62000000D01*
X116380000Y-62330000D01*
G36*
X116380000Y-62330000D02*
G01*
X115900000Y-62330000D01*
X116140000Y-62000000D01*
X116380000Y-62330000D01*
G37*
%TO.C,U1004*%
X96580000Y-51322500D02*
X96580000Y-50322500D01*
X99300000Y-51322500D02*
X99300000Y-50322500D01*
X99530000Y-49932500D02*
X99250000Y-49932500D01*
X99250000Y-49652500D01*
X99530000Y-49932500D01*
G36*
X99530000Y-49932500D02*
G01*
X99250000Y-49932500D01*
X99250000Y-49652500D01*
X99530000Y-49932500D01*
G37*
%TO.C,C1110*%
X137420000Y-60132164D02*
X137420000Y-60347836D01*
X138140000Y-60132164D02*
X138140000Y-60347836D01*
%TO.C,C1426*%
X133195000Y-115738748D02*
X133195000Y-116261252D01*
X134665000Y-115738748D02*
X134665000Y-116261252D01*
%TO.C,C1113*%
X138665000Y-60158748D02*
X138665000Y-60681252D01*
X140135000Y-60158748D02*
X140135000Y-60681252D01*
D13*
%TO.C,J1101*%
X127487600Y-30455200D02*
X127487600Y-52019800D01*
X127487600Y-52019800D02*
X146639200Y-52019800D01*
X146639200Y-30455200D02*
X127487600Y-30455200D01*
X146639200Y-52019800D02*
X146639200Y-30455200D01*
D18*
X127233600Y-47742801D02*
G75*
G02*
X126471600Y-47742801I-381000J0D01*
G01*
X126471600Y-47742801D02*
G75*
G02*
X127233600Y-47742801I381000J0D01*
G01*
D11*
%TO.C,R1502*%
X143710000Y-87403641D02*
X143710000Y-87096359D01*
X144470000Y-87403641D02*
X144470000Y-87096359D01*
%TO.C,C1104*%
X140167836Y-62300000D02*
X139952164Y-62300000D01*
X140167836Y-63020000D02*
X139952164Y-63020000D01*
%TO.C,R601*%
X123356359Y-101970000D02*
X123663641Y-101970000D01*
X123356359Y-102730000D02*
X123663641Y-102730000D01*
%TO.C,R713*%
X111926359Y-48920000D02*
X112233641Y-48920000D01*
X111926359Y-49680000D02*
X112233641Y-49680000D01*
%TO.C,R218*%
X140646359Y-77100000D02*
X140953641Y-77100000D01*
X140646359Y-77860000D02*
X140953641Y-77860000D01*
%TO.C,C315*%
X143175404Y-104408734D02*
X144181266Y-105414596D01*
X145098734Y-102485404D02*
X146104596Y-103491266D01*
%TO.C,C1415*%
X126610000Y-120732164D02*
X126610000Y-120947836D01*
X127330000Y-120732164D02*
X127330000Y-120947836D01*
%TO.C,R208*%
X106093641Y-56610000D02*
X105786359Y-56610000D01*
X106093641Y-57370000D02*
X105786359Y-57370000D01*
%TO.C,L1402*%
X112000000Y-112810000D02*
X113550000Y-112810000D01*
X112000000Y-118730000D02*
X112000000Y-112810000D01*
X113550000Y-118730000D02*
X112000000Y-118730000D01*
X115870000Y-112810000D02*
X117420000Y-112810000D01*
X117420000Y-112810000D02*
X117420000Y-118730000D01*
X117420000Y-118730000D02*
X115870000Y-118730000D01*
%TO.C,SW201*%
X92560000Y-61705000D02*
X92560000Y-60322000D01*
X92560000Y-61705000D02*
X93943000Y-61705000D01*
X92800000Y-54645000D02*
X94110000Y-54645000D01*
X92800000Y-61465000D02*
X92800000Y-54645000D01*
X92800000Y-61465000D02*
X94110000Y-61465000D01*
X94275000Y-58658333D02*
X95545000Y-58658333D01*
X95710000Y-54645000D02*
X96650000Y-54645000D01*
X95710000Y-61465000D02*
X96650000Y-61465000D01*
X96815000Y-58658333D02*
X98085000Y-58658333D01*
X98250000Y-54645000D02*
X99190000Y-54645000D01*
X98250000Y-61465000D02*
X99190000Y-61465000D01*
X99355000Y-58658333D02*
X100625000Y-58658333D01*
X100790000Y-54645000D02*
X102100000Y-54645000D01*
X100790000Y-61465000D02*
X102100000Y-61465000D01*
X102100000Y-61465000D02*
X102100000Y-54645000D01*
X94275000Y-59865000D02*
X95545000Y-59865000D01*
X95545000Y-56245000D01*
X94275000Y-56245000D01*
X94275000Y-59865000D01*
X94275000Y-59865000D02*
X95545000Y-59865000D01*
X95545000Y-58658333D01*
X94275000Y-58658333D01*
X94275000Y-59865000D01*
G36*
X94275000Y-59865000D02*
G01*
X95545000Y-59865000D01*
X95545000Y-58658333D01*
X94275000Y-58658333D01*
X94275000Y-59865000D01*
G37*
X96815000Y-59865000D02*
X98085000Y-59865000D01*
X98085000Y-56245000D01*
X96815000Y-56245000D01*
X96815000Y-59865000D01*
X96815000Y-59865000D02*
X98085000Y-59865000D01*
X98085000Y-58658333D01*
X96815000Y-58658333D01*
X96815000Y-59865000D01*
G36*
X96815000Y-59865000D02*
G01*
X98085000Y-59865000D01*
X98085000Y-58658333D01*
X96815000Y-58658333D01*
X96815000Y-59865000D01*
G37*
X99355000Y-59865000D02*
X100625000Y-59865000D01*
X100625000Y-56245000D01*
X99355000Y-56245000D01*
X99355000Y-59865000D01*
X99355000Y-59865000D02*
X100625000Y-59865000D01*
X100625000Y-58658333D01*
X99355000Y-58658333D01*
X99355000Y-59865000D01*
G36*
X99355000Y-59865000D02*
G01*
X100625000Y-59865000D01*
X100625000Y-58658333D01*
X99355000Y-58658333D01*
X99355000Y-59865000D01*
G37*
%TO.C,C708*%
X124040000Y-51912164D02*
X124040000Y-52127836D01*
X124760000Y-51912164D02*
X124760000Y-52127836D01*
%TO.C,C1447*%
X98530000Y-124747836D02*
X98530000Y-124532164D01*
X99250000Y-124747836D02*
X99250000Y-124532164D01*
%TO.C,J1401*%
X73270000Y-116390000D02*
X87770000Y-116390000D01*
X73270000Y-125590000D02*
X73270000Y-116390000D01*
X81870000Y-125590000D02*
X73270000Y-125590000D01*
X87770000Y-116390000D02*
X87770000Y-118390000D01*
X87770000Y-123590000D02*
X87770000Y-125590000D01*
X87770000Y-125590000D02*
X86470000Y-125590000D01*
X88070000Y-116090000D02*
X86770000Y-116090000D01*
X88070000Y-117790000D02*
X88070000Y-116090000D01*
%TO.C,R204*%
X102653641Y-63970000D02*
X102346359Y-63970000D01*
X102653641Y-64730000D02*
X102346359Y-64730000D01*
%TO.C,R605*%
X122543641Y-104020000D02*
X122236359Y-104020000D01*
X122543641Y-104780000D02*
X122236359Y-104780000D01*
%TO.C,C1111*%
X136012164Y-60140000D02*
X136227836Y-60140000D01*
X136012164Y-60860000D02*
X136227836Y-60860000D01*
%TO.C,R817*%
X152346359Y-56650000D02*
X152653641Y-56650000D01*
X152346359Y-57410000D02*
X152653641Y-57410000D01*
%TO.C,C707*%
X116890000Y-41537836D02*
X116890000Y-41322164D01*
X117610000Y-41537836D02*
X117610000Y-41322164D01*
%TO.C,C1109*%
X136310000Y-64897836D02*
X136310000Y-64682164D01*
X137030000Y-64897836D02*
X137030000Y-64682164D01*
%TO.C,U807*%
X166712500Y-50480000D02*
X165712500Y-50480000D01*
X166712500Y-53200000D02*
X165712500Y-53200000D01*
X165322500Y-50530000D02*
X165042500Y-50530000D01*
X165322500Y-50250000D01*
X165322500Y-50530000D01*
G36*
X165322500Y-50530000D02*
G01*
X165042500Y-50530000D01*
X165322500Y-50250000D01*
X165322500Y-50530000D01*
G37*
%TO.C,R1722*%
X157423641Y-99010000D02*
X157116359Y-99010000D01*
X157423641Y-99770000D02*
X157116359Y-99770000D01*
%TO.C,R1602*%
X136456359Y-101140000D02*
X136763641Y-101140000D01*
X136456359Y-101900000D02*
X136763641Y-101900000D01*
%TO.C,J1303*%
X150050000Y-39720000D02*
X150050000Y-42480000D01*
X162860000Y-39720000D02*
X150050000Y-39720000D01*
X162860000Y-39720000D02*
X162860000Y-42480000D01*
X162860000Y-42480000D02*
X150050000Y-42480000D01*
X164130000Y-39720000D02*
X165510000Y-39720000D01*
X165510000Y-39720000D02*
X165510000Y-41100000D01*
%TO.C,R1731*%
X153503641Y-100060000D02*
X153196359Y-100060000D01*
X153503641Y-100820000D02*
X153196359Y-100820000D01*
%TO.C,R1711*%
X146276359Y-94110000D02*
X146583641Y-94110000D01*
X146276359Y-94870000D02*
X146583641Y-94870000D01*
%TO.C,R1710*%
X146276359Y-95070000D02*
X146583641Y-95070000D01*
X146276359Y-95830000D02*
X146583641Y-95830000D01*
%TO.C,C1438*%
X101820000Y-122932164D02*
X101820000Y-123147836D01*
X102540000Y-122932164D02*
X102540000Y-123147836D01*
%TO.C,C1443*%
X105000000Y-115288748D02*
X105000000Y-116711252D01*
X107720000Y-115288748D02*
X107720000Y-116711252D01*
%TO.C,L601*%
X125470000Y-102220580D02*
X125470000Y-101939420D01*
X126490000Y-102220580D02*
X126490000Y-101939420D01*
D16*
%TO.C,U401*%
X94770000Y-73280000D02*
X94770000Y-75280000D01*
X94770000Y-73280000D02*
X98270000Y-73280000D01*
X94770000Y-81280000D02*
X94770000Y-79280000D01*
X94770000Y-81280000D02*
X98270000Y-81280000D01*
X108770000Y-73280000D02*
X105270000Y-73280000D01*
X108770000Y-73280000D02*
X108770000Y-75280000D01*
X108770000Y-81280000D02*
X105270000Y-81280000D01*
X108770000Y-81280000D02*
X108770000Y-79280000D01*
D17*
X107870000Y-72780000D02*
G75*
G02*
X107670000Y-72780000I-100000J0D01*
G01*
X107670000Y-72780000D02*
G75*
G02*
X107870000Y-72780000I100000J0D01*
G01*
D11*
%TO.C,C804*%
X164492164Y-72860000D02*
X164707836Y-72860000D01*
X164492164Y-73580000D02*
X164707836Y-73580000D01*
%TO.C,J1002*%
X82735000Y-45620000D02*
X78375000Y-45620000D01*
X82735000Y-45620000D02*
X82735000Y-48120000D01*
X82735000Y-48120000D02*
X82935000Y-48120000D01*
X82735000Y-51640000D02*
X82735000Y-54140000D01*
X82735000Y-54140000D02*
X78375000Y-54140000D01*
X82935000Y-48780000D02*
X82935000Y-48120000D01*
%TO.C,R1417*%
X100646359Y-118890000D02*
X100953641Y-118890000D01*
X100646359Y-119650000D02*
X100953641Y-119650000D01*
%TO.C,R1422*%
X130746359Y-118960000D02*
X131053641Y-118960000D01*
X130746359Y-119720000D02*
X131053641Y-119720000D01*
%TO.C,C1008*%
X100680000Y-48612164D02*
X100680000Y-48827836D01*
X101400000Y-48612164D02*
X101400000Y-48827836D01*
%TO.C,C1105*%
X130175000Y-55358748D02*
X130175000Y-55881252D01*
X131645000Y-55358748D02*
X131645000Y-55881252D01*
%TO.C,C704*%
X124080000Y-48332164D02*
X124080000Y-48547836D01*
X124800000Y-48332164D02*
X124800000Y-48547836D01*
%TO.C,C1448*%
X128740000Y-124887836D02*
X128740000Y-124672164D01*
X129460000Y-124887836D02*
X129460000Y-124672164D01*
%TO.C,C1120*%
X141991252Y-52770000D02*
X140568748Y-52770000D01*
X141991252Y-55490000D02*
X140568748Y-55490000D01*
%TO.C,C1442*%
X98772164Y-118910000D02*
X98987836Y-118910000D01*
X98772164Y-119630000D02*
X98987836Y-119630000D01*
%TO.C,R1709*%
X148870000Y-96233641D02*
X148870000Y-95926359D01*
X149630000Y-96233641D02*
X149630000Y-95926359D01*
%TO.C,R1604*%
X132571109Y-100864750D02*
X132878391Y-100864750D01*
X132571109Y-101624750D02*
X132878391Y-101624750D01*
%TO.C,C503*%
X93817836Y-83280000D02*
X93602164Y-83280000D01*
X93817836Y-84000000D02*
X93602164Y-84000000D01*
%TO.C,R808*%
X154203641Y-53450000D02*
X153896359Y-53450000D01*
X154203641Y-54210000D02*
X153896359Y-54210000D01*
%TO.C,R707*%
X111796359Y-42130000D02*
X112103641Y-42130000D01*
X111796359Y-42890000D02*
X112103641Y-42890000D01*
%TO.C,C1009*%
X83650000Y-46451252D02*
X83650000Y-45028748D01*
X86370000Y-46451252D02*
X86370000Y-45028748D01*
%TO.C,U706*%
X110120000Y-53200000D02*
X110120000Y-52400000D01*
X110120000Y-53200000D02*
X110120000Y-54000000D01*
X113240000Y-53200000D02*
X113240000Y-52400000D01*
X113240000Y-53200000D02*
X113240000Y-54000000D01*
X113520000Y-52140000D02*
X113190000Y-51900000D01*
X113520000Y-51660000D01*
X113520000Y-52140000D01*
G36*
X113520000Y-52140000D02*
G01*
X113190000Y-51900000D01*
X113520000Y-51660000D01*
X113520000Y-52140000D01*
G37*
%TO.C,R714*%
X115620000Y-41593641D02*
X115620000Y-41286359D01*
X116380000Y-41593641D02*
X116380000Y-41286359D01*
%TO.C,R202*%
X92896359Y-64170000D02*
X93203641Y-64170000D01*
X92896359Y-64930000D02*
X93203641Y-64930000D01*
%TO.C,C1425*%
X118115000Y-116788748D02*
X118115000Y-117311252D01*
X119585000Y-116788748D02*
X119585000Y-117311252D01*
%TO.C,C1435*%
X103315000Y-120838748D02*
X103315000Y-121361252D01*
X104785000Y-120838748D02*
X104785000Y-121361252D01*
%TO.C,C612*%
X125247836Y-99740000D02*
X125032164Y-99740000D01*
X125247836Y-100460000D02*
X125032164Y-100460000D01*
%TO.C,R1719*%
X156766359Y-104680000D02*
X157073641Y-104680000D01*
X156766359Y-105440000D02*
X157073641Y-105440000D01*
%TO.C,R1607*%
X137793641Y-102150000D02*
X137486359Y-102150000D01*
X137793641Y-102910000D02*
X137486359Y-102910000D01*
%TO.C,C205*%
X137838748Y-73910000D02*
X139261252Y-73910000D01*
X137838748Y-76630000D02*
X139261252Y-76630000D01*
%TO.C,C605*%
X149935404Y-107648734D02*
X150941266Y-108654596D01*
X151858734Y-105725404D02*
X152864596Y-106731266D01*
%TO.C,R1725*%
X157713641Y-85290000D02*
X157406359Y-85290000D01*
X157713641Y-86050000D02*
X157406359Y-86050000D01*
%TO.C,R716*%
X122833641Y-41040000D02*
X122526359Y-41040000D01*
X122833641Y-41800000D02*
X122526359Y-41800000D01*
%TO.C,R1117*%
X140990000Y-56973641D02*
X140990000Y-56666359D01*
X141750000Y-56973641D02*
X141750000Y-56666359D01*
%TO.C,C607*%
X126902164Y-99750000D02*
X127117836Y-99750000D01*
X126902164Y-100470000D02*
X127117836Y-100470000D01*
%TO.C,C1101*%
X142545000Y-66178748D02*
X142545000Y-66701252D01*
X144015000Y-66178748D02*
X144015000Y-66701252D01*
D16*
%TO.C,J1601*%
X172360000Y-104890000D02*
X176660000Y-104890000D01*
X172360000Y-105990000D02*
X172360000Y-104890000D01*
X172360000Y-124490000D02*
X172360000Y-123390000D01*
X176660000Y-104290000D02*
X177860000Y-104290000D01*
X176660000Y-104890000D02*
X176660000Y-104290000D01*
X176660000Y-124490000D02*
X172360000Y-124490000D01*
X176660000Y-125090000D02*
X176660000Y-124490000D01*
X177860000Y-104290000D02*
X177860000Y-125090000D01*
X177860000Y-125090000D02*
X176660000Y-125090000D01*
D17*
X171060000Y-122650000D02*
G75*
G02*
X170860000Y-122650000I-100000J0D01*
G01*
X170860000Y-122650000D02*
G75*
G02*
X171060000Y-122650000I100000J0D01*
G01*
D11*
%TO.C,R1001*%
X126040000Y-78233641D02*
X126040000Y-77926359D01*
X126800000Y-78233641D02*
X126800000Y-77926359D01*
%TO.C,R1504*%
X141600000Y-90103641D02*
X141600000Y-89796359D01*
X142360000Y-90103641D02*
X142360000Y-89796359D01*
%TO.C,R1206*%
X157413641Y-110340000D02*
X157106359Y-110340000D01*
X157413641Y-111100000D02*
X157106359Y-111100000D01*
%TO.C,R1421*%
X118833641Y-107190000D02*
X118526359Y-107190000D01*
X118833641Y-107950000D02*
X118526359Y-107950000D01*
%TO.C,C904*%
X158110000Y-44007836D02*
X158110000Y-43792164D01*
X158830000Y-44007836D02*
X158830000Y-43792164D01*
%TO.C,C1450*%
X113610000Y-125377836D02*
X113610000Y-125162164D01*
X114330000Y-125377836D02*
X114330000Y-125162164D01*
%TO.C,C1107*%
X127500000Y-59852164D02*
X127500000Y-60067836D01*
X128220000Y-59852164D02*
X128220000Y-60067836D01*
%TO.C,U1406*%
X113590000Y-106720000D02*
X114990000Y-106720000D01*
X113590000Y-108940000D02*
X114990000Y-108940000D01*
X113190000Y-106720000D02*
X112950000Y-106390000D01*
X113430000Y-106390000D01*
X113190000Y-106720000D01*
G36*
X113190000Y-106720000D02*
G01*
X112950000Y-106390000D01*
X113430000Y-106390000D01*
X113190000Y-106720000D01*
G37*
%TO.C,R1116*%
X132366359Y-60350000D02*
X132673641Y-60350000D01*
X132366359Y-61110000D02*
X132673641Y-61110000D01*
%TO.C,R1415*%
X141380000Y-129046359D02*
X141380000Y-129353641D01*
X142140000Y-129046359D02*
X142140000Y-129353641D01*
%TO.C,R715*%
X125416359Y-43490000D02*
X125723641Y-43490000D01*
X125416359Y-44250000D02*
X125723641Y-44250000D01*
%TO.C,R828*%
X151630000Y-60356359D02*
X151630000Y-60663641D01*
X152390000Y-60356359D02*
X152390000Y-60663641D01*
%TO.C,C601*%
X129480000Y-108721252D02*
X129480000Y-107298748D01*
X132200000Y-108721252D02*
X132200000Y-107298748D01*
%TO.C,L1401*%
X127220000Y-112320000D02*
X128770000Y-112320000D01*
X127220000Y-118240000D02*
X127220000Y-112320000D01*
X128770000Y-118240000D02*
X127220000Y-118240000D01*
X131090000Y-112320000D02*
X132640000Y-112320000D01*
X132640000Y-112320000D02*
X132640000Y-118240000D01*
X132640000Y-118240000D02*
X131090000Y-118240000D01*
%TO.C,C809*%
X164002164Y-60580000D02*
X164217836Y-60580000D01*
X164002164Y-61300000D02*
X164217836Y-61300000D01*
%TO.C,C303*%
X155790000Y-84062164D02*
X155790000Y-84277836D01*
X156510000Y-84062164D02*
X156510000Y-84277836D01*
%TO.C,J1301*%
X110270000Y-130950000D02*
X111600000Y-130950000D01*
X110270000Y-132060000D02*
X110270000Y-130950000D01*
X110270000Y-136060000D02*
X123090000Y-136060000D01*
X111240000Y-133550000D02*
X111240000Y-133170000D01*
X111240000Y-136060000D02*
X111240000Y-135650000D01*
X111960000Y-133550000D02*
X111960000Y-133170000D01*
X111960000Y-136060000D02*
X111960000Y-135650000D01*
X113780000Y-133550000D02*
X113780000Y-133110000D01*
X113780000Y-136060000D02*
X113780000Y-135650000D01*
X114500000Y-133550000D02*
X114500000Y-133110000D01*
X114500000Y-136060000D02*
X114500000Y-135650000D01*
X116320000Y-133550000D02*
X116320000Y-133110000D01*
X116320000Y-136060000D02*
X116320000Y-135650000D01*
X117040000Y-133550000D02*
X117040000Y-133110000D01*
X117040000Y-136060000D02*
X117040000Y-135650000D01*
X118860000Y-133550000D02*
X118860000Y-133110000D01*
X118860000Y-136060000D02*
X118860000Y-135650000D01*
X119580000Y-133550000D02*
X119580000Y-133110000D01*
X119580000Y-136060000D02*
X119580000Y-135650000D01*
X121400000Y-133550000D02*
X121400000Y-133110000D01*
X121400000Y-136060000D02*
X121400000Y-135650000D01*
X122120000Y-133550000D02*
X122120000Y-133110000D01*
X122120000Y-136060000D02*
X122120000Y-135650000D01*
%TO.C,J702*%
X114570000Y-39525000D02*
X114570000Y-35165000D01*
X117070000Y-39525000D02*
X114570000Y-39525000D01*
X119930000Y-39725000D02*
X120590000Y-39725000D01*
X120590000Y-39525000D02*
X120590000Y-39725000D01*
X123090000Y-39525000D02*
X120590000Y-39525000D01*
X123090000Y-39525000D02*
X123090000Y-35165000D01*
%TO.C,J801*%
X168360000Y-66600000D02*
X169690000Y-66600000D01*
X169690000Y-66600000D02*
X169690000Y-65550000D01*
X169690000Y-77850000D02*
X169690000Y-76300000D01*
X171410000Y-64080000D02*
X174110000Y-64080000D01*
X174110000Y-79320000D02*
X171410000Y-79320000D01*
D10*
%TO.C,U1402*%
X112300003Y-120594999D02*
X112300003Y-120345000D01*
X112300003Y-123795000D02*
X112300003Y-123545001D01*
X112550002Y-120345000D02*
X112300003Y-120345000D01*
X112550002Y-123795000D02*
X112300003Y-123795000D01*
X116750001Y-120345000D02*
X116500002Y-120345000D01*
X116750001Y-120594999D02*
X116750001Y-120345000D01*
X116750001Y-123795000D02*
X116500002Y-123795000D01*
X116750001Y-123795000D02*
X116750001Y-123545001D01*
D12*
X113150003Y-124120001D02*
G75*
G02*
X112900001Y-124120001I-125001J0D01*
G01*
X112900001Y-124120001D02*
G75*
G02*
X113150003Y-124120001I125001J0D01*
G01*
D11*
%TO.C,C1406*%
X124765000Y-121228748D02*
X124765000Y-121751252D01*
X126235000Y-121228748D02*
X126235000Y-121751252D01*
%TO.C,C706*%
X125172164Y-42470000D02*
X125387836Y-42470000D01*
X125172164Y-43190000D02*
X125387836Y-43190000D01*
%TO.C,R1727*%
X154986359Y-87550000D02*
X155293641Y-87550000D01*
X154986359Y-88310000D02*
X155293641Y-88310000D01*
%TO.C,R1509*%
X141880000Y-92173641D02*
X141880000Y-91866359D01*
X142640000Y-92173641D02*
X142640000Y-91866359D01*
%TO.C,C1430*%
X145611252Y-131315000D02*
X145088748Y-131315000D01*
X145611252Y-132785000D02*
X145088748Y-132785000D01*
%TO.C,J802*%
X168360000Y-47100000D02*
X169690000Y-47100000D01*
X169690000Y-47100000D02*
X169690000Y-46050000D01*
X169690000Y-58350000D02*
X169690000Y-56800000D01*
X171410000Y-44580000D02*
X174110000Y-44580000D01*
X174110000Y-59820000D02*
X171410000Y-59820000D01*
%TO.C,U1201*%
X161180000Y-112355000D02*
X158980000Y-112355000D01*
X161180000Y-112355000D02*
X163380000Y-112355000D01*
X161180000Y-119125000D02*
X158980000Y-119125000D01*
X161180000Y-119125000D02*
X163380000Y-119125000D01*
X157320000Y-112815000D02*
X156990000Y-113055000D01*
X156990000Y-112575000D01*
X157320000Y-112815000D01*
G36*
X157320000Y-112815000D02*
G01*
X156990000Y-113055000D01*
X156990000Y-112575000D01*
X157320000Y-112815000D01*
G37*
%TO.C,R219*%
X95246359Y-63920000D02*
X95553641Y-63920000D01*
X95246359Y-64680000D02*
X95553641Y-64680000D01*
%TO.C,R604*%
X122256359Y-103080000D02*
X122563641Y-103080000D01*
X122256359Y-103840000D02*
X122563641Y-103840000D01*
%TO.C,C1409*%
X132150000Y-120872164D02*
X132150000Y-121087836D01*
X132870000Y-120872164D02*
X132870000Y-121087836D01*
%TO.C,C1420*%
X114122164Y-119450000D02*
X114337836Y-119450000D01*
X114122164Y-120170000D02*
X114337836Y-120170000D01*
%TO.C,R903*%
X152070000Y-44643641D02*
X152070000Y-44336359D01*
X152830000Y-44643641D02*
X152830000Y-44336359D01*
%TD*%
M02*
